SplineFontDB: 3.0
FontName: Miama
FullName: Miama
FamilyName: Miama
Weight: Book
Copyright: Copyright (c) 2008-2010, Linus Romer, with Reserved Font Name Miama.\n\nThis Font Software is licensed under the SIL Open Font License, Version 1.1.
Version: 0.32
ItalicAngle: -28
UnderlinePosition: -80
UnderlineWidth: 48
Ascent: 800
Descent: 200
sfntRevision: 0x000051eb
LayerCount: 2
Layer: 0 1 "Back"  1
Layer: 1 1 "Fore"  0
XUID: [1021 288 713564382 8467978]
FSType: 4
OS2Version: 4
OS2_WeightWidthSlopeOnly: 0
OS2_UseTypoMetrics: 1
CreationTime: 1252426677
ModificationTime: 1301031782
PfmFamily: 65
TTFWeight: 400
TTFWidth: 5
LineGap: 0
VLineGap: 0
Panose: 3 3 5 2 4 7 0 0 0 3
OS2TypoAscent: 1034
OS2TypoAOffset: 0
OS2TypoDescent: -1066
OS2TypoDOffset: 0
OS2TypoLinegap: 0
OS2WinAscent: 1034
OS2WinAOffset: 0
OS2WinDescent: 1066
OS2WinDOffset: 0
HheadAscent: 1034
HheadAOffset: 0
HheadDescent: -1066
HheadDOffset: 0
OS2SubXSize: 700
OS2SubYSize: 650
OS2SubXOff: 0
OS2SubYOff: 140
OS2SupXSize: 700
OS2SupYSize: 650
OS2SupXOff: 0
OS2SupYOff: 477
OS2StrikeYSize: 50
OS2StrikeYPos: 250
OS2FamilyClass: 2565
OS2Vendor: 'free'
OS2CodePages: 20000193.4d000000
OS2UnicodeRanges: a00000af.5000205b.00000000.00000000
Lookup: 1 0 0 "'subs' Subscript lookup 0"  {"'subs' Subscript lookup 0 subtable" ("inferior" ) } ['subs' ('DFLT' <'dflt' > 'cyrl' <'dflt' > 'grek' <'dflt' > 'latn' <'dflt' > ) ]
Lookup: 6 0 0 "'ss02' Style Set 2 lookup 1"  {"'ss02' Style Set 2 lookup 1 subtable"  } ['ss02' ('DFLT' <'dflt' > 'cyrl' <'dflt' > 'grek' <'dflt' > 'latn' <'dflt' > ) ]
Lookup: 4 0 1 "'liga' Standard Ligatures lookup 2"  {"'liga' Standard Ligatures lookup 2 subtable"  } ['liga' ('DFLT' <'dflt' > 'cyrl' <'dflt' > 'grek' <'dflt' > 'latn' <'dflt' > ) ]
Lookup: 1 0 0 "'onum' Oldstyle Figures lookup 3"  {"'onum' Oldstyle Figures lookup 3 subtable" ("oldstyle" ) } ['onum' ('DFLT' <'dflt' > 'cyrl' <'dflt' > 'grek' <'dflt' > 'latn' <'dflt' > ) ]

StartChar: .notdef
Encoding: 65536 -1 0
Width: 364
Flags: W
LayerCount: 2
Fore
SplineSet
33 0 m 1,0,-1
 33 666 l 1,1,-1
 298 666 l 1,2,-1
 298 0 l 1,3,-1
 33 0 l 1,0,-1
66 33 m 1,4,-1
 265 33 l 1,5,-1
 265 633 l 1,6,-1
 66 633 l 1,7,-1
 66 33 l 1,4,-1
EndSplineSet
EndChar

StartChar: exclam
Encoding: 33 33 4
Width: 434
GlyphClass: 2
Flags: W
LayerCount: 2
Fore
SplineSet
154 28 m 0,0,1
 154 61 154 61 181 90.5 c 128,-1,2
 208 120 208 120 242 120 c 128,-1,3
 276 120 276 120 276 84 c 0,4,5
 276 54 276 54 246.5 23 c 128,-1,6
 217 -8 217 -8 194 -8 c 0,7,8
 154 -8 154 -8 154 28 c 0,0,1
688 782 m 1,9,10
 681 784 681 784 676 784 c 0,11,12
 648 784 648 784 604 745 c 128,-1,13
 560 706 560 706 514 642 c 0,14,15
 437 534 437 534 384 446 c 1,16,17
 309 316 309 316 282 212 c 1,18,19
 276 198 276 198 260 198 c 128,-1,20
 244 198 244 198 244 212 c 0,21,22
 244 222 244 222 282 316 c 128,-1,23
 320 410 320 410 350 464 c 1,24,25
 390 544 390 544 454 643 c 128,-1,26
 518 742 518 742 568 796 c 0,27,28
 586 814 586 814 632 814 c 0,29,30
 648 814 648 814 670 808 c 128,-1,31
 692 802 692 802 692 790 c 0,32,33
 692 782 692 782 688 782 c 1,9,10
EndSplineSet
EndChar

StartChar: quotedbl
Encoding: 34 34 5
Width: 480
GlyphClass: 2
Flags: W
LayerCount: 2
Fore
SplineSet
304 544 m 0,0,1
 292 544 292 544 292 556 c 0,2,3
 292 558 292 558 316 604 c 2,4,-1
 462 880 l 2,5,6
 464 884 464 884 493 896.5 c 128,-1,7
 522 909 522 909 527 912 c 0,8,9
 540 918 540 918 542 918 c 0,10,11
 548 918 548 918 548 912 c 0,12,13
 548 910 548 910 531 888 c 128,-1,14
 514 866 514 866 462 788.5 c 128,-1,15
 410 711 410 711 374.5 651.5 c 128,-1,16
 339 592 339 592 334 583.5 c 128,-1,17
 329 575 329 575 326 570.5 c 128,-1,18
 323 566 323 566 320 560.5 c 128,-1,19
 317 555 317 555 315 552.5 c 128,-1,20
 313 550 313 550 311 548 c 0,21,22
 307 544 307 544 304 544 c 0,0,1
424 544 m 0,23,24
 412 544 412 544 412 556 c 0,25,26
 412 558 412 558 436 604 c 2,27,-1
 582 880 l 2,28,29
 584 884 584 884 613 896.5 c 128,-1,30
 642 909 642 909 647 912 c 0,31,32
 660 918 660 918 662 918 c 0,33,34
 668 918 668 918 668 912 c 0,35,36
 668 910 668 910 651 888 c 128,-1,37
 634 866 634 866 582 788.5 c 128,-1,38
 530 711 530 711 494.5 651.5 c 128,-1,39
 459 592 459 592 454 583.5 c 128,-1,40
 449 575 449 575 446 570.5 c 128,-1,41
 443 566 443 566 440 560.5 c 128,-1,42
 437 555 437 555 435 552.5 c 128,-1,43
 433 550 433 550 431 548 c 0,44,45
 427 544 427 544 424 544 c 0,23,24
EndSplineSet
EndChar

StartChar: numbersign
Encoding: 35 35 6
Width: 582
GlyphClass: 2
Flags: W
LayerCount: 2
Fore
SplineSet
304 324 m 1,0,-1
 450 334 l 1,1,-1
 564 548 l 1,2,3
 520 548 520 548 416 544 c 1,4,-1
 304 324 l 1,0,-1
516 262 m 1,5,-1
 444 260 l 1,6,7
 375 129 375 129 353.5 80.5 c 128,-1,8
 332 32 332 32 321 10 c 0,9,10
 304 -26 304 -26 295 -27 c 128,-1,11
 286 -28 286 -28 277 -23.5 c 128,-1,12
 268 -19 268 -19 268 -12 c 0,13,14
 268 14 268 14 408 260 c 1,15,16
 351 260 351 260 266 250 c 1,17,18
 159 41 159 41 132 -20 c 0,19,20
 131 -23 131 -23 117.5 -27.5 c 128,-1,21
 104 -32 104 -32 100 -32 c 0,22,23
 92 -32 92 -32 92 -22.5 c 128,-1,24
 92 -13 92 -13 104.5 11 c 128,-1,25
 117 35 117 35 157 107.5 c 128,-1,26
 197 180 197 180 232 246 c 1,27,28
 164 238 164 238 126 238 c 0,29,30
 120 238 120 238 120 243.5 c 128,-1,31
 120 249 120 249 127 263 c 128,-1,32
 134 277 134 277 150 293.5 c 128,-1,33
 166 310 166 310 194 316 c 128,-1,34
 222 322 222 322 274 322 c 1,35,-1
 386 542 l 1,36,37
 312 536 312 536 292 532 c 1,38,39
 282 532 282 532 282 538 c 0,40,41
 282 591 282 591 418 604 c 1,42,43
 570 896 570 896 586 898 c 0,44,45
 593 898 593 898 603.5 893.5 c 128,-1,46
 614 889 614 889 614 884.5 c 128,-1,47
 614 880 614 880 610.5 875.5 c 128,-1,48
 607 871 607 871 596 856 c 1,49,50
 584 842 584 842 568 816 c 0,51,52
 519 740 519 740 448 606 c 1,53,54
 475 608 475 608 529 612.5 c 128,-1,55
 583 617 583 617 600 618 c 1,56,57
 626 670 626 670 691.5 791 c 128,-1,58
 757 912 757 912 766 912 c 0,59,60
 771 912 771 912 782.5 909.5 c 128,-1,61
 794 907 794 907 794 903.5 c 128,-1,62
 794 900 794 900 790 892 c 1,63,64
 709 776 709 776 628 620 c 1,65,66
 700 626 700 626 748 626 c 0,67,68
 762 626 762 626 762 618 c 0,69,70
 762 614 762 614 752.5 605.5 c 128,-1,71
 743 597 743 597 740.5 592.5 c 128,-1,72
 738 588 738 588 732 580 c 128,-1,73
 726 572 726 572 723 567.5 c 128,-1,74
 720 563 720 563 716 558 c 0,75,76
 708 548 708 548 702 548 c 2,77,-1
 590 548 l 1,78,-1
 478 336 l 1,79,80
 558 340 558 340 579 340 c 128,-1,81
 600 340 600 340 600 332 c 0,82,83
 600 329 600 329 595 320.5 c 128,-1,84
 590 312 590 312 588 308 c 0,85,86
 573 262 573 262 516 262 c 1,5,-1
EndSplineSet
EndChar

StartChar: dollar
Encoding: 36 36 7
Width: 760
GlyphClass: 2
Flags: W
LayerCount: 2
Fore
SplineSet
534 424 m 1,0,-1
 322 12 l 1,1,2
 354 8 354 8 364 8 c 0,3,4
 479 8 479 8 551.5 81 c 128,-1,5
 624 154 624 154 624 228 c 0,6,7
 624 277 624 277 600.5 322.5 c 128,-1,8
 577 368 577 368 534 424 c 1,0,-1
558 536 m 1,9,-1
 716 840 l 1,10,11
 706 842 706 842 682 842 c 0,12,13
 592 842 592 842 540 792.5 c 128,-1,14
 488 743 488 743 488 683.5 c 128,-1,15
 488 624 488 624 558 536 c 1,9,-1
822 1034 m 0,16,17
 838 1032 838 1032 842 1032 c 128,-1,18
 846 1032 846 1032 846 1028 c 128,-1,19
 846 1024 846 1024 772 884 c 1,20,21
 842 876 842 876 882 824 c 0,22,23
 900 801 900 801 900 793.5 c 128,-1,24
 900 786 900 786 893 780 c 0,25,26
 882 771 882 771 859.5 755.5 c 128,-1,27
 837 740 837 740 833.5 740 c 128,-1,28
 830 740 830 740 830 746 c 0,29,30
 830 772 830 772 806 796 c 128,-1,31
 782 820 782 820 744 832 c 1,32,-1
 578 512 l 1,33,34
 654 423 654 423 680 377.5 c 128,-1,35
 706 332 706 332 706 286 c 0,36,37
 706 207 706 207 641 131.5 c 128,-1,38
 576 56 576 56 482 11.5 c 128,-1,39
 388 -33 388 -33 300 -34 c 1,40,-1
 196 -226 l 2,41,42
 190 -238 190 -238 166 -254 c 128,-1,43
 142 -270 142 -270 135 -270 c 128,-1,44
 128 -270 128 -270 128 -266 c 1,45,-1
 262 -32 l 1,46,47
 168 -22 168 -22 122 29 c 128,-1,48
 76 80 76 80 76 136 c 0,49,50
 76 142 76 142 95 161 c 128,-1,51
 114 180 114 180 128.5 197.5 c 128,-1,52
 143 215 143 215 150.5 224.5 c 128,-1,53
 158 234 158 234 160 234 c 0,54,55
 166 234 166 234 166 230 c 1,56,-1
 157 216 l 2,57,58
 148 202 148 202 148 190 c 0,59,60
 148 119 148 119 188 77.5 c 128,-1,61
 228 36 228 36 288 18 c 1,62,-1
 512 450 l 1,63,64
 481 491 481 491 465 513.5 c 128,-1,65
 449 536 449 536 433.5 571.5 c 128,-1,66
 418 607 418 607 418 638 c 0,67,68
 418 703 418 703 471 761.5 c 128,-1,69
 524 820 524 820 598 852.5 c 128,-1,70
 672 885 672 885 740 886 c 1,71,72
 817 1034 817 1034 822 1034 c 0,16,17
EndSplineSet
EndChar

StartChar: percent
Encoding: 37 37 8
Width: 886
GlyphClass: 2
Flags: W
LayerCount: 2
Fore
SplineSet
403.5 793 m 128,-1,1
 360 736 360 736 360 681 c 128,-1,2
 360 626 360 626 396.5 592 c 128,-1,3
 433 558 433 558 486 558 c 0,4,5
 559 558 559 558 601.5 614.5 c 128,-1,6
 644 671 644 671 644 726.5 c 128,-1,7
 644 782 644 782 608 816 c 128,-1,8
 572 850 572 850 520 850 c 0,9,0
 447 850 447 850 403.5 793 c 128,-1,1
304 650 m 0,10,11
 304 740 304 740 391 813 c 128,-1,12
 478 886 478 886 566 886 c 0,13,14
 624 886 624 886 662 850 c 128,-1,15
 700 814 700 814 700 758 c 0,16,17
 700 668 700 668 613 595 c 128,-1,18
 526 522 526 522 438 522 c 0,19,20
 380 522 380 522 342 558 c 128,-1,21
 304 594 304 594 304 650 c 0,10,11
270 226 m 1,22,23
 242 211 242 211 235.5 211 c 128,-1,24
 229 211 229 211 229 214 c 0,25,26
 229 227 229 227 254 242 c 2,27,-1
 924 654 l 2,28,29
 946 668 946 668 955.5 668 c 128,-1,30
 965 668 965 668 965 664 c 0,31,32
 965 653 965 653 940 638 c 2,33,-1
 270 226 l 1,22,23
567.5 247 m 128,-1,35
 524 190 524 190 524 135 c 128,-1,36
 524 80 524 80 560.5 46 c 128,-1,37
 597 12 597 12 650 12 c 0,38,39
 723 12 723 12 765.5 68.5 c 128,-1,40
 808 125 808 125 808 180.5 c 128,-1,41
 808 236 808 236 772 270 c 128,-1,42
 736 304 736 304 684 304 c 0,43,34
 611 304 611 304 567.5 247 c 128,-1,35
468 104 m 0,44,45
 468 194 468 194 555 267 c 128,-1,46
 642 340 642 340 730 340 c 0,47,48
 788 340 788 340 826 304 c 128,-1,49
 864 268 864 268 864 212 c 0,50,51
 864 122 864 122 777 49 c 128,-1,52
 690 -24 690 -24 602 -24 c 0,53,54
 544 -24 544 -24 506 12 c 128,-1,55
 468 48 468 48 468 104 c 0,44,45
EndSplineSet
EndChar

StartChar: ampersand
Encoding: 38 38 9
Width: 1016
GlyphClass: 2
Flags: W
LayerCount: 2
Fore
SplineSet
502 566 m 1,0,1
 548 506 548 506 588 506 c 0,2,3
 616 506 616 506 616 532 c 0,4,5
 616 566 616 566 502 566 c 1,0,1
638 590.5 m 128,-1,7
 666 575 666 575 666 547.5 c 128,-1,8
 666 520 666 520 638.5 503 c 128,-1,9
 611 486 611 486 575.5 486 c 128,-1,10
 540 486 540 486 507.5 508 c 128,-1,11
 475 530 475 530 458 562 c 1,12,13
 395 552 395 552 347.5 521.5 c 128,-1,14
 300 491 300 491 274 449 c 0,15,16
 224 366 224 366 224 280 c 0,17,18
 224 163 224 163 311 88.5 c 128,-1,19
 398 14 398 14 515 14 c 128,-1,20
 632 14 632 14 707.5 95 c 128,-1,21
 783 176 783 176 802 286 c 1,22,23
 783 298 783 298 743 327.5 c 128,-1,24
 703 357 703 357 676 370.5 c 128,-1,25
 649 384 649 384 626 384 c 128,-1,26
 603 384 603 384 588.5 367.5 c 128,-1,27
 574 351 574 351 574 330 c 128,-1,28
 574 309 574 309 597 288.5 c 128,-1,29
 620 268 620 268 620 266 c 0,30,31
 620 260 620 260 592 260 c 2,32,-1
 584 260 l 2,33,34
 518 260 518 260 518 322 c 0,35,36
 518 352 518 352 553 373 c 128,-1,37
 588 394 588 394 637 394 c 128,-1,38
 686 394 686 394 745.5 369.5 c 128,-1,39
 805 345 805 345 849 315 c 128,-1,40
 893 285 893 285 944.5 260.5 c 128,-1,41
 996 236 996 236 1029 236 c 0,42,43
 1066 236 1066 236 1100 276 c 0,44,45
 1106 282 1106 282 1108.5 286 c 128,-1,46
 1111 290 1111 290 1113.5 290 c 128,-1,47
 1116 290 1116 290 1116 285 c 128,-1,48
 1116 280 1116 280 1096 260 c 1,49,50
 1050 208 1050 208 1014 208 c 0,51,52
 945 208 945 208 856 256 c 1,53,54
 842 215 842 215 805 167 c 128,-1,55
 768 119 768 119 715 74 c 128,-1,56
 662 29 662 29 589 -0.5 c 128,-1,57
 516 -30 516 -30 442 -30 c 0,58,59
 328 -30 328 -30 240 45.5 c 128,-1,60
 152 121 152 121 152 242.5 c 128,-1,61
 152 364 152 364 239 455 c 128,-1,62
 326 546 326 546 448 586 c 1,63,64
 440 607 440 607 440 644 c 0,65,66
 440 717 440 717 482.5 774 c 128,-1,67
 525 831 525 831 581.5 857.5 c 128,-1,68
 638 884 638 884 696.5 884 c 128,-1,69
 755 884 755 884 810.5 857 c 128,-1,70
 866 830 866 830 866 790 c 0,71,72
 866 783 866 783 858 772 c 128,-1,73
 850 761 850 761 839.5 741.5 c 128,-1,74
 829 722 829 722 825.5 722 c 128,-1,75
 822 722 822 722 822 726 c 0,76,77
 822 774 822 774 767.5 809 c 128,-1,78
 713 844 713 844 660 844 c 0,79,80
 572 844 572 844 519 794 c 128,-1,81
 466 744 466 744 466 666 c 0,82,83
 466 631 466 631 482 596 c 1,84,85
 539 606 539 606 574.5 606 c 128,-1,6
 610 606 610 606 638 590.5 c 128,-1,7
EndSplineSet
EndChar

StartChar: quotesingle
Encoding: 39 39 10
Width: 360
GlyphClass: 2
Flags: W
LayerCount: 2
Fore
SplineSet
304 544 m 0,0,1
 292 544 292 544 292 556 c 0,2,3
 292 558 292 558 316 604 c 2,4,-1
 462 880 l 2,5,6
 464 884 464 884 493 896.5 c 128,-1,7
 522 909 522 909 527 912 c 0,8,9
 540 918 540 918 542 918 c 0,10,11
 548 918 548 918 548 912 c 0,12,13
 548 910 548 910 531 888 c 128,-1,14
 514 866 514 866 462 788.5 c 128,-1,15
 410 711 410 711 374.5 651.5 c 128,-1,16
 339 592 339 592 334 583.5 c 128,-1,17
 329 575 329 575 326 570.5 c 128,-1,18
 323 566 323 566 320 560.5 c 128,-1,19
 317 555 317 555 315 552.5 c 128,-1,20
 313 550 313 550 311 548 c 0,21,22
 307 544 307 544 304 544 c 0,0,1
EndSplineSet
EndChar

StartChar: parenleft
Encoding: 40 40 11
Width: 482
GlyphClass: 2
Flags: W
LayerCount: 2
Fore
SplineSet
326 -138 m 0,0,1
 182 -80 182 -80 182 100 c 0,2,3
 182 235 182 235 273 417 c 0,4,5
 323 517 323 517 396.5 614.5 c 128,-1,6
 470 712 470 712 588 814 c 128,-1,7
 706 916 706 916 850 996 c 1,8,9
 886 1014 886 1014 892 1014 c 128,-1,10
 898 1014 898 1014 898 1008.5 c 128,-1,11
 898 1003 898 1003 884 996 c 1,12,13
 745 914 745 914 632.5 807.5 c 128,-1,14
 520 701 520 701 451 599.5 c 128,-1,15
 382 498 382 498 336 393 c 0,16,17
 252 204 252 204 252 64 c 0,18,19
 252 -44 252 -44 294 -90 c 1,20,21
 310 -106 310 -106 314 -108 c 0,22,23
 334 -119 334 -119 336 -122 c 1,24,25
 348 -129 348 -129 348 -135.5 c 128,-1,26
 348 -142 348 -142 341 -142 c 128,-1,27
 334 -142 334 -142 326 -138 c 0,0,1
EndSplineSet
Substitution2: "'subs' Subscript lookup 0 subtable" uni208D
EndChar

StartChar: parenright
Encoding: 41 41 12
Width: 484
GlyphClass: 2
Flags: W
LayerCount: 2
Fore
SplineSet
500 1010 m 0,0,1
 644 952 644 952 644 772 c 0,2,3
 644 637 644 637 553 455 c 0,4,5
 503 355 503 355 429.5 257.5 c 128,-1,6
 356 160 356 160 238 58 c 128,-1,7
 120 -44 120 -44 -24 -124 c 1,8,9
 -60 -142 -60 -142 -66 -142 c 128,-1,10
 -72 -142 -72 -142 -72 -136.5 c 128,-1,11
 -72 -131 -72 -131 -58 -124 c 1,12,13
 81 -42 81 -42 193.5 64.5 c 128,-1,14
 306 171 306 171 375 272.5 c 128,-1,15
 444 374 444 374 490 479 c 0,16,17
 574 668 574 668 574 808 c 0,18,19
 574 916 574 916 532 962 c 1,20,21
 516 978 516 978 512 980 c 0,22,23
 492 991 492 991 490 994 c 1,24,25
 478 1001 478 1001 478 1007.5 c 128,-1,26
 478 1014 478 1014 485 1014 c 128,-1,27
 492 1014 492 1014 500 1010 c 0,0,1
EndSplineSet
Substitution2: "'subs' Subscript lookup 0 subtable" uni208E
EndChar

StartChar: asterisk
Encoding: 42 42 13
Width: 430
GlyphClass: 2
Flags: W
LayerCount: 2
Fore
SplineSet
318 586 m 1,0,-1
 320 646 l 1,1,2
 284 648 284 648 275 648 c 128,-1,3
 266 648 266 648 266 642 c 0,4,5
 266 625 266 625 318 586 c 1,0,-1
330 580 m 1,6,7
 351 563 351 563 372 550 c 1,8,9
 408 598 408 598 436 644 c 1,10,-1
 330 646 l 1,11,-1
 330 580 l 1,6,7
450 624 m 1,12,13
 420 576 420 576 398 532 c 1,14,15
 435 506 435 506 472 488 c 128,-1,16
 509 470 509 470 518 470 c 0,17,18
 524 470 524 470 524 481.5 c 128,-1,19
 524 493 524 493 511.5 518 c 128,-1,20
 499 543 499 543 478 576.5 c 128,-1,21
 457 610 457 610 450 624 c 1,12,13
426 680 m 1,22,23
 416 697 416 697 403 719.5 c 128,-1,24
 390 742 390 742 382.5 754.5 c 128,-1,25
 375 767 375 767 367 780 c 0,26,27
 352 804 352 804 345.5 804 c 128,-1,28
 339 804 339 804 334 686 c 1,29,-1
 426 680 l 1,22,23
230.5 683 m 128,-1,31
 245 694 245 694 265.5 694 c 128,-1,32
 286 694 286 694 322 688 c 1,33,34
 324 717 324 717 325 750 c 128,-1,35
 326 783 326 783 328 802 c 128,-1,36
 330 821 330 821 332 832 c 1,37,38
 336 844 336 844 340 855 c 0,39,40
 349 876 349 876 368 876 c 0,41,42
 378 876 378 876 390 854 c 1,43,44
 403 834 403 834 412 816 c 0,45,46
 442 758 442 758 472 706 c 1,47,48
 494 743 494 743 516.5 787.5 c 128,-1,49
 539 832 539 832 549 849 c 128,-1,50
 559 866 559 866 566.5 866 c 128,-1,51
 574 866 574 866 582 851 c 128,-1,52
 590 836 590 836 590 830 c 128,-1,53
 590 824 590 824 588 822 c 0,54,55
 553 776 553 776 492 680 c 1,56,-1
 678 680 l 2,57,58
 690 680 690 680 690 672 c 128,-1,59
 690 664 690 664 680.5 653 c 128,-1,60
 671 642 671 642 662 642 c 2,61,-1
 622 644 l 1,62,-1
 504 644 l 1,63,64
 572 528 572 528 598 490 c 0,65,66
 600 486 600 486 600 479 c 128,-1,67
 600 472 600 472 590 463 c 128,-1,68
 580 454 580 454 570 450 c 2,69,-1
 560 446 l 1,70,71
 515 446 515 446 392 520 c 1,72,73
 386 512 386 512 378 494 c 0,74,75
 359 455 359 455 352 455.5 c 128,-1,76
 345 456 345 456 337.5 460 c 128,-1,77
 330 464 330 464 322 481.5 c 128,-1,78
 314 499 314 499 314 528 c 1,79,-1
 316 570 l 1,80,81
 276 596 276 596 246 623 c 128,-1,82
 216 650 216 650 216 661 c 128,-1,30
 216 672 216 672 230.5 683 c 128,-1,31
364 540 m 1,83,84
 360 543 360 543 347 551 c 128,-1,85
 334 559 334 559 330 562 c 1,86,87
 330 514 330 514 338 514 c 0,88,89
 348 514 348 514 364 540 c 1,83,84
EndSplineSet
EndChar

StartChar: plus
Encoding: 43 43 14
Width: 672
GlyphClass: 2
Flags: W
LayerCount: 2
Fore
SplineSet
402 298 m 1,0,1
 294 290 294 290 210 246.5 c 128,-1,2
 126 203 126 203 126 142 c 0,3,4
 126 120 126 120 141.5 104 c 128,-1,5
 157 88 157 88 182 88 c 0,6,7
 239 88 239 88 300.5 155.5 c 128,-1,8
 362 223 362 223 402 298 c 1,0,1
722 354 m 0,9,10
 722 345 722 345 692.5 325.5 c 128,-1,11
 663 306 663 306 656 306 c 0,12,13
 552 306 552 306 468 302 c 1,14,15
 433 233 433 233 390.5 184.5 c 128,-1,16
 348 136 348 136 308 114 c 1,17,18
 207 75 207 75 184 76 c 0,19,20
 183 76 183 76 182 76 c 0,21,22
 150 76 150 76 131 94.5 c 128,-1,23
 112 113 112 113 112 136 c 0,24,25
 112 203 112 203 189 264 c 128,-1,26
 266 325 266 325 422 340 c 1,27,28
 474 453 474 453 474 496 c 0,29,30
 474 516 474 516 459 531 c 128,-1,31
 444 546 444 546 411 546 c 128,-1,32
 378 546 378 546 343.5 532.5 c 128,-1,33
 309 519 309 519 289.5 505.5 c 128,-1,34
 270 492 270 492 267 492 c 128,-1,35
 264 492 264 492 264 496 c 0,36,37
 264 503 264 503 291.5 522 c 128,-1,38
 319 541 319 541 372 560.5 c 128,-1,39
 425 580 425 580 478 580 c 0,40,41
 500 580 500 580 522 564.5 c 128,-1,42
 544 549 544 549 544 522 c 0,43,44
 544 452 544 452 490 344 c 1,45,46
 625 353 625 353 720 356 c 0,47,48
 722 356 722 356 722 354 c 0,9,10
EndSplineSet
EndChar

StartChar: comma
Encoding: 44 44 15
Width: 320
GlyphClass: 2
Flags: W
LayerCount: 2
Fore
SplineSet
160 84 m 0,0,1
 200 84 200 84 200 -4 c 1,2,3
 199 -48 199 -48 166.5 -98.5 c 128,-1,4
 134 -149 134 -149 93 -184.5 c 128,-1,5
 52 -220 52 -220 18.5 -244 c 128,-1,6
 -15 -268 -15 -268 -21.5 -268 c 128,-1,7
 -28 -268 -28 -268 -28 -266 c 2,8,-1
 -28 -262 l 2,9,10
 -28 -261 -28 -261 -25 -258 c 128,-1,11
 -22 -255 -22 -255 -20 -254 c 128,-1,12
 -18 -253 -18 -253 -15 -250.5 c 128,-1,13
 -12 -248 -12 -248 -8.5 -245.5 c 128,-1,14
 -5 -243 -5 -243 0 -239.5 c 128,-1,15
 5 -236 5 -236 10 -232 c 0,16,17
 126 -145 126 -145 126 -56 c 0,18,19
 126 -24 126 -24 115 11.5 c 128,-1,20
 104 47 104 47 104 50 c 0,21,22
 104 60 104 60 127.5 72 c 128,-1,23
 151 84 151 84 160 84 c 0,0,1
EndSplineSet
EndChar

StartChar: hyphen
Encoding: 45 45 16
Width: 536
GlyphClass: 2
Flags: W
LayerCount: 2
Fore
SplineSet
200 354 m 2,0,-1
 480 350 l 1,1,-1
 572 352 l 2,2,3
 576 352 576 352 576 350.5 c 128,-1,4
 576 349 576 349 570 335 c 128,-1,5
 564 321 564 321 562 313 c 0,6,7
 558 298 558 298 554 298 c 128,-1,8
 550 298 550 298 462.5 302 c 128,-1,9
 375 306 375 306 318 306 c 1,10,-1
 172 302 l 2,11,12
 168 302 168 302 168 304 c 128,-1,13
 168 306 168 306 170.5 309.5 c 128,-1,14
 173 313 173 313 177.5 318.5 c 128,-1,15
 182 324 182 324 184 328 c 0,16,17
 187 332 187 332 190 340 c 0,18,19
 195 354 195 354 200 354 c 2,0,-1
EndSplineSet
EndChar

StartChar: period
Encoding: 46 46 17
Width: 320
GlyphClass: 2
Flags: W
LayerCount: 2
Fore
SplineSet
112 28 m 0,0,1
 112 61 112 61 139 90.5 c 128,-1,2
 166 120 166 120 200 120 c 128,-1,3
 234 120 234 120 234 84 c 0,4,5
 234 54 234 54 204.5 23 c 128,-1,6
 175 -8 175 -8 152 -8 c 0,7,8
 112 -8 112 -8 112 28 c 0,0,1
EndSplineSet
EndChar

StartChar: slash
Encoding: 47 47 18
Width: 522
GlyphClass: 2
Flags: W
LayerCount: 2
Fore
SplineSet
692 1056 m 2,0,1
 696 1063 696 1063 717 1074.5 c 128,-1,2
 738 1086 738 1086 746 1086 c 1,3,-1
 748 1084 l 1,4,5
 414 455 414 455 226 107 c 1,6,7
 226 107 226 107 146 -40 c 0,8,9
 143 -46 143 -46 121 -58 c 128,-1,10
 99 -70 99 -70 94 -70 c 1,11,-1
 92 -68 l 1,12,13
 92 -65 92 -65 98 -56 c 1,14,-1
 692 1056 l 2,0,1
EndSplineSet
EndChar

StartChar: zero
Encoding: 48 48 19
Width: 726
GlyphClass: 2
Flags: W
LayerCount: 2
Fore
SplineSet
281.5 389 m 128,-1,1
 236 274 236 274 236 195 c 128,-1,2
 236 116 236 116 264.5 69 c 128,-1,3
 293 22 293 22 344 22 c 0,4,5
 413 22 413 22 496.5 88 c 128,-1,6
 580 154 580 154 648.5 250 c 128,-1,7
 717 346 717 346 763.5 460.5 c 128,-1,8
 810 575 810 575 810 666 c 0,9,10
 810 709 810 709 801 745 c 128,-1,11
 792 781 792 781 763.5 810.5 c 128,-1,12
 735 840 735 840 690 840 c 0,13,14
 624 840 624 840 542 771 c 128,-1,15
 460 702 460 702 393.5 603 c 128,-1,0
 327 504 327 504 281.5 389 c 128,-1,1
610.5 843.5 m 128,-1,17
 693 886 693 886 760 886 c 128,-1,18
 827 886 827 886 856.5 833 c 128,-1,19
 886 780 886 780 886 694.5 c 128,-1,20
 886 609 886 609 831 481.5 c 128,-1,21
 776 354 776 354 691 242.5 c 128,-1,22
 606 131 606 131 492.5 53.5 c 128,-1,23
 379 -24 379 -24 274 -24 c 0,24,25
 148 -24 148 -24 148 152 c 0,26,27
 148 252 148 252 190 360.5 c 128,-1,28
 232 469 232 469 300 560.5 c 128,-1,29
 368 652 368 652 448 726.5 c 128,-1,16
 528 801 528 801 610.5 843.5 c 128,-1,17
EndSplineSet
Substitution2: "'onum' Oldstyle Figures lookup 3 subtable" uniE000
Substitution2: "'subs' Subscript lookup 0 subtable" uni2080
EndChar

StartChar: one
Encoding: 49 49 20
Width: 540
GlyphClass: 2
Flags: W
LayerCount: 2
Fore
SplineSet
616 674 m 1,0,1
 353 444 353 444 148 326 c 0,2,3
 125 312 125 312 114 312 c 128,-1,4
 103 312 103 312 103 313 c 0,5,6
 103 316 103 316 120 326 c 0,7,8
 284 424 284 424 466 574 c 0,9,10
 474 581 474 581 514 615 c 0,11,12
 617 701 617 701 642 726 c 0,13,14
 649 734 649 734 674.5 786 c 128,-1,15
 700 838 700 838 724 852 c 1,16,17
 788 886 788 886 802 886 c 128,-1,18
 816 886 816 886 816 868.5 c 128,-1,19
 816 851 816 851 792 817.5 c 128,-1,20
 768 784 768 784 728 750 c 1,21,22
 494 334 494 334 366 52 c 0,23,24
 361 40 361 40 354.5 23.5 c 128,-1,25
 348 7 348 7 344 0 c 0,26,27
 338 -12 338 -12 328 -14 c 0,28,29
 266 -21 266 -21 236 -40 c 0,30,31
 226 -46 226 -46 222 -46 c 0,32,33
 212 -46 212 -46 212 -38 c 0,34,35
 212 -35 212 -35 226 -13 c 0,36,37
 280 75 280 75 319.5 146.5 c 128,-1,38
 359 218 359 218 462 400 c 128,-1,39
 565 582 565 582 616 674 c 1,0,1
EndSplineSet
Substitution2: "'onum' Oldstyle Figures lookup 3 subtable" uniE001
Substitution2: "'subs' Subscript lookup 0 subtable" uni2081
EndChar

StartChar: two
Encoding: 50 50 21
Width: 650
GlyphClass: 2
Flags: W
LayerCount: 2
Fore
SplineSet
624 886 m 0,0,1
 699 886 699 886 744.5 846 c 128,-1,2
 790 806 790 806 790 744 c 0,3,4
 790 708 790 708 775.5 671 c 128,-1,5
 761 634 761 634 719 586.5 c 128,-1,6
 677 539 677 539 644 506 c 0,7,8
 610 472 610 472 528 406 c 0,9,10
 434 331 434 331 300 231 c 128,-1,11
 166 131 166 131 128 102 c 1,12,13
 142 106 142 106 154 106 c 0,14,15
 202 106 202 106 254 86 c 256,16,17
 306 66 306 66 346 40 c 0,18,19
 464 -36 464 -36 538 -56 c 0,20,21
 581 -68 581 -68 649.5 -68 c 128,-1,22
 718 -68 718 -68 778 -40 c 0,23,24
 793 -32 793 -32 793 -35 c 0,25,26
 793 -42 793 -42 742 -68 c 1,27,28
 636 -116 636 -116 544 -116 c 0,29,30
 496 -116 496 -116 457 -104.5 c 128,-1,31
 418 -93 418 -93 364.5 -64 c 128,-1,32
 311 -35 311 -35 272 -9 c 128,-1,33
 233 17 233 17 182 37.5 c 128,-1,34
 131 58 131 58 84 58 c 0,35,36
 80 58 80 58 64 54 c 1,37,38
 -14 -8 -14 -8 -29.5 -19 c 128,-1,39
 -45 -30 -45 -30 -55.5 -30 c 128,-1,40
 -66 -30 -66 -30 -66 -24.5 c 128,-1,41
 -66 -19 -66 -19 -32 10 c 128,-1,42
 2 39 2 39 62.5 88 c 128,-1,43
 123 137 123 137 160.5 169.5 c 128,-1,44
 198 202 198 202 291 279 c 128,-1,45
 384 356 384 356 441 406 c 128,-1,46
 498 456 498 456 564 520 c 0,47,48
 694 648 694 648 694 732 c 0,49,50
 694 780 694 780 661 816 c 128,-1,51
 628 852 628 852 580 852 c 0,52,53
 548 852 548 852 499.5 836.5 c 128,-1,54
 451 821 451 821 412 782 c 0,55,56
 392 762 392 762 390 762 c 0,57,58
 384 762 384 762 384 768 c 128,-1,59
 384 774 384 774 406 796 c 0,60,61
 493 886 493 886 624 886 c 0,0,1
EndSplineSet
Substitution2: "'onum' Oldstyle Figures lookup 3 subtable" uniE002
Substitution2: "'subs' Subscript lookup 0 subtable" uni2082
EndChar

StartChar: three
Encoding: 51 51 22
Width: 620
GlyphClass: 2
Flags: W
LayerCount: 2
Fore
SplineSet
100 156 m 1,0,1
 80 134 80 134 80 123.5 c 128,-1,2
 80 113 80 113 88 102 c 128,-1,3
 96 91 96 91 114 77 c 128,-1,4
 132 63 132 63 156 51 c 0,5,6
 213 22 213 22 290 22 c 0,7,8
 409 22 409 22 501.5 112.5 c 128,-1,9
 594 203 594 203 594 312 c 0,10,11
 594 384 594 384 545.5 428 c 128,-1,12
 497 472 497 472 420 472 c 0,13,14
 400 472 400 472 383 466 c 128,-1,15
 366 460 366 460 359 460 c 128,-1,16
 352 460 352 460 352 467 c 128,-1,17
 352 474 352 474 378.5 489 c 128,-1,18
 405 504 405 504 426.5 509 c 128,-1,19
 448 514 448 514 512 540.5 c 128,-1,20
 576 567 576 567 610 588 c 1,21,22
 710 645 710 645 710 738 c 0,23,24
 710 848 710 848 582 848 c 0,25,26
 523 848 523 848 488 810 c 0,27,28
 476 798 476 798 454 786 c 128,-1,29
 432 774 432 774 423 774 c 128,-1,30
 414 774 414 774 414 778 c 0,31,32
 414 784 414 784 446.5 811.5 c 128,-1,33
 479 839 479 839 537.5 867.5 c 128,-1,34
 596 896 596 896 644.5 896 c 128,-1,35
 693 896 693 896 722.5 885 c 128,-1,36
 752 874 752 874 766 856 c 1,37,38
 790 822 790 822 790 782 c 0,39,40
 790 669 790 669 620 570 c 1,41,42
 568 542 568 542 516 518 c 1,43,44
 587 512 587 512 629.5 462.5 c 128,-1,45
 672 413 672 413 672 348 c 128,-1,46
 672 283 672 283 625.5 211 c 128,-1,47
 579 139 579 139 510 88 c 128,-1,48
 441 37 441 37 363 5.5 c 128,-1,49
 285 -26 285 -26 211 -26 c 128,-1,50
 137 -26 137 -26 73.5 7 c 128,-1,51
 10 40 10 40 10 78 c 0,52,53
 10 90 10 90 18 98 c 1,54,55
 33 110 33 110 52 126 c 0,56,57
 93 162 93 162 94 162 c 0,58,59
 100 162 100 162 100 156 c 1,0,1
EndSplineSet
Substitution2: "'onum' Oldstyle Figures lookup 3 subtable" uniE003
Substitution2: "'subs' Subscript lookup 0 subtable" uni2083
EndChar

StartChar: four
Encoding: 52 52 23
Width: 676
GlyphClass: 2
Flags: W
LayerCount: 2
Fore
SplineSet
850 516 m 1,0,1
 850 516 850 516 854 514 c 1,2,3
 854 510 854 510 832.5 496 c 128,-1,4
 811 482 811 482 802 478 c 0,5,6
 714 446 714 446 652 434 c 1,7,8
 484 122 484 122 442 14 c 0,9,10
 435 -5 435 -5 430 -9 c 128,-1,11
 425 -13 425 -13 420 -14 c 0,12,13
 359 -21 359 -21 333 -40 c 0,14,15
 325 -46 325 -46 322 -46 c 0,16,17
 312 -46 312 -46 312 -38 c 0,18,19
 312 -36 312 -36 326 -14 c 0,20,21
 391 90 391 90 410 126 c 1,22,-1
 576 420 l 1,23,24
 451 400 451 400 322 400 c 0,25,26
 291 400 291 400 263 403 c 128,-1,27
 235 406 235 406 205.5 421 c 128,-1,28
 176 436 176 436 176 462 c 128,-1,29
 176 488 176 488 193.5 516 c 128,-1,30
 211 544 211 544 247 576 c 128,-1,31
 283 608 283 608 317 634.5 c 128,-1,32
 351 661 351 661 405 701.5 c 128,-1,33
 459 742 459 742 492 768 c 1,34,35
 549 818 549 818 576 854 c 0,36,37
 581 860 581 860 614 876 c 128,-1,38
 647 892 647 892 656 892 c 1,39,-1
 658 890 l 1,40,41
 658 875 658 875 508 750 c 0,42,43
 486 732 486 732 433 691 c 128,-1,44
 380 650 380 650 348 623.5 c 128,-1,45
 316 597 316 597 288 563.5 c 128,-1,46
 260 530 260 530 260 506 c 0,47,48
 260 471 260 471 313 456.5 c 128,-1,49
 366 442 366 442 435.5 442 c 128,-1,50
 505 442 505 442 596 456 c 1,51,-1
 776 772 l 2,52,53
 779 777 779 777 785.5 788.5 c 128,-1,54
 792 800 792 800 794 803 c 128,-1,55
 796 806 796 806 800.5 813 c 128,-1,56
 805 820 805 820 808 822 c 0,57,58
 821 833 821 833 830 839 c 1,59,60
 840 844 840 844 858 858 c 0,61,62
 895 886 895 886 904.5 886 c 128,-1,63
 914 886 914 886 914 882 c 0,64,65
 914 876 914 876 907 869 c 2,66,-1
 890 852 l 2,67,68
 880 842 880 842 872 830 c 0,69,70
 826 758 826 758 670 470 c 1,71,72
 725 481 725 481 786 498.5 c 128,-1,73
 847 516 847 516 850 516 c 1,0,1
EndSplineSet
Substitution2: "'onum' Oldstyle Figures lookup 3 subtable" uniE004
Substitution2: "'subs' Subscript lookup 0 subtable" uni2084
EndChar

StartChar: five
Encoding: 53 53 24
Width: 620
GlyphClass: 2
Flags: W
LayerCount: 2
Fore
SplineSet
64 -28 m 0,0,1
 -2 -2 -2 -2 -2 50 c 0,2,3
 -2 80 -2 80 18 104.5 c 128,-1,4
 38 129 38 129 77 158.5 c 128,-1,5
 116 188 116 188 125 197 c 128,-1,6
 134 206 134 206 138 206 c 1,7,-1
 142 204 l 1,8,9
 142 199 142 199 131.5 190 c 128,-1,10
 121 181 121 181 109 171 c 128,-1,11
 97 161 97 161 86.5 140.5 c 128,-1,12
 76 120 76 120 76 90 c 128,-1,13
 76 60 76 60 111.5 31 c 128,-1,14
 147 2 147 2 224 2 c 0,15,16
 374 2 374 2 487 91 c 128,-1,17
 600 180 600 180 600 310 c 0,18,19
 600 387 600 387 551 434.5 c 128,-1,20
 502 482 502 482 420 482 c 0,21,22
 352 482 352 482 284 444 c 0,23,24
 270 436 270 436 262 436 c 128,-1,25
 254 436 254 436 254 444 c 0,26,27
 254 445 254 445 286.5 490.5 c 128,-1,28
 319 536 319 536 372 632 c 128,-1,29
 425 728 425 728 466 836 c 0,30,31
 471 849 471 849 476.5 853.5 c 128,-1,32
 482 858 482 858 494 858 c 128,-1,33
 506 858 506 858 515 854 c 128,-1,34
 524 850 524 850 536 845 c 0,35,36
 567 832 567 832 693 832 c 128,-1,37
 819 832 819 832 904 866 c 0,38,39
 910 868 910 868 913 874 c 128,-1,40
 916 880 916 880 918 880 c 0,41,42
 924 880 924 880 924 874 c 0,43,44
 924 871 924 871 914.5 858.5 c 128,-1,45
 905 846 905 846 882 828.5 c 128,-1,46
 859 811 859 811 830 802 c 0,47,48
 722 768 722 768 596 768 c 0,49,50
 574 768 574 768 484 778 c 1,51,52
 425 631 425 631 332 490 c 1,53,54
 427 530 427 530 486.5 530 c 128,-1,55
 546 530 546 530 584.5 512 c 128,-1,56
 623 494 623 494 642 464 c 0,57,58
 678 408 678 408 678 339 c 128,-1,59
 678 270 678 270 628 196.5 c 128,-1,60
 578 123 578 123 501 71.5 c 128,-1,61
 424 20 424 20 331.5 -11 c 128,-1,62
 239 -42 239 -42 169 -42 c 128,-1,63
 99 -42 99 -42 64 -28 c 0,0,1
EndSplineSet
Substitution2: "'onum' Oldstyle Figures lookup 3 subtable" uniE005
Substitution2: "'subs' Subscript lookup 0 subtable" uni2085
EndChar

StartChar: six
Encoding: 54 54 25
Width: 628
GlyphClass: 2
Flags: W
LayerCount: 2
Fore
SplineSet
602 288 m 0,0,1
 602 398 602 398 464 398 c 128,-1,2
 326 398 326 398 158 200 c 1,3,4
 148 165 148 165 148 117.5 c 128,-1,5
 148 70 148 70 181 38 c 128,-1,6
 214 6 214 6 262 6 c 0,7,8
 387 6 387 6 494.5 99 c 128,-1,9
 602 192 602 192 602 288 c 0,0,1
393 411.5 m 128,-1,11
 469 446 469 446 535.5 446 c 128,-1,12
 602 446 602 446 642 421 c 128,-1,13
 682 396 682 396 682 336 c 128,-1,14
 682 276 682 276 639 210 c 128,-1,15
 596 144 596 144 528 88.5 c 128,-1,16
 460 33 460 33 368 -4.5 c 128,-1,17
 276 -42 276 -42 188 -42 c 0,18,19
 142 -42 142 -42 105 -8 c 128,-1,20
 68 26 68 26 68 76 c 0,21,22
 68 181 68 181 151.5 309 c 128,-1,23
 235 437 235 437 364.5 550 c 128,-1,24
 494 663 494 663 654.5 758 c 128,-1,25
 815 853 815 853 966 900 c 0,26,27
 970 902 970 902 975 902 c 128,-1,28
 980 902 980 902 980 900 c 0,29,30
 980 893 980 893 953.5 868.5 c 128,-1,31
 927 844 927 844 910 838 c 0,32,33
 690 765 690 765 480 605 c 128,-1,34
 270 445 270 445 188 276 c 1,35,36
 224 310 224 310 270.5 343.5 c 128,-1,10
 317 377 317 377 393 411.5 c 128,-1,11
EndSplineSet
Substitution2: "'onum' Oldstyle Figures lookup 3 subtable" uniE006
Substitution2: "'subs' Subscript lookup 0 subtable" uni2086
EndChar

StartChar: seven
Encoding: 55 55 26
Width: 620
GlyphClass: 2
Flags: W
LayerCount: 2
Fore
SplineSet
446 376 m 1,0,-1
 278 362 l 2,1,2
 266 362 266 362 266 366.5 c 128,-1,3
 266 371 266 371 278.5 387.5 c 128,-1,4
 291 404 291 404 302 404 c 2,5,-1
 472 404 l 1,6,-1
 856 792 l 1,7,8
 736 762 736 762 587 762 c 128,-1,9
 438 762 438 762 388 775.5 c 128,-1,10
 338 789 338 789 338 804 c 0,11,12
 338 811 338 811 348.5 826.5 c 128,-1,13
 359 842 359 842 372.5 867 c 128,-1,14
 386 892 386 892 390 892 c 128,-1,15
 394 892 394 892 394 888 c 0,16,17
 394 856 394 856 478.5 842 c 128,-1,18
 563 828 563 828 627.5 828 c 128,-1,19
 692 828 692 828 800.5 839 c 128,-1,20
 909 850 909 850 934 869 c 128,-1,21
 959 888 959 888 962 888 c 0,22,23
 970 888 970 888 970 877 c 128,-1,24
 970 866 970 866 878 778 c 0,25,26
 652 561 652 561 516 404 c 1,27,-1
 694 404 l 2,28,29
 702 404 702 404 702 398 c 0,30,31
 702 380 702 380 494 380 c 1,32,33
 354 215 354 215 208 -4 c 0,34,35
 201 -13 201 -13 185 -17 c 128,-1,36
 169 -21 169 -21 159.5 -24.5 c 128,-1,37
 150 -28 150 -28 131 -43 c 128,-1,38
 112 -58 112 -58 106 -58 c 0,39,40
 96 -58 96 -58 96 -50.5 c 128,-1,41
 96 -43 96 -43 108 -26 c 0,42,43
 304 226 304 226 446 376 c 1,0,-1
EndSplineSet
Substitution2: "'onum' Oldstyle Figures lookup 3 subtable" uniE007
Substitution2: "'subs' Subscript lookup 0 subtable" uni2087
EndChar

StartChar: eight
Encoding: 56 56 27
Width: 660
GlyphClass: 2
Flags: W
LayerCount: 2
Fore
SplineSet
484 482 m 1,0,1
 144 314 144 314 144 152 c 0,2,3
 144 104 144 104 183.5 66 c 128,-1,4
 223 28 223 28 320 28 c 0,5,6
 457 28 457 28 545.5 102 c 128,-1,7
 634 176 634 176 634 256 c 0,8,9
 634 292 634 292 618 326.5 c 128,-1,10
 602 361 602 361 584 381 c 128,-1,11
 566 401 566 401 532.5 433 c 128,-1,12
 499 465 499 465 484 482 c 1,0,1
678 644 m 1,13,-1
 698 640 l 1,14,15
 724 640 724 640 756 686 c 128,-1,16
 788 732 788 732 788 769 c 128,-1,17
 788 806 788 806 767 830 c 128,-1,18
 746 854 746 854 696 854 c 0,19,20
 621 854 621 854 551.5 792.5 c 128,-1,21
 482 731 482 731 482 666 c 0,22,23
 482 628 482 628 498 600 c 128,-1,24
 514 572 514 572 546 542 c 1,25,26
 578 551 578 551 655.5 584.5 c 128,-1,27
 733 618 733 618 737.5 618 c 128,-1,28
 742 618 742 618 742 616 c 0,29,30
 742 608 742 608 560 528 c 1,31,32
 565 523 565 523 591 497.5 c 128,-1,33
 617 472 617 472 630 457 c 0,34,35
 644 442 644 442 662 417 c 0,36,37
 698 368 698 368 698 316 c 0,38,39
 698 246 698 246 639 167 c 128,-1,40
 580 88 580 88 479 32 c 128,-1,41
 378 -24 378 -24 276.5 -24 c 128,-1,42
 175 -24 175 -24 115.5 20 c 128,-1,43
 56 64 56 64 56 132 c 0,44,45
 56 196 56 196 98 259 c 0,46,47
 126 301 126 301 206 359 c 0,48,49
 252 393 252 393 308 421 c 128,-1,50
 364 449 364 449 410 471 c 128,-1,51
 456 493 456 493 470 500 c 1,52,53
 468 503 468 503 458.5 514 c 128,-1,54
 449 525 449 525 445 531 c 128,-1,55
 441 537 441 537 433.5 549 c 128,-1,56
 426 561 426 561 422 571 c 0,57,58
 412 596 412 596 412 624 c 0,59,60
 412 674 412 674 450 723.5 c 128,-1,61
 488 773 488 773 542.5 808 c 128,-1,62
 597 843 597 843 655 864.5 c 128,-1,63
 713 886 713 886 761 886 c 128,-1,64
 809 886 809 886 842.5 863 c 128,-1,65
 876 840 876 840 876 802 c 0,66,67
 876 738 876 738 808 682 c 128,-1,68
 740 626 740 626 680 626 c 0,69,70
 666 626 666 626 666 636 c 0,71,72
 666 644 666 644 678 644 c 1,13,-1
EndSplineSet
Substitution2: "'onum' Oldstyle Figures lookup 3 subtable" uniE008
Substitution2: "'subs' Subscript lookup 0 subtable" uni2088
EndChar

StartChar: nine
Encoding: 57 57 28
Width: 634
GlyphClass: 2
Flags: W
LayerCount: 2
Fore
SplineSet
254 266 m 2,0,-1
 236 268 l 1,1,2
 204 268 204 268 179 224.5 c 128,-1,3
 154 181 154 181 154 128.5 c 128,-1,4
 154 76 154 76 192 42 c 128,-1,5
 230 8 230 8 294 8 c 0,6,7
 331 8 331 8 363.5 20 c 128,-1,8
 396 32 396 32 429 67 c 128,-1,9
 462 102 462 102 485 130 c 256,10,11
 508 158 508 158 544 228 c 1,12,13
 587 309 587 309 632.5 405.5 c 128,-1,14
 678 502 678 502 684 514 c 1,15,16
 596 470 596 470 516.5 470 c 128,-1,17
 437 470 437 470 388.5 500 c 128,-1,18
 340 530 340 530 340 596 c 0,19,20
 340 643 340 643 369.5 694 c 128,-1,21
 399 745 399 745 448 787.5 c 128,-1,22
 497 830 497 830 569 858 c 128,-1,23
 641 886 641 886 718 886 c 0,24,25
 768 886 768 886 810 855 c 128,-1,26
 852 824 852 824 852 764 c 0,27,28
 852 698 852 698 776 556 c 0,29,30
 755 516 755 516 723 454 c 128,-1,31
 691 392 691 392 636.5 299.5 c 128,-1,32
 582 207 582 207 535.5 149 c 128,-1,33
 489 91 489 91 452 55 c 128,-1,34
 415 19 415 19 376.5 2.5 c 128,-1,35
 338 -14 338 -14 311 -19 c 128,-1,36
 284 -24 284 -24 246 -24 c 0,37,38
 172 -24 172 -24 123 16.5 c 128,-1,39
 74 57 74 57 74 120 c 0,40,41
 74 243 74 243 170 258 c 0,42,43
 187 261 187 261 212.5 270.5 c 128,-1,44
 238 280 238 280 249 280 c 128,-1,45
 260 280 260 280 260 273 c 128,-1,46
 260 266 260 266 254 266 c 2,0,-1
644 852 m 0,47,48
 557 852 557 852 485.5 782 c 128,-1,49
 414 712 414 712 414 620 c 0,50,51
 414 562 414 562 454.5 532 c 128,-1,52
 495 502 495 502 542 502 c 0,53,54
 642 502 642 502 698 550 c 1,55,56
 738 641 738 641 749 681 c 128,-1,57
 760 721 760 721 760 751.5 c 128,-1,58
 760 782 760 782 728.5 817 c 128,-1,59
 697 852 697 852 644 852 c 0,47,48
EndSplineSet
Substitution2: "'onum' Oldstyle Figures lookup 3 subtable" uniE009
Substitution2: "'subs' Subscript lookup 0 subtable" uni2089
EndChar

StartChar: colon
Encoding: 58 58 29
Width: 404
GlyphClass: 2
Flags: W
LayerCount: 2
Fore
SplineSet
112 28 m 0,0,1
 112 61 112 61 139 90.5 c 128,-1,2
 166 120 166 120 200 120 c 128,-1,3
 234 120 234 120 234 84 c 0,4,5
 234 54 234 54 204.5 23 c 128,-1,6
 175 -8 175 -8 152 -8 c 0,7,8
 112 -8 112 -8 112 28 c 0,0,1
286 360 m 0,9,10
 286 393 286 393 313 422.5 c 128,-1,11
 340 452 340 452 374 452 c 128,-1,12
 408 452 408 452 408 416 c 0,13,14
 408 386 408 386 378.5 355 c 128,-1,15
 349 324 349 324 326 324 c 0,16,17
 286 324 286 324 286 360 c 0,9,10
EndSplineSet
EndChar

StartChar: semicolon
Encoding: 59 59 30
Width: 454
GlyphClass: 2
Flags: W
LayerCount: 2
Fore
SplineSet
160 84 m 0,0,1
 200 84 200 84 200 -4 c 1,2,3
 199 -48 199 -48 166.5 -98.5 c 128,-1,4
 134 -149 134 -149 93 -184.5 c 128,-1,5
 52 -220 52 -220 18.5 -244 c 128,-1,6
 -15 -268 -15 -268 -21.5 -268 c 128,-1,7
 -28 -268 -28 -268 -28 -266 c 2,8,-1
 -28 -262 l 2,9,10
 -28 -261 -28 -261 -25 -258 c 128,-1,11
 -22 -255 -22 -255 -20 -254 c 128,-1,12
 -18 -253 -18 -253 -15 -250.5 c 128,-1,13
 -12 -248 -12 -248 -8.5 -245.5 c 128,-1,14
 -5 -243 -5 -243 0 -239.5 c 128,-1,15
 5 -236 5 -236 10 -232 c 0,16,17
 126 -145 126 -145 126 -56 c 0,18,19
 126 -24 126 -24 115 11.5 c 128,-1,20
 104 47 104 47 104 50 c 0,21,22
 104 60 104 60 127.5 72 c 128,-1,23
 151 84 151 84 160 84 c 0,0,1
208 312 m 0,24,25
 208 345 208 345 235 374.5 c 128,-1,26
 262 404 262 404 296 404 c 128,-1,27
 330 404 330 404 330 368 c 0,28,29
 330 338 330 338 300.5 307 c 128,-1,30
 271 276 271 276 248 276 c 0,31,32
 208 276 208 276 208 312 c 0,24,25
EndSplineSet
EndChar

StartChar: less
Encoding: 60 60 31
Width: 490
GlyphClass: 2
Flags: W
LayerCount: 2
Fore
SplineSet
552.5 601.5 m 128,-1,1
 547 596 547 596 410.5 488 c 128,-1,2
 274 380 274 380 255 362 c 128,-1,3
 236 344 236 344 236 330 c 128,-1,4
 236 316 236 316 303 209 c 128,-1,5
 370 102 370 102 370 96 c 128,-1,6
 370 90 370 90 365 87.5 c 128,-1,7
 360 85 360 85 352 82.5 c 128,-1,8
 344 80 344 80 330 73 c 128,-1,9
 316 66 316 66 309 66 c 128,-1,10
 302 66 302 66 239 173.5 c 128,-1,11
 176 281 176 281 176 304.5 c 128,-1,12
 176 328 176 328 206 352 c 1,13,14
 257 386 257 386 402 502 c 128,-1,15
 547 618 547 618 552.5 618 c 128,-1,16
 558 618 558 618 558 612.5 c 128,-1,0
 558 607 558 607 552.5 601.5 c 128,-1,1
EndSplineSet
EndChar

StartChar: equal
Encoding: 61 61 32
Width: 806
GlyphClass: 2
Flags: W
LayerCount: 2
Fore
SplineSet
270 452 m 2,0,-1
 632 444 l 1,1,-1
 812 448 l 2,2,3
 816 448 816 448 816 446 c 128,-1,4
 816 444 816 444 815 442 c 128,-1,5
 814 440 814 440 811 435 c 128,-1,6
 808 430 808 430 806 424 c 0,7,8
 804 420 804 420 802 412 c 0,9,10
 798 398 798 398 794 398 c 2,11,-1
 418 406 l 1,12,-1
 242 402 l 2,13,14
 238 402 238 402 238 404 c 128,-1,15
 238 406 238 406 240.5 409 c 128,-1,16
 243 412 243 412 247.5 417 c 128,-1,17
 252 422 252 422 254 426 c 0,18,19
 257 430 257 430 260 438 c 0,20,21
 265 452 265 452 270 452 c 2,0,-1
216 334 m 2,22,-1
 578 326 l 1,23,-1
 758 330 l 2,24,25
 762 330 762 330 762 328 c 128,-1,26
 762 326 762 326 761 324 c 128,-1,27
 760 322 760 322 757 317 c 128,-1,28
 754 312 754 312 752 306 c 0,29,30
 750 302 750 302 748 294 c 0,31,32
 744 280 744 280 740 280 c 2,33,-1
 364 288 l 1,34,-1
 188 284 l 2,35,36
 184 284 184 284 184 286 c 128,-1,37
 184 288 184 288 186.5 291 c 128,-1,38
 189 294 189 294 193.5 299 c 128,-1,39
 198 304 198 304 200 308 c 0,40,41
 203 312 203 312 206 320 c 0,42,43
 211 334 211 334 216 334 c 2,22,-1
EndSplineSet
EndChar

StartChar: greater
Encoding: 62 62 33
Width: 490
GlyphClass: 2
Flags: W
LayerCount: 2
Fore
SplineSet
109.5 82.5 m 128,-1,1
 115 88 115 88 251.5 196 c 128,-1,2
 388 304 388 304 407 322 c 128,-1,3
 426 340 426 340 426 354 c 128,-1,4
 426 368 426 368 359 475 c 128,-1,5
 292 582 292 582 292 588 c 128,-1,6
 292 594 292 594 297 596.5 c 128,-1,7
 302 599 302 599 310 601.5 c 128,-1,8
 318 604 318 604 332 611 c 128,-1,9
 346 618 346 618 353 618 c 128,-1,10
 360 618 360 618 423 510.5 c 128,-1,11
 486 403 486 403 486 379.5 c 128,-1,12
 486 356 486 356 456 332 c 1,13,14
 405 298 405 298 260 182 c 128,-1,15
 115 66 115 66 109.5 66 c 128,-1,16
 104 66 104 66 104 71.5 c 128,-1,0
 104 77 104 77 109.5 82.5 c 128,-1,1
EndSplineSet
EndChar

StartChar: question
Encoding: 63 63 34
Width: 518
GlyphClass: 2
Flags: W
LayerCount: 2
Fore
SplineSet
124 28 m 0,0,1
 124 61 124 61 151 90.5 c 128,-1,2
 178 120 178 120 212 120 c 128,-1,3
 246 120 246 120 246 84 c 0,4,5
 246 54 246 54 216.5 23 c 128,-1,6
 187 -8 187 -8 164 -8 c 0,7,8
 124 -8 124 -8 124 28 c 0,0,1
622 808 m 128,-1,10
 588 838 588 838 544 838 c 128,-1,11
 500 838 500 838 458 817 c 128,-1,12
 416 796 416 796 389 775 c 1,13,14
 360 754 360 754 354 754 c 128,-1,15
 348 754 348 754 348 758 c 128,-1,16
 348 762 348 762 354 768 c 0,17,18
 418 822 418 822 478 854 c 128,-1,19
 538 886 538 886 602 886 c 128,-1,20
 666 886 666 886 700 854 c 128,-1,21
 734 822 734 822 734 766 c 0,22,23
 734 694 734 694 648 635 c 0,24,25
 612 610 612 610 562 585 c 0,26,27
 409 508 409 508 364 463 c 1,28,29
 318 419 318 419 318 374 c 0,30,31
 318 342 318 342 374 274 c 0,32,33
 392 252 392 252 392 248 c 128,-1,34
 392 244 392 244 385 240 c 128,-1,35
 378 236 378 236 364 232 c 2,36,-1
 346 228 l 1,37,38
 322 220 322 220 312 220 c 128,-1,39
 302 220 302 220 274 267 c 1,40,41
 248 313 248 313 248 344 c 0,42,43
 248 376 248 376 270 409 c 1,44,45
 290 442 290 442 330 472 c 0,46,47
 412 534 412 534 524 588 c 1,48,49
 624 638 624 638 646 684 c 0,50,51
 656 706 656 706 656 734 c 0,52,9
 656 778 656 778 622 808 c 128,-1,10
EndSplineSet
EndChar

StartChar: at
Encoding: 64 64 35
Width: 926
GlyphClass: 2
Flags: W
LayerCount: 2
Fore
SplineSet
600 288 m 1,0,1
 635 403 635 403 726 510 c 1,2,3
 710 558 710 558 656 558 c 0,4,5
 584 558 584 558 514 468.5 c 128,-1,6
 444 379 444 379 444 300 c 0,7,8
 444 278 444 278 454.5 258 c 128,-1,9
 465 238 465 238 486 238 c 0,10,11
 523 238 523 238 600 288 c 1,0,1
712 230 m 0,12,13
 759 230 759 230 800 252 c 128,-1,14
 841 274 841 274 869 308.5 c 128,-1,15
 897 343 897 343 917 384 c 0,16,17
 956 464 956 464 956 530 c 0,18,19
 956 632 956 632 874.5 693 c 128,-1,20
 793 754 793 754 687 754 c 128,-1,21
 581 754 581 754 487.5 712 c 128,-1,22
 394 670 394 670 335.5 600.5 c 128,-1,23
 277 531 277 531 245.5 446 c 128,-1,24
 214 361 214 361 214 272 c 0,25,26
 214 159 214 159 289 84.5 c 128,-1,27
 364 10 364 10 464 10 c 0,28,29
 711 10 711 10 852 140 c 0,30,31
 863 149 863 149 881 158.5 c 128,-1,32
 899 168 899 168 905.5 168 c 128,-1,33
 912 168 912 168 912 166 c 1,34,35
 890 141 890 141 837.5 102.5 c 128,-1,36
 785 64 785 64 733.5 38 c 128,-1,37
 682 12 682 12 599.5 -9 c 128,-1,38
 517 -30 517 -30 430 -30 c 0,39,40
 314 -30 314 -30 231 48.5 c 128,-1,41
 148 127 148 127 148 230.5 c 128,-1,42
 148 334 148 334 183.5 423 c 128,-1,43
 219 512 219 512 279.5 578 c 128,-1,44
 340 644 340 644 418 694 c 0,45,46
 575 794 575 794 752 794 c 0,47,48
 816 794 816 794 876 769 c 128,-1,49
 936 744 936 744 979 690 c 128,-1,50
 1022 636 1022 636 1022 557.5 c 128,-1,51
 1022 479 1022 479 972 391.5 c 128,-1,52
 922 304 922 304 838 247 c 128,-1,53
 754 190 754 190 664 190 c 0,54,55
 633 190 633 190 612.5 207 c 128,-1,56
 592 224 592 224 592 250 c 0,57,58
 592 252 592 252 593 257 c 128,-1,59
 594 262 594 262 594 264 c 1,60,61
 513 208 513 208 450 208 c 0,62,63
 416 208 416 208 393 232 c 128,-1,64
 370 256 370 256 370 292 c 0,65,66
 370 390 370 390 460 478 c 128,-1,67
 550 566 550 566 638.5 566 c 128,-1,68
 727 566 727 566 742 524 c 1,69,70
 756 538 756 538 774 544 c 1,71,72
 794 554 794 554 814 554 c 0,73,74
 820 554 820 554 820 550 c 128,-1,75
 820 546 820 546 806 532 c 0,76,77
 760 486 760 486 713 407 c 128,-1,78
 666 328 666 328 666 270 c 0,79,80
 666 253 666 253 679.5 241.5 c 128,-1,81
 693 230 693 230 712 230 c 0,12,13
EndSplineSet
EndChar

StartChar: A
Encoding: 65 65 36
Width: 980
GlyphClass: 2
Flags: W
AnchorPoint: "Anchor-5" 940 1000 basechar 0
AnchorPoint: "Anchor-4" 790 0 basechar 0
AnchorPoint: "Anchor-3" 356 -100 basechar 0
LayerCount: 2
Fore
SplineSet
404 342 m 1,0,-1
 438 342 l 2,1,2
 478 342 478 342 555 330 c 128,-1,3
 632 318 632 318 661 318 c 128,-1,4
 690 318 690 318 706 320 c 1,5,6
 720 434 720 434 743 536 c 128,-1,7
 766 638 766 638 778 689 c 128,-1,8
 790 740 790 740 798 770.5 c 128,-1,9
 806 801 806 801 806 804.5 c 128,-1,10
 806 808 806 808 804 808 c 0,11,12
 796 808 796 808 776 780 c 1,13,-1
 404 342 l 1,0,-1
372 306 m 1,14,15
 180 87 180 87 102 22 c 1,16,17
 73 0 73 0 16 -6 c 0,18,19
 13 -6 13 -6 -6.5 -10 c 128,-1,20
 -26 -14 -26 -14 -38 -14 c 128,-1,21
 -50 -14 -50 -14 -50 -6 c 0,22,23
 -50 4 -50 4 -34 8 c 1,24,25
 4 21 4 21 30 44 c 0,26,27
 181 176 181 176 345 341.5 c 128,-1,28
 509 507 509 507 746 784 c 0,29,30
 762 802 762 802 772.5 814.5 c 128,-1,31
 783 827 783 827 794 837 c 128,-1,32
 805 847 805 847 810 851.5 c 128,-1,33
 815 856 815 856 825.5 862 c 128,-1,34
 836 868 836 868 839 870 c 0,35,36
 852 876 852 876 865.5 880.5 c 128,-1,37
 879 885 879 885 896.5 893.5 c 128,-1,38
 914 902 914 902 921 902 c 128,-1,39
 928 902 928 902 928 894 c 2,40,-1
 928 892 l 2,41,42
 928 881 928 881 917 856.5 c 128,-1,43
 906 832 906 832 906 830 c 0,44,45
 878 754 878 754 843.5 608 c 128,-1,46
 809 462 809 462 792 332 c 1,47,48
 860 349 860 349 916 394 c 0,49,50
 934 408 934 408 938 408 c 128,-1,51
 942 408 942 408 942 402.5 c 128,-1,52
 942 397 942 397 920 379.5 c 128,-1,53
 898 362 898 362 860.5 342 c 128,-1,54
 823 322 823 322 790 314 c 1,55,56
 780 227 780 227 780 178 c 0,57,58
 780 26 780 26 844 26 c 0,59,60
 881 26 881 26 939.5 61.5 c 128,-1,61
 998 97 998 97 1057.5 149 c 128,-1,62
 1117 201 1117 201 1148 248 c 0,63,64
 1152 254 1152 254 1156 254 c 128,-1,65
 1160 254 1160 254 1160 251 c 128,-1,66
 1160 248 1160 248 1158 244 c 0,67,68
 1104 172 1104 172 1050.5 125 c 128,-1,69
 997 78 997 78 923.5 35 c 128,-1,70
 850 -8 850 -8 789 -8 c 128,-1,71
 728 -8 728 -8 710 29.5 c 128,-1,72
 692 67 692 67 692 146.5 c 128,-1,73
 692 226 692 226 702 296 c 1,74,75
 612 286 612 286 576.5 286 c 128,-1,76
 541 286 541 286 475 297 c 128,-1,77
 409 308 409 308 393.5 308 c 128,-1,78
 378 308 378 308 372 306 c 1,14,15
EndSplineSet
EndChar

StartChar: B
Encoding: 66 66 37
Width: 900
GlyphClass: 2
Flags: W
AnchorPoint: "Anchor-5" 868 1000 basechar 0
AnchorPoint: "Anchor-3" 396 -100 basechar 0
LayerCount: 2
Fore
SplineSet
342 158 m 1,0,-1
 336 146 l 1,1,2
 336 90 336 90 385 45 c 128,-1,3
 434 0 434 0 502 0 c 0,4,5
 545 0 545 0 597.5 26.5 c 128,-1,6
 650 53 650 53 698 99 c 128,-1,7
 746 145 746 145 778 217 c 128,-1,8
 810 289 810 289 810 370 c 1,9,10
 808 416 808 416 781.5 446 c 128,-1,11
 755 476 755 476 709.5 476 c 128,-1,12
 664 476 664 476 624 459 c 128,-1,13
 584 442 584 442 576.5 442 c 128,-1,14
 569 442 569 442 564.5 449.5 c 128,-1,15
 560 457 560 457 556 460.5 c 128,-1,16
 552 464 552 464 552 469 c 128,-1,17
 552 474 552 474 563.5 477 c 128,-1,18
 575 480 575 480 592.5 482 c 128,-1,19
 610 484 610 484 616 486 c 0,20,21
 693 512 693 512 763.5 596 c 128,-1,22
 834 680 834 680 834 762 c 0,23,24
 834 799 834 799 807 820.5 c 128,-1,25
 780 842 780 842 741.5 842 c 128,-1,26
 703 842 703 842 662 816 c 1,27,28
 621 788 621 788 566 726 c 0,29,30
 453 598 453 598 284 258 c 0,31,32
 182 51 182 51 126 -110 c 0,33,34
 122 -121 122 -121 104.5 -125.5 c 128,-1,35
 87 -130 87 -130 66 -138 c 128,-1,36
 45 -146 45 -146 44 -146 c 0,37,38
 36 -146 36 -146 36 -137.5 c 128,-1,39
 36 -129 36 -129 122.5 37.5 c 128,-1,40
 209 204 209 204 238 260 c 0,41,42
 394 563 394 563 535.5 724.5 c 128,-1,43
 677 886 677 886 812 886 c 0,44,45
 858 886 858 886 892 864.5 c 128,-1,46
 926 843 926 843 926 796 c 0,47,48
 926 697 926 697 839.5 606 c 128,-1,49
 753 515 753 515 660 486 c 1,50,51
 720 492 720 492 736 492 c 0,52,53
 808 492 808 492 854 457 c 128,-1,54
 900 422 900 422 900 340 c 0,55,56
 900 220 900 220 742 86 c 0,57,58
 612 -24 612 -24 448 -24 c 0,59,60
 373 -24 373 -24 319.5 22 c 128,-1,61
 266 68 266 68 266 124 c 0,62,63
 266 129 266 129 283.5 134.5 c 128,-1,64
 301 140 301 140 309 144.5 c 128,-1,65
 317 149 317 149 324 153.5 c 128,-1,66
 331 158 331 158 333.5 160 c 128,-1,67
 336 162 336 162 339 162 c 128,-1,68
 342 162 342 162 342 158 c 1,0,-1
EndSplineSet
EndChar

StartChar: C
Encoding: 67 67 38
Width: 860
GlyphClass: 2
Flags: W
AnchorPoint: "Anchor-5" 850 1000 basechar 0
AnchorPoint: "Anchor-4" 414 0 basechar 0
LayerCount: 2
Fore
SplineSet
971.5 777 m 128,-1,1
 951 756 951 756 945 746 c 128,-1,2
 939 736 939 736 933.5 736 c 128,-1,3
 928 736 928 736 928 744 c 0,4,5
 928 778 928 778 882 810 c 128,-1,6
 836 842 836 842 784 842 c 0,7,8
 684 842 684 842 592 788 c 1,9,10
 451 696 451 696 353.5 545.5 c 128,-1,11
 256 395 256 395 256 228 c 0,12,13
 256 136 256 136 313 72 c 128,-1,14
 370 8 370 8 456 8 c 0,15,16
 600 8 600 8 680.5 66.5 c 128,-1,17
 761 125 761 125 790 216 c 0,18,19
 797 240 797 240 802 240 c 0,20,21
 812 240 812 240 823 222.5 c 128,-1,22
 834 205 834 205 834 193 c 128,-1,23
 834 181 834 181 818 156 c 128,-1,24
 802 131 802 131 767 100 c 128,-1,25
 732 69 732 69 685.5 41.5 c 128,-1,26
 639 14 639 14 569 -5 c 128,-1,27
 499 -24 499 -24 422 -24 c 0,28,29
 309 -24 309 -24 234.5 49.5 c 128,-1,30
 160 123 160 123 160 234 c 0,31,32
 160 390 160 390 281.5 550.5 c 128,-1,33
 403 711 403 711 578 810 c 1,34,35
 710 886 710 886 848 886 c 0,36,37
 927 886 927 886 971 840 c 0,38,39
 992 818 992 818 992 808 c 128,-1,0
 992 798 992 798 971.5 777 c 128,-1,1
EndSplineSet
EndChar

StartChar: D
Encoding: 68 68 39
Width: 1194
GlyphClass: 2
Flags: W
AnchorPoint: "Anchor-5" 916 1060 basechar 0
AnchorPoint: "Anchor-4" 716 0 basechar 0
AnchorPoint: "Anchor-3" 456 -100 basechar 0
LayerCount: 2
Fore
SplineSet
480 186 m 1,0,1
 427 260 427 260 404 278 c 128,-1,2
 381 296 381 296 360 296 c 0,3,4
 301 296 301 296 243.5 222.5 c 128,-1,5
 186 149 186 149 186 90 c 0,6,7
 186 26 186 26 266 26 c 0,8,9
 308 26 308 26 366.5 65.5 c 128,-1,10
 425 105 425 105 480 186 c 1,0,1
558 240 m 1,11,12
 568 222 568 222 586 183 c 128,-1,13
 604 144 604 144 618 118.5 c 128,-1,14
 632 93 632 93 654 64 c 0,15,16
 699 6 699 6 781.5 6 c 128,-1,17
 864 6 864 6 939 53 c 128,-1,18
 1014 100 1014 100 1063.5 174.5 c 128,-1,19
 1113 249 1113 249 1141.5 339 c 128,-1,20
 1170 429 1170 429 1170 516 c 0,21,22
 1170 800 1170 800 904 854 c 1,23,24
 821 689 821 689 719.5 506.5 c 128,-1,25
 618 324 618 324 558 240 c 1,11,12
392 614 m 0,26,27
 392 602 392 602 398 586 c 1,28,29
 398 582 398 582 391 582 c 128,-1,30
 384 582 384 582 372 594 c 128,-1,31
 360 606 360 606 352 612 c 0,32,33
 336 624 336 624 336 636 c 0,34,35
 336 705 336 705 404.5 764 c 128,-1,36
 473 823 473 823 571 854.5 c 128,-1,37
 669 886 669 886 766 886 c 0,38,39
 810 886 810 886 830 884 c 1,40,41
 840 907 840 907 840 928 c 0,42,43
 840 970 840 970 816.5 988 c 128,-1,44
 793 1006 793 1006 751.5 1006 c 128,-1,45
 710 1006 710 1006 678.5 993 c 128,-1,46
 647 980 647 980 627.5 967 c 128,-1,47
 608 954 608 954 606 954 c 0,48,49
 600 954 600 954 600 960 c 0,50,51
 600 964 600 964 622 980 c 128,-1,52
 644 996 644 996 687 1013 c 128,-1,53
 730 1030 730 1030 768.5 1030 c 128,-1,54
 807 1030 807 1030 837 1022.5 c 128,-1,55
 867 1015 867 1015 893.5 990.5 c 128,-1,56
 920 966 920 966 920 926 c 0,57,58
 920 904 920 904 910 874 c 1,59,60
 1256 817 1256 817 1256 468 c 0,61,62
 1256 374 1256 374 1218 284 c 128,-1,63
 1180 194 1180 194 1116 127.5 c 128,-1,64
 1052 61 1052 61 963.5 20.5 c 128,-1,65
 875 -20 875 -20 780 -20 c 0,66,67
 710 -20 710 -20 648 8 c 0,68,69
 626 18 626 18 598.5 44.5 c 128,-1,70
 571 71 571 71 556.5 88 c 128,-1,71
 542 105 542 105 522.5 130.5 c 128,-1,72
 503 156 503 156 498 162 c 1,73,74
 445 102 445 102 403 66.5 c 128,-1,75
 361 31 361 31 310.5 7.5 c 128,-1,76
 260 -16 260 -16 223 -16 c 128,-1,77
 186 -16 186 -16 158 2 c 128,-1,78
 130 20 130 20 130 58 c 128,-1,79
 130 96 130 96 161 148.5 c 128,-1,80
 192 201 192 201 236 245.5 c 128,-1,81
 280 290 280 290 333.5 321 c 128,-1,82
 387 352 387 352 428 352 c 0,83,84
 480 352 480 352 534 276 c 1,85,86
 624 435 624 435 703 599.5 c 128,-1,87
 782 764 782 764 822 866 c 1,88,89
 802 868 802 868 760 868 c 0,90,91
 678 868 678 868 592 831.5 c 128,-1,92
 506 795 506 795 449 735 c 128,-1,93
 392 675 392 675 392 614 c 0,26,27
EndSplineSet
EndChar

StartChar: E
Encoding: 69 69 40
Width: 834
GlyphClass: 2
Flags: W
AnchorPoint: "Anchor-5" 844 1000 basechar 0
AnchorPoint: "Anchor-4" 432 0 basechar 0
AnchorPoint: "Anchor-3" 356 -100 basechar 0
LayerCount: 2
Fore
SplineSet
778 250 m 1,0,-1
 774 276 l 2,1,2
 774 282 774 282 778 282 c 1,3,-1
 802 266 l 2,4,5
 804 265 804 265 806.5 262.5 c 128,-1,6
 809 260 809 260 810.5 259 c 128,-1,7
 812 258 812 258 814 256 c 0,8,9
 815 256 815 256 816 254 c 0,10,11
 818 251 818 251 818 244 c 0,12,13
 818 214 818 214 791.5 170.5 c 128,-1,14
 765 127 765 127 718.5 82.5 c 128,-1,15
 672 38 672 38 595 7 c 128,-1,16
 518 -24 518 -24 424 -24 c 128,-1,17
 330 -24 330 -24 244 36 c 128,-1,18
 158 96 158 96 158 190 c 0,19,20
 158 258 158 258 187.5 316 c 128,-1,21
 217 374 217 374 261 409.5 c 128,-1,22
 305 445 305 445 357 473.5 c 128,-1,23
 409 502 409 502 453 516 c 0,24,25
 556 550 556 550 556 554 c 0,26,27
 556 562 556 562 544 570 c 0,28,29
 484 611 484 611 484 682.5 c 128,-1,30
 484 754 484 754 564.5 820 c 128,-1,31
 645 886 645 886 782 886 c 0,32,33
 831 886 831 886 886 874 c 0,34,35
 994 849 994 849 994 806 c 0,36,37
 994 794 994 794 983 776.5 c 128,-1,38
 972 759 972 759 965 744.5 c 128,-1,39
 958 730 958 730 954 730 c 128,-1,40
 950 730 950 730 946 742 c 0,41,42
 934 783 934 783 884.5 822.5 c 128,-1,43
 835 862 835 862 765.5 862 c 128,-1,44
 696 862 696 862 652 848 c 1,45,46
 607 836 607 836 587 814 c 0,47,48
 552 776 552 776 552 737.5 c 128,-1,49
 552 699 552 699 573.5 659 c 128,-1,50
 595 619 595 619 628 600 c 1,51,52
 668 581 668 581 668 576 c 0,53,54
 668 559 668 559 660 549 c 128,-1,55
 652 539 652 539 626 536 c 0,56,57
 538 526 538 526 471 500 c 128,-1,58
 404 474 404 474 364.5 441.5 c 128,-1,59
 325 409 325 409 300 367 c 0,60,61
 258 296 258 296 258 204 c 0,62,63
 258 154 258 154 279 116 c 128,-1,64
 300 78 300 78 334 58 c 1,65,66
 428 21 428 21 474 18 c 1,67,68
 613 18 613 18 695.5 89 c 128,-1,69
 778 160 778 160 778 250 c 1,0,-1
EndSplineSet
EndChar

StartChar: F
Encoding: 70 70 41
Width: 768
GlyphClass: 2
Flags: W
AnchorPoint: "Anchor-5" 748 1060 basechar 0
LayerCount: 2
Fore
SplineSet
726 830 m 1,0,1
 678 699 678 699 542 444 c 1,2,3
 542 444 542 444 732 452 c 0,4,5
 736 452 736 452 736 450 c 0,6,7
 736 445 736 445 720 432 c 1,8,9
 703 420 703 420 696 416 c 0,10,11
 673 404 673 404 520 404 c 1,12,13
 447 268 447 268 377 147.5 c 128,-1,14
 307 27 307 27 286 -2 c 1,15,16
 270 -22 270 -22 254 -22 c 1,17,18
 206 -28 206 -28 156 -28 c 2,19,-1
 148 -28 l 2,20,21
 142 -28 142 -28 142 -22 c 0,22,23
 142 -20 142 -20 149 -18 c 0,24,25
 176 -8 176 -8 192 16 c 1,26,27
 305 173 305 173 434 402 c 1,28,29
 304 402 304 402 259 382 c 0,30,31
 250 378 250 378 247 378 c 128,-1,32
 244 378 244 378 244 380 c 0,33,34
 244 396 244 396 314 426 c 0,35,36
 324 430 324 430 361.5 436 c 128,-1,37
 399 442 399 442 456 442 c 1,38,39
 593 695 593 695 640 828 c 1,40,41
 612 828 612 828 545.5 824.5 c 128,-1,42
 479 821 479 821 428.5 813 c 128,-1,43
 378 805 378 805 354.5 796.5 c 128,-1,44
 331 788 331 788 317.5 780 c 128,-1,45
 304 772 304 772 299 767 c 128,-1,46
 294 762 294 762 292 762 c 0,47,48
 286 762 286 762 286 768 c 128,-1,49
 286 774 286 774 308 796 c 0,50,51
 350 838 350 838 426 852.5 c 128,-1,52
 502 867 502 867 654 870 c 1,53,54
 668 915 668 915 668 948 c 0,55,56
 668 1066 668 1066 570 1066 c 0,57,58
 542 1066 542 1066 525.5 1060 c 128,-1,59
 509 1054 509 1054 501 1051 c 128,-1,60
 493 1048 493 1048 484.5 1041.5 c 128,-1,61
 476 1035 476 1035 472 1032 c 0,62,63
 470 1030 470 1030 462 1023 c 2,64,-1
 454 1016 l 1,65,66
 440 1002 440 1002 438 1002 c 0,67,68
 432 1002 432 1002 432 1006 c 128,-1,69
 432 1010 432 1010 448 1026 c 0,70,71
 512 1086 512 1086 586 1086 c 0,72,73
 752 1086 752 1086 752 938 c 0,74,75
 752 904 752 904 742 872 c 1,76,77
 917 875 917 875 1076 894 c 0,78,79
 1104 898 1104 898 1122 898 c 2,80,-1
 1130 898 l 2,81,82
 1142 898 1142 898 1142 894.5 c 128,-1,83
 1142 891 1142 891 1136 888 c 0,84,85
 1087 855 1087 855 991 844.5 c 128,-1,86
 895 834 895 834 726 830 c 1,0,1
EndSplineSet
EndChar

StartChar: G
Encoding: 71 71 42
Width: 1110
GlyphClass: 2
Flags: W
AnchorPoint: "Anchor-5" 1030 1000 basechar 0
AnchorPoint: "Anchor-3" 120 -940 basechar 0
LayerCount: 2
Fore
SplineSet
734 -88 m 1,0,1
 487 -131 487 -131 386.5 -171 c 128,-1,2
 286 -211 286 -211 216 -283 c 128,-1,3
 146 -355 146 -355 118 -432.5 c 128,-1,4
 90 -510 90 -510 90 -596 c 0,5,6
 90 -790 90 -790 224 -790 c 0,7,8
 373 -790 373 -790 470 -620 c 1,9,10
 581 -429 581 -429 734 -88 c 1,0,1
1044 724 m 2,11,-1
 1046 758 l 1,12,13
 1046 798 1046 798 1017 832 c 128,-1,14
 988 866 988 866 936 866 c 0,15,16
 849 866 849 866 712 787.5 c 128,-1,17
 575 709 575 709 468 602 c 1,18,19
 381 517 381 517 316 393 c 128,-1,20
 251 269 251 269 250 170 c 0,21,22
 250 93 250 93 287.5 47.5 c 128,-1,23
 325 2 325 2 392 2 c 0,24,25
 458 2 458 2 564 56 c 0,26,27
 738 146 738 146 904 300 c 1,28,29
 939 335 939 335 1018.5 473 c 128,-1,30
 1098 611 1098 611 1154 736 c 1,31,32
 1168 770 1168 770 1178.5 770 c 128,-1,33
 1189 770 1189 770 1220.5 752 c 128,-1,34
 1252 734 1252 734 1252 718 c 0,35,36
 1252 685 1252 685 1215 618 c 128,-1,37
 1178 551 1178 551 1128 494 c 0,38,39
 1087 446 1087 446 1063 401.5 c 128,-1,40
 1039 357 1039 357 1015.5 311 c 128,-1,41
 992 265 992 265 986 254 c 2,42,-1
 828 -50 l 1,43,44
 1020 5 1020 5 1180 142 c 1,45,46
 1247 201 1247 201 1278 248 c 0,47,48
 1282 254 1282 254 1286 254 c 128,-1,49
 1290 254 1290 254 1290 251 c 128,-1,50
 1290 248 1290 248 1288 244 c 0,51,52
 1234 172 1234 172 1180.5 125 c 128,-1,53
 1127 78 1127 78 1056 36 c 0,54,55
 928 -38 928 -38 816 -70 c 1,56,57
 803 -96 803 -96 735 -240.5 c 128,-1,58
 667 -385 667 -385 612 -480 c 1,59,60
 528 -614 528 -614 495 -650.5 c 128,-1,61
 462 -687 462 -687 430 -717 c 128,-1,62
 398 -747 398 -747 368 -765 c 0,63,64
 295 -808 295 -808 222 -808 c 0,65,66
 128 -808 128 -808 71 -740 c 128,-1,67
 14 -672 14 -672 14 -568 c 1,68,69
 15 -491 15 -491 51 -420 c 0,70,71
 86 -349 86 -349 146 -296 c 0,72,73
 267 -188 267 -188 414 -140 c 0,74,75
 504 -110 504 -110 742 -68 c 1,76,77
 810 74 810 74 912 262 c 1,78,79
 841 203 841 203 761 146 c 128,-1,80
 681 89 681 89 568.5 33.5 c 128,-1,81
 456 -22 456 -22 375 -22 c 128,-1,82
 294 -22 294 -22 229 30.5 c 128,-1,83
 164 83 164 83 164 180 c 0,84,85
 164 256 164 256 198 343 c 0,86,87
 294 587 294 587 595 769 c 0,88,89
 786 884 786 884 960 884 c 0,90,91
 999 884 999 884 1050.5 865.5 c 128,-1,92
 1102 847 1102 847 1102 814 c 0,93,94
 1102 807 1102 807 1092 791 c 128,-1,95
 1082 775 1082 775 1078 766.5 c 128,-1,96
 1074 758 1074 758 1070 744 c 0,97,98
 1061 718 1061 718 1056 718 c 0,99,100
 1044 718 1044 718 1044 724 c 2,11,-1
EndSplineSet
EndChar

StartChar: H
Encoding: 72 72 43
Width: 1044
GlyphClass: 2
Flags: W
AnchorPoint: "Anchor-5" 838 1000 basechar 0
AnchorPoint: "Anchor-4" 138 0 basechar 0
AnchorPoint: "Anchor-3" 396 -100 basechar 0
LayerCount: 2
Fore
SplineSet
984 36 m 1,0,1
 880 -24 880 -24 784 -24 c 0,2,3
 724 -24 724 -24 701 4.5 c 128,-1,4
 678 33 678 33 678 72 c 0,5,6
 678 146 678 146 814 406 c 1,7,8
 618 368 618 368 456 368 c 0,9,10
 413 368 413 368 380 374 c 1,11,12
 233 100 233 100 192 10 c 1,13,14
 185 -2 185 -2 156.5 -5 c 128,-1,15
 128 -8 128 -8 116.5 -10.5 c 128,-1,16
 105 -13 105 -13 98.5 -16.5 c 128,-1,17
 92 -20 92 -20 87 -20 c 128,-1,18
 82 -20 82 -20 82 -15 c 128,-1,19
 82 -10 82 -10 148 106 c 2,20,-1
 322 410 l 1,21,22
 314 426 314 426 314 440 c 128,-1,23
 314 454 314 454 328.5 463 c 128,-1,24
 343 472 343 472 356 472 c 1,25,26
 496 721 496 721 496 782 c 0,27,28
 496 812 496 812 477 835 c 128,-1,29
 458 858 458 858 415 858 c 128,-1,30
 372 858 372 858 334.5 841.5 c 128,-1,31
 297 825 297 825 254 782 c 0,32,33
 249 777 249 777 244 771 c 0,34,35
 235 760 235 760 232 760 c 0,36,37
 226 760 226 760 226 767 c 128,-1,38
 226 774 226 774 248 796 c 0,39,40
 335 886 335 886 454 886 c 0,41,42
 514 886 514 886 544 858 c 128,-1,43
 574 830 574 830 574 786 c 0,44,45
 574 758 574 758 561 726 c 128,-1,46
 548 694 548 694 538 672.5 c 128,-1,47
 528 651 528 651 520 635.5 c 128,-1,48
 512 620 512 620 497.5 592.5 c 128,-1,49
 483 565 483 565 473 547 c 0,50,51
 438 484 438 484 416 442 c 1,52,53
 492 404 492 404 595 404 c 128,-1,54
 698 404 698 404 828 432 c 1,55,56
 902 570 902 570 1054 842 c 1,57,58
 1062 854 1062 854 1072 857 c 128,-1,59
 1082 860 1082 860 1096.5 863 c 128,-1,60
 1111 866 1111 866 1119 868 c 128,-1,61
 1127 870 1127 870 1146 878 c 128,-1,62
 1165 886 1165 886 1173.5 886 c 128,-1,63
 1182 886 1182 886 1182 880 c 0,64,65
 1182 868 1182 868 1147 825 c 2,66,-1
 1130 804 l 1,67,68
 1052 687 1052 687 922 454 c 1,69,70
 978 467 978 467 990.5 472.5 c 128,-1,71
 1003 478 1003 478 1006 478 c 0,72,73
 1012 478 1012 478 1012 471.5 c 128,-1,74
 1012 465 1012 465 1006.5 459.5 c 128,-1,75
 1001 454 1001 454 988.5 449.5 c 128,-1,76
 976 445 976 445 966.5 442 c 128,-1,77
 957 439 957 439 937.5 434.5 c 128,-1,78
 918 430 918 430 910 428 c 1,79,80
 778 169 778 169 778 102 c 0,81,82
 778 24 778 24 856 24 c 0,83,84
 936 24 936 24 1004 66 c 0,85,86
 1016 74 1016 74 1029 82 c 0,87,88
 1061 102 1061 102 1112 142 c 1,89,90
 1152 176 1152 176 1212 248 c 0,91,92
 1216 254 1216 254 1220 254 c 128,-1,93
 1224 254 1224 254 1224 251 c 128,-1,94
 1224 248 1224 248 1222 244 c 0,95,96
 1169 173 1169 173 1118 129.5 c 128,-1,97
 1067 86 1067 86 984 36 c 1,0,1
EndSplineSet
EndChar

StartChar: I
Encoding: 73 73 44
Width: 690
GlyphClass: 2
Flags: W
AnchorPoint: "Anchor-5" 806 1000 basechar 0
AnchorPoint: "Anchor-4" 202 0 basechar 0
LayerCount: 2
Fore
SplineSet
564 796 m 1,0,1
 602 851 602 851 602 882.5 c 128,-1,2
 602 914 602 914 580 932 c 128,-1,3
 558 950 558 950 517 950 c 128,-1,4
 476 950 476 950 436 926.5 c 128,-1,5
 396 903 396 903 396 854 c 0,6,7
 396 831 396 831 408 823 c 128,-1,8
 420 815 420 815 428 810.5 c 128,-1,9
 436 806 436 806 450.5 803.5 c 128,-1,10
 465 801 465 801 475.5 799.5 c 128,-1,11
 486 798 486 798 504 797 c 0,12,13
 524 796 524 796 534 796 c 2,14,-1
 564 796 l 1,0,1
166 230 m 1,15,16
 146 206 146 206 146 156.5 c 128,-1,17
 146 107 146 107 188.5 56.5 c 128,-1,18
 231 6 231 6 283.5 6 c 128,-1,19
 336 6 336 6 379.5 56.5 c 128,-1,20
 423 107 423 107 470 208 c 1,21,22
 631 546 631 546 820 810 c 1,23,24
 787 800 787 800 703.5 789 c 128,-1,25
 620 778 620 778 576 776 c 1,26,27
 550 743 550 743 486 680.5 c 128,-1,28
 422 618 422 618 370 574 c 1,29,30
 354 558 354 558 348 558 c 128,-1,31
 342 558 342 558 342 562 c 0,32,33
 342 569 342 569 365 587.5 c 128,-1,34
 388 606 388 606 453 672.5 c 128,-1,35
 518 739 518 739 548 776 c 1,36,37
 340 776 340 776 340 844 c 0,38,39
 340 882 340 882 383.5 913.5 c 128,-1,40
 427 945 427 945 477.5 959.5 c 128,-1,41
 528 974 528 974 564 974 c 0,42,43
 648 974 648 974 648 918 c 0,44,45
 648 885 648 885 592 798 c 1,46,47
 728 805 728 805 812 836 c 0,48,49
 830 843 830 843 873.5 849.5 c 128,-1,50
 917 856 917 856 931.5 856 c 128,-1,51
 946 856 946 856 946 850 c 0,52,53
 946 848 946 848 933.5 839.5 c 128,-1,54
 921 831 921 831 918 826 c 0,55,56
 810 671 810 671 736.5 543.5 c 128,-1,57
 663 416 663 416 568 224 c 0,58,59
 452 -12 452 -12 242 -12 c 0,60,61
 178 -12 178 -12 127 28.5 c 128,-1,62
 76 69 76 69 76 136 c 0,63,64
 76 142 76 142 95 161 c 128,-1,65
 114 180 114 180 128.5 197.5 c 128,-1,66
 143 215 143 215 150.5 224.5 c 128,-1,67
 158 234 158 234 160 234 c 0,68,69
 166 234 166 234 166 230 c 1,15,16
EndSplineSet
EndChar

StartChar: J
Encoding: 74 74 45
Width: 704
GlyphClass: 2
Flags: W
AnchorPoint: "Anchor-5" 780 1000 basechar 0
LayerCount: 2
Fore
SplineSet
352 -58 m 1,0,1
 200 -95 200 -95 122 -134 c 1,2,3
 -79 -238 -79 -238 -167 -351.5 c 128,-1,4
 -255 -465 -255 -465 -256 -642 c 0,5,6
 -256 -725 -256 -725 -228.5 -772.5 c 128,-1,7
 -201 -820 -201 -820 -147 -820 c 128,-1,8
 -93 -820 -93 -820 -47.5 -783 c 128,-1,9
 -2 -746 -2 -746 46 -676 c 1,10,11
 110 -580 110 -580 168 -468 c 1,12,13
 228 -356 228 -356 256 -290 c 0,14,15
 322 -136 322 -136 352 -58 c 1,0,1
806 836 m 0,16,17
 824 843 824 843 867.5 849.5 c 128,-1,18
 911 856 911 856 925.5 856 c 128,-1,19
 940 856 940 856 940 850 c 0,20,21
 940 847 940 847 936 844 c 2,22,-1
 924 836 l 2,23,24
 900 820 900 820 810 690 c 0,25,26
 791 662 791 662 765 617 c 128,-1,27
 739 572 739 572 727.5 552 c 128,-1,28
 716 532 716 532 687.5 474.5 c 128,-1,29
 659 417 659 417 651.5 401 c 128,-1,30
 644 385 644 385 610 313 c 128,-1,31
 576 241 576 241 568 224 c 2,32,-1
 458 -10 l 1,33,34
 582 20 582 20 642.5 51.5 c 128,-1,35
 703 83 703 83 774 142 c 1,36,37
 841 201 841 201 872 248 c 0,38,39
 876 254 876 254 880 254 c 128,-1,40
 884 254 884 254 884 251 c 128,-1,41
 884 248 884 248 882 244 c 0,42,43
 826 170 826 170 773 122.5 c 128,-1,44
 720 75 720 75 647.5 36 c 128,-1,45
 575 -3 575 -3 444 -36 c 1,46,47
 237 -465 237 -465 92 -668 c 0,48,49
 -37 -848 -37 -848 -182 -848 c 0,50,51
 -254 -848 -254 -848 -294 -795 c 128,-1,52
 -334 -742 -334 -742 -334 -636 c 0,53,54
 -334 -497 -334 -497 -228 -357 c 0,55,56
 -175 -287 -175 -287 -86 -221 c 128,-1,57
 3 -155 3 -155 110 -107.5 c 128,-1,58
 217 -60 217 -60 364 -30 c 1,59,60
 416 100 416 100 470 208 c 1,61,62
 605 494 605 494 722 670 c 1,63,-1
 814 810 l 1,64,65
 781 800 781 800 697.5 789 c 128,-1,66
 614 778 614 778 570 776 c 1,67,68
 544 743 544 743 480 680.5 c 128,-1,69
 416 618 416 618 364 574 c 1,70,71
 348 558 348 558 342 558 c 128,-1,72
 336 558 336 558 336 562 c 0,73,74
 336 569 336 569 359 587.5 c 128,-1,75
 382 606 382 606 447 672.5 c 128,-1,76
 512 739 512 739 542 776 c 1,77,78
 334 776 334 776 334 844 c 0,79,80
 334 882 334 882 377.5 913.5 c 128,-1,81
 421 945 421 945 471.5 959.5 c 128,-1,82
 522 974 522 974 558 974 c 0,83,84
 642 974 642 974 642 918 c 0,85,86
 642 885 642 885 586 798 c 1,87,88
 722 805 722 805 806 836 c 0,16,17
558 796 m 1,89,90
 596 851 596 851 596 882.5 c 128,-1,91
 596 914 596 914 574 932 c 128,-1,92
 552 950 552 950 511 950 c 128,-1,93
 470 950 470 950 430 926.5 c 128,-1,94
 390 903 390 903 390 854 c 0,95,96
 390 831 390 831 402 823 c 128,-1,97
 414 815 414 815 422 810.5 c 128,-1,98
 430 806 430 806 444.5 803.5 c 128,-1,99
 459 801 459 801 469.5 799.5 c 128,-1,100
 480 798 480 798 498 797 c 0,101,102
 518 796 518 796 528 796 c 2,103,-1
 558 796 l 1,89,90
EndSplineSet
EndChar

StartChar: K
Encoding: 75 75 46
Width: 814
GlyphClass: 2
Flags: W
AnchorPoint: "Anchor-5" 756 1000 basechar 0
AnchorPoint: "Anchor-3" 312 -100 basechar 0
LayerCount: 2
Fore
SplineSet
370 448 m 1,0,-1
 396 494 l 1,1,2
 365 486 365 486 350 478 c 1,3,4
 357 465 357 465 370 448 c 1,0,-1
248 450 m 1,5,-1
 228 446 l 1,6,7
 220 446 220 446 220 454.5 c 128,-1,8
 220 463 220 463 414 528 c 1,9,10
 500 685 500 685 500 758 c 0,11,12
 500 858 500 858 418 858 c 0,13,14
 372 858 372 858 334.5 841.5 c 128,-1,15
 297 825 297 825 254 782 c 0,16,17
 249 777 249 777 244 771 c 0,18,19
 235 760 235 760 232 760 c 0,20,21
 226 760 226 760 226 767 c 128,-1,22
 226 774 226 774 248 796 c 0,23,24
 335 886 335 886 454 886 c 0,25,26
 514 886 514 886 548 857.5 c 128,-1,27
 582 829 582 829 582 786 c 0,28,29
 582 714 582 714 506 566 c 1,30,31
 644 628 644 628 803.5 708.5 c 128,-1,32
 963 789 963 789 1016 828 c 0,33,34
 1035 842 1035 842 1066.5 859 c 128,-1,35
 1098 876 1098 876 1105 876 c 128,-1,36
 1112 876 1112 876 1112 872 c 0,37,38
 1112 865 1112 865 1077 834.5 c 128,-1,39
 1042 804 1042 804 977.5 762 c 128,-1,40
 913 720 913 720 848 694 c 1,41,-1
 490 534 l 1,42,-1
 408 384 l 1,43,44
 424 357 424 357 454 306 c 1,45,46
 482 256 482 256 500 226 c 0,47,48
 551 141 551 141 618.5 38 c 128,-1,49
 686 -65 686 -65 725 -105 c 0,50,51
 801 -184 801 -184 890.5 -184 c 128,-1,52
 980 -184 980 -184 1074 -112 c 0,53,54
 1078 -108 1078 -108 1081 -108 c 128,-1,55
 1084 -108 1084 -108 1084 -110 c 0,56,57
 1084 -139 1084 -139 1011.5 -172.5 c 128,-1,58
 939 -206 939 -206 866 -206 c 0,59,60
 753 -206 753 -206 686.5 -162.5 c 128,-1,61
 620 -119 620 -119 544 -4 c 0,62,63
 445 148 445 148 362 300 c 1,64,65
 249 99 249 99 172 -2 c 1,66,67
 164 -10 164 -10 158 -14 c 0,68,69
 138 -28 138 -28 42 -28 c 0,70,71
 28 -28 28 -28 28 -22 c 0,72,73
 28 -20 28 -20 34 -17 c 0,74,75
 62 -4 62 -4 80 16 c 0,76,77
 196 149 196 149 324 368 c 1,78,79
 308 395 308 395 284 422.5 c 128,-1,80
 260 450 260 450 248 450 c 1,5,-1
EndSplineSet
EndChar

StartChar: L
Encoding: 76 76 47
Width: 768
GlyphClass: 2
Flags: W
AnchorPoint: "Anchor-5" 734 1000 basechar 0
AnchorPoint: "Anchor-3" 324 -100 basechar 0
AnchorPoint: "Anchor-1" 884 766 basechar 0
AnchorPoint: "Anchor-0" 770 400 basechar 0
LayerCount: 2
Fore
SplineSet
482 782 m 0,0,1
 477 777 477 777 472 771 c 0,2,3
 463 760 463 760 460 760 c 0,4,5
 454 760 454 760 454 767 c 128,-1,6
 454 774 454 774 476 796 c 0,7,8
 562 886 562 886 658 886 c 0,9,10
 697 886 697 886 727.5 865.5 c 128,-1,11
 758 845 758 845 758 796 c 0,12,13
 758 717 758 717 646.5 512.5 c 128,-1,14
 535 308 535 308 452 194 c 1,15,16
 510 20 510 20 682.5 -117 c 128,-1,17
 855 -254 855 -254 1026 -254 c 0,18,19
 1143 -254 1143 -254 1218 -182 c 0,20,21
 1226 -174 1226 -174 1233.5 -163.5 c 128,-1,22
 1241 -153 1241 -153 1245.5 -147.5 c 128,-1,23
 1250 -142 1250 -142 1254 -142 c 128,-1,24
 1258 -142 1258 -142 1258 -148 c 0,25,26
 1258 -165 1258 -165 1230 -198 c 0,27,28
 1140 -304 1140 -304 970 -304 c 0,29,30
 846 -304 846 -304 724 -246 c 0,31,32
 656 -214 656 -214 598 -164.5 c 128,-1,33
 540 -115 540 -115 489 -37 c 128,-1,34
 438 41 438 41 408 138 c 1,35,36
 352 70 352 70 285.5 23 c 128,-1,37
 219 -24 219 -24 156.5 -24 c 128,-1,38
 94 -24 94 -24 94 16 c 0,39,40
 94 62 94 62 143.5 133 c 128,-1,41
 193 204 193 204 259 257 c 128,-1,42
 325 310 325 310 368 310 c 0,43,44
 406 310 406 310 436 238 c 1,45,46
 554 424 554 424 617 573 c 128,-1,47
 680 722 680 722 680 776 c 0,48,49
 680 848 680 848 628 848 c 0,50,51
 548 848 548 848 482 782 c 0,0,1
396 178 m 1,52,53
 387 211 387 211 370 233.5 c 128,-1,54
 353 256 353 256 334 256 c 0,55,56
 278 256 278 256 216 186.5 c 128,-1,57
 154 117 154 117 154 56 c 0,58,59
 154 40 154 40 164 29 c 128,-1,60
 174 18 174 18 192 18 c 0,61,62
 248 18 248 18 295 60 c 128,-1,63
 342 102 342 102 396 178 c 1,52,53
EndSplineSet
EndChar

StartChar: M
Encoding: 77 77 48
Width: 1170
GlyphClass: 2
Flags: W
AnchorPoint: "Anchor-5" 974 1088 basechar 0
AnchorPoint: "Anchor-3" 542 -100 basechar 0
LayerCount: 2
Fore
SplineSet
536 706 m 1,0,1
 582 753 582 753 611 780 c 128,-1,2
 640 807 640 807 688 835.5 c 128,-1,3
 736 864 736 864 776 864 c 0,4,5
 892 864 892 864 892 720 c 1,6,7
 991 811 991 811 1077 855.5 c 128,-1,8
 1163 900 1163 900 1212 900 c 128,-1,9
 1261 900 1261 900 1294.5 876.5 c 128,-1,10
 1328 853 1328 853 1328 811 c 128,-1,11
 1328 769 1328 769 1294.5 708 c 128,-1,12
 1261 647 1261 647 1213.5 577.5 c 128,-1,13
 1166 508 1166 508 1118.5 428.5 c 128,-1,14
 1071 349 1071 349 1037.5 244.5 c 128,-1,15
 1004 140 1004 140 1004 49 c 128,-1,16
 1004 -42 1004 -42 1023 -100 c 256,17,18
 1042 -158 1042 -158 1074 -190 c 0,19,20
 1138 -254 1138 -254 1226 -254 c 0,21,22
 1341 -254 1341 -254 1430 -144 c 0,23,24
 1436 -137 1436 -137 1440.5 -130 c 128,-1,25
 1445 -123 1445 -123 1447 -120 c 0,26,27
 1448 -118 1448 -118 1450 -116 c 0,28,29
 1452 -113 1452 -113 1456 -112.5 c 128,-1,30
 1460 -112 1460 -112 1460 -121.5 c 128,-1,31
 1460 -131 1460 -131 1439 -161 c 128,-1,32
 1418 -191 1418 -191 1384.5 -223 c 128,-1,33
 1351 -255 1351 -255 1298.5 -278.5 c 128,-1,34
 1246 -302 1246 -302 1192 -302 c 0,35,36
 1074 -302 1074 -302 998 -226 c 128,-1,37
 922 -150 922 -150 922 -12 c 0,38,39
 922 87 922 87 954.5 187.5 c 128,-1,40
 987 288 987 288 1033.5 367 c 128,-1,41
 1080 446 1080 446 1126 517 c 0,42,43
 1238 687 1238 687 1238 772 c 0,44,45
 1238 813 1238 813 1210.5 832.5 c 128,-1,46
 1183 852 1183 852 1150 852 c 2,47,-1
 1144 852 l 1,48,49
 1097 850 1097 850 1038.5 810 c 128,-1,50
 980 770 980 770 880 670 c 1,51,52
 860 622 860 622 848 605 c 128,-1,53
 836 588 836 588 801 569 c 128,-1,54
 766 550 766 550 755 550 c 128,-1,55
 744 550 744 550 744 554 c 0,56,57
 744 572 744 572 804 632 c 1,58,59
 812 653 812 653 812 690.5 c 128,-1,60
 812 728 812 728 803 755.5 c 128,-1,61
 794 783 794 783 778 795 c 0,62,63
 751 816 751 816 718.5 816 c 128,-1,64
 686 816 686 816 615 749 c 128,-1,65
 544 682 544 682 492 608 c 1,66,67
 411 476 411 476 302 258 c 0,68,69
 171 -4 171 -4 155 -16 c 0,70,71
 138 -28 138 -28 42 -28 c 0,72,73
 28 -28 28 -28 28 -22 c 0,74,75
 28 -20 28 -20 35 -18 c 0,76,77
 63 -8 63 -8 77 11 c 128,-1,78
 91 30 91 30 103 48 c 128,-1,79
 115 66 115 66 124 80.5 c 128,-1,80
 133 95 133 95 147.5 121 c 128,-1,81
 162 147 162 147 169 159.5 c 128,-1,82
 176 172 176 172 193 204.5 c 128,-1,83
 210 237 210 237 227 268.5 c 128,-1,84
 244 300 244 300 295 392.5 c 128,-1,85
 346 485 346 485 368 524 c 1,86,87
 388 564 388 564 416 620 c 0,88,89
 464 718 464 718 464 764 c 128,-1,90
 464 810 464 810 445 830 c 128,-1,91
 426 850 426 850 396 850 c 0,92,93
 322 850 322 850 254 782 c 0,94,95
 234 762 234 762 232 762 c 0,96,97
 226 762 226 762 226 768 c 128,-1,98
 226 774 226 774 248 796 c 0,99,100
 292 842 292 842 345 864 c 128,-1,101
 398 886 398 886 434 886 c 0,102,103
 493 886 493 886 521.5 858 c 128,-1,104
 550 830 550 830 550 787.5 c 128,-1,105
 550 745 550 745 536 706 c 1,0,1
EndSplineSet
EndChar

StartChar: N
Encoding: 78 78 49
Width: 910
GlyphClass: 2
Flags: W
AnchorPoint: "Anchor-5" 912 1000 basechar 0
AnchorPoint: "Anchor-3" 326 -100 basechar 0
LayerCount: 2
Fore
SplineSet
710 36 m 0,0,1
 698 5 698 5 675.5 -9.5 c 128,-1,2
 653 -24 653 -24 634 -24 c 0,3,4
 594 -24 594 -24 594 72 c 2,5,-1
 598 760 l 2,6,7
 598 794 598 794 597 801 c 128,-1,8
 596 808 596 808 592 808 c 0,9,10
 580 808 580 808 562 772 c 2,11,-1
 174 36 l 2,12,13
 162 12 162 12 136 0 c 0,14,15
 114 -11 114 -11 106 -21.5 c 128,-1,16
 98 -32 98 -32 92 -32 c 128,-1,17
 86 -32 86 -32 86 -28 c 256,18,19
 86 -24 86 -24 92 -10 c 0,20,21
 170 163 170 163 170 228.5 c 128,-1,22
 170 294 170 294 154 294 c 0,23,24
 149 294 149 294 140.5 289 c 128,-1,25
 132 284 132 284 128 284 c 128,-1,26
 124 284 124 284 124 290 c 1,27,-1
 156 310 l 2,28,29
 161 313 161 313 168 318 c 0,30,31
 182 328 182 328 190 328 c 256,32,33
 198 328 198 328 212 318 c 0,34,35
 240 298 240 298 240 248 c 1,36,-1
 548 814 l 1,37,38
 560 839 560 839 585.5 855.5 c 128,-1,39
 611 872 611 872 648 872 c 0,40,41
 682 872 682 872 682 812 c 2,42,-1
 676 74 l 1,43,44
 709 156 709 156 864 457.5 c 128,-1,45
 1019 759 1019 759 1064 802 c 1,46,47
 1118 856 1118 856 1152 868 c 0,48,49
 1167 874 1167 874 1183.5 874 c 128,-1,50
 1200 874 1200 874 1215 866.5 c 128,-1,51
 1230 859 1230 859 1230 851 c 128,-1,52
 1230 843 1230 843 1215 830 c 0,53,54
 1200 816 1200 816 1185 802 c 0,55,56
 1152 773 1152 773 1151 774 c 1,57,58
 1146 774 1146 774 1146 780 c 128,-1,59
 1146 786 1146 786 1139 792 c 128,-1,60
 1132 798 1132 798 1122 798 c 0,61,62
 1093 798 1093 798 1070 764 c 0,63,64
 991 649 991 649 871.5 396.5 c 128,-1,65
 752 144 752 144 710 36 c 0,0,1
EndSplineSet
EndChar

StartChar: O
Encoding: 79 79 50
Width: 960
GlyphClass: 2
Flags: W
AnchorPoint: "Anchor-5" 840 1000 basechar 0
AnchorPoint: "Anchor-4" 438 0 basechar 0
AnchorPoint: "Anchor-3" 388 -100 basechar 0
LayerCount: 2
Fore
SplineSet
1046.5 799 m 128,-1,1
 1070 710 1070 710 1070 618.5 c 128,-1,2
 1070 527 1070 527 1029 425.5 c 128,-1,3
 988 324 988 324 921 244.5 c 128,-1,4
 854 165 854 165 772.5 103.5 c 128,-1,5
 691 42 691 42 605 9 c 128,-1,6
 519 -24 519 -24 444.5 -24 c 128,-1,7
 370 -24 370 -24 304.5 6.5 c 128,-1,8
 239 37 239 37 196.5 100.5 c 128,-1,9
 154 164 154 164 154 254 c 128,-1,10
 154 344 154 344 202 458 c 0,11,12
 310 711 310 711 526 824 c 0,13,14
 644 886 644 886 768 886 c 0,15,16
 822 886 822 886 879 851.5 c 128,-1,17
 936 817 936 817 936 778 c 0,18,19
 936 772 936 772 927 758 c 128,-1,20
 918 744 918 744 914 737 c 1,21,22
 912 730 912 730 906 718 c 0,23,24
 895 696 895 696 890 696 c 0,25,26
 880 696 880 696 880 706 c 0,27,28
 880 747 880 747 864 777.5 c 128,-1,29
 848 808 848 808 823 823 c 0,30,31
 775 852 775 852 726 852 c 0,32,33
 502 852 502 852 356 634 c 0,34,35
 236 456 236 456 236 306 c 0,36,37
 236 186 236 186 301 111 c 128,-1,38
 366 36 366 36 472 36 c 0,39,40
 600 36 600 36 724.5 115 c 128,-1,41
 849 194 849 194 928.5 324.5 c 128,-1,42
 1008 455 1008 455 1008 594 c 0,43,44
 1008 645 1008 645 998.5 680.5 c 128,-1,45
 989 716 989 716 982 738 c 128,-1,46
 975 760 975 760 968 777 c 128,-1,47
 961 794 961 794 955 806.5 c 128,-1,48
 949 819 949 819 942 834 c 1,49,50
 942 840 942 840 962.5 864 c 128,-1,51
 983 888 983 888 994 888 c 0,52,0
 1023 888 1023 888 1046.5 799 c 128,-1,1
EndSplineSet
EndChar

StartChar: P
Encoding: 80 80 51
Width: 840
GlyphClass: 2
Flags: W
AnchorPoint: "Anchor-5" 922 1000 basechar 0
LayerCount: 2
Fore
SplineSet
364 364 m 1,0,1
 510 402 510 402 630.5 447 c 128,-1,2
 751 492 751 492 840.5 569.5 c 128,-1,3
 930 647 930 647 930 720 c 0,4,5
 930 764 930 764 901 797 c 128,-1,6
 872 830 872 830 820 830 c 0,7,8
 617 830 617 830 364 364 c 1,0,1
378 635 m 1,9,-1
 352 634 l 2,10,11
 342 634 342 634 342 641.5 c 128,-1,12
 342 649 342 649 401.5 661.5 c 128,-1,13
 461 674 461 674 474.5 674 c 128,-1,14
 488 674 488 674 488 665 c 128,-1,15
 488 656 488 656 418 516 c 1,16,17
 457 587 457 587 506 650 c 1,18,19
 587 749 587 749 688.5 817.5 c 128,-1,20
 790 886 790 886 876 886 c 0,21,22
 937 886 937 886 975.5 853.5 c 128,-1,23
 1014 821 1014 821 1014 767.5 c 128,-1,24
 1014 714 1014 714 988 669 c 128,-1,25
 962 624 962 624 924 589 c 128,-1,26
 886 554 886 554 834 521 c 0,27,28
 743 464 743 464 646.5 426.5 c 128,-1,29
 550 389 550 389 356 332 c 1,30,31
 232 84 232 84 200 4 c 0,32,33
 196 -6 196 -6 183 -7.5 c 128,-1,34
 170 -9 170 -9 146.5 -10 c 128,-1,35
 123 -11 123 -11 108.5 -16.5 c 128,-1,36
 94 -22 94 -22 87 -27 c 128,-1,37
 80 -32 80 -32 73 -32 c 128,-1,38
 66 -32 66 -32 66 -27.5 c 128,-1,39
 66 -23 66 -23 72 -12 c 0,40,41
 78 -2 78 -2 88 14 c 0,42,43
 191 182 191 182 227 248 c 128,-1,44
 263 314 263 314 286 357.5 c 128,-1,45
 309 401 309 401 325 432 c 128,-1,46
 341 463 341 463 362 506 c 0,47,48
 406 596 406 596 406 620 c 0,49,50
 406 635 406 635 378 635 c 1,9,-1
EndSplineSet
EndChar

StartChar: Q
Encoding: 81 81 52
Width: 960
GlyphClass: 2
Flags: W
AnchorPoint: "Anchor-5" 840 1000 basechar 0
AnchorPoint: "Anchor-4" 438 0 basechar 0
AnchorPoint: "Anchor-3" 388 -100 basechar 0
LayerCount: 2
Fore
SplineSet
954 -372 m 0,0,1
 838 -372 838 -372 743 -280.5 c 128,-1,2
 648 -189 648 -189 584 2 c 1,3,4
 506 -24 506 -24 438 -24 c 128,-1,5
 370 -24 370 -24 304.5 6.5 c 128,-1,6
 239 37 239 37 196.5 100.5 c 128,-1,7
 154 164 154 164 154 254 c 128,-1,8
 154 344 154 344 202 458 c 0,9,10
 310 711 310 711 526 824 c 0,11,12
 644 886 644 886 768 886 c 0,13,14
 822 886 822 886 879 851.5 c 128,-1,15
 936 817 936 817 936 778 c 0,16,17
 936 772 936 772 927 758 c 128,-1,18
 918 744 918 744 914 737 c 1,19,20
 912 730 912 730 906 718 c 0,21,22
 895 696 895 696 890 696 c 0,23,24
 880 696 880 696 880 706 c 0,25,26
 880 747 880 747 864 777.5 c 128,-1,27
 848 808 848 808 823 823 c 0,28,29
 775 852 775 852 726 852 c 0,30,31
 502 852 502 852 356 634 c 0,32,33
 236 456 236 456 236 306 c 0,34,35
 236 186 236 186 301 111 c 128,-1,36
 366 36 366 36 472 36 c 0,37,38
 522 36 522 36 570 48 c 1,39,40
 526 218 526 218 526 372 c 0,41,42
 526 378 526 378 555 395 c 128,-1,43
 584 412 584 412 593 412 c 128,-1,44
 602 412 602 412 602 408 c 0,45,46
 596 345 596 345 596 256.5 c 128,-1,47
 596 168 596 168 618 64 c 1,48,49
 779 123 779 123 893.5 273.5 c 128,-1,50
 1008 424 1008 424 1008 594 c 0,51,52
 1008 645 1008 645 998.5 680.5 c 128,-1,53
 989 716 989 716 982 738 c 128,-1,54
 975 760 975 760 968 777 c 128,-1,55
 961 794 961 794 955 806.5 c 128,-1,56
 949 819 949 819 942 834 c 1,57,58
 942 840 942 840 962.5 864 c 128,-1,59
 983 888 983 888 994 888 c 0,60,61
 1023 888 1023 888 1046.5 799 c 128,-1,62
 1070 710 1070 710 1070 620 c 128,-1,63
 1070 530 1070 530 1032 432 c 128,-1,64
 994 334 994 334 931 256 c 0,65,66
 800 94 800 94 630 20 c 1,67,68
 667 -125 667 -125 766.5 -222.5 c 128,-1,69
 866 -320 866 -320 1002 -320 c 0,70,71
 1116 -320 1116 -320 1201 -255 c 128,-1,72
 1286 -190 1286 -190 1298 -134 c 0,73,74
 1302 -116 1302 -116 1312 -116 c 0,75,76
 1326 -116 1326 -116 1326 -128 c 0,77,78
 1326 -135 1326 -135 1313 -159.5 c 128,-1,79
 1300 -184 1300 -184 1270 -220.5 c 128,-1,80
 1240 -257 1240 -257 1199 -290.5 c 128,-1,81
 1158 -324 1158 -324 1093 -348 c 128,-1,82
 1028 -372 1028 -372 954 -372 c 0,0,1
EndSplineSet
EndChar

StartChar: R
Encoding: 82 82 53
Width: 780
GlyphClass: 2
Flags: W
AnchorPoint: "Anchor-5" 902 1000 basechar 0
AnchorPoint: "Anchor-3" 308 -100 basechar 0
LayerCount: 2
Fore
SplineSet
316 414 m 1,0,-1
 326 434 l 1,1,2
 326 434 326 434 306 430 c 1,3,4
 310 424 310 424 316 414 c 1,0,-1
430 478 m 1,5,6
 602 516 602 516 695 556 c 0,7,8
 744 578 744 578 791.5 605 c 128,-1,9
 839 632 839 632 866.5 666.5 c 128,-1,10
 894 701 894 701 894 740.5 c 128,-1,11
 894 780 894 780 863.5 813 c 128,-1,12
 833 846 833 846 778 846 c 0,13,14
 704 846 704 846 646 796 c 0,15,16
 616 770 616 770 591 741.5 c 128,-1,17
 566 713 566 713 536 665 c 0,18,19
 492 595 492 595 430 478 c 1,5,6
103 -27 m 128,-1,21
 96 -32 96 -32 89 -32 c 128,-1,22
 82 -32 82 -32 82 -26 c 0,23,24
 82 -22 82 -22 100.5 5.5 c 128,-1,25
 119 33 119 33 122 38 c 0,26,27
 189 161 189 161 231 246 c 128,-1,28
 273 331 273 331 298 378 c 1,29,30
 270 434 270 434 270 444 c 0,31,32
 270 447 270 447 340 460 c 1,33,34
 408 589 408 589 452 654 c 1,35,36
 519 760 519 760 634 823 c 128,-1,37
 749 886 749 886 848 886 c 0,38,39
 902 886 902 886 935 857.5 c 128,-1,40
 968 829 968 829 968 778 c 0,41,42
 968 676 968 676 838 595 c 128,-1,43
 708 514 708 514 416 452 c 1,44,-1
 360 344 l 1,45,-1
 582 -22 l 1,46,47
 646 -137 646 -137 704.5 -190.5 c 128,-1,48
 763 -244 763 -244 842 -244 c 0,49,50
 949 -244 949 -244 1010 -158 c 1,51,52
 1024 -144 1024 -144 1040 -144 c 128,-1,53
 1056 -144 1056 -144 1056 -152 c 2,54,-1
 1056 -158 l 1,55,56
 941 -266 941 -266 804 -266 c 128,-1,57
 667 -266 667 -266 594 -158 c 0,58,59
 550 -92 550 -92 455.5 86.5 c 128,-1,60
 361 265 361 265 338 304 c 1,61,62
 302 229 302 229 262.5 124.5 c 128,-1,63
 223 20 223 20 217.5 7 c 128,-1,64
 212 -6 212 -6 199 -7.5 c 128,-1,65
 186 -9 186 -9 162.5 -10 c 128,-1,66
 139 -11 139 -11 124.5 -16.5 c 128,-1,20
 110 -22 110 -22 103 -27 c 128,-1,21
EndSplineSet
EndChar

StartChar: S
Encoding: 83 83 54
Width: 752
GlyphClass: 2
Flags: W
AnchorPoint: "Anchor-5" 788 1000 basechar 0
AnchorPoint: "Anchor-4" 300 0 basechar 0
AnchorPoint: "Anchor-3" 256 -100 basechar 0
LayerCount: 2
Fore
SplineSet
76 136 m 0,0,1
 76 142 76 142 95 161 c 128,-1,2
 114 180 114 180 128.5 197.5 c 128,-1,3
 143 215 143 215 150.5 224.5 c 128,-1,4
 158 234 158 234 160 234 c 0,5,6
 166 234 166 234 166 230 c 1,7,-1
 157 216 l 2,8,9
 148 202 148 202 148 190 c 0,10,11
 148 148 148 148 163.5 115 c 128,-1,12
 179 82 179 82 202.5 62.5 c 128,-1,13
 226 43 226 43 256 30 c 0,14,15
 307 8 307 8 364 8 c 0,16,17
 479 8 479 8 551.5 81 c 128,-1,18
 624 154 624 154 624 228 c 0,19,20
 624 308 624 308 552 401 c 0,21,22
 522 440 522 440 490 478 c 1,23,24
 418 568 418 568 418 636 c 128,-1,25
 418 704 418 704 472.5 763 c 128,-1,26
 527 822 527 822 602.5 854 c 128,-1,27
 678 886 678 886 746 886 c 0,28,29
 828 886 828 886 878 828 c 0,30,31
 900 802 900 802 900 794 c 128,-1,32
 900 786 900 786 893 780 c 0,33,34
 882 771 882 771 859.5 755.5 c 128,-1,35
 837 740 837 740 833.5 740 c 128,-1,36
 830 740 830 740 830 746 c 0,37,38
 830 782 830 782 787.5 812 c 128,-1,39
 745 842 745 842 682 842 c 0,40,41
 592 842 592 842 540 792.5 c 128,-1,42
 488 743 488 743 488 680 c 0,43,44
 488 616 488 616 565 527 c 0,45,46
 597 490 597 490 629 452 c 0,47,48
 706 361 706 361 706 283.5 c 128,-1,49
 706 206 706 206 640 130 c 128,-1,50
 574 54 574 54 479 10 c 128,-1,51
 384 -34 384 -34 296 -34 c 0,52,53
 238 -34 238 -34 193 -18 c 1,54,55
 148 0 148 0 124 26 c 0,56,57
 76 78 76 78 76 136 c 0,0,1
EndSplineSet
EndChar

StartChar: T
Encoding: 84 84 55
Width: 728
GlyphClass: 2
Flags: W
AnchorPoint: "Anchor-5" 748 1060 basechar 0
AnchorPoint: "Anchor-4" 226 0 basechar 0
AnchorPoint: "Anchor-3" 170 -100 basechar 0
LayerCount: 2
Fore
SplineSet
286 -2 m 1,0,1
 278 -10 278 -10 272 -14 c 0,2,3
 253 -27 253 -27 156 -28 c 0,4,5
 142 -28 142 -28 142 -22 c 0,6,7
 142 -20 142 -20 149 -18 c 0,8,9
 176 -8 176 -8 192 16 c 1,10,11
 297 155 297 155 438 406 c 128,-1,12
 579 657 579 657 636 828 c 1,13,14
 382 828 382 828 294 796 c 0,15,16
 253 781 253 781 243.5 771.5 c 128,-1,17
 234 762 234 762 232 762 c 0,18,19
 226 762 226 762 226 768 c 128,-1,20
 226 774 226 774 248 796 c 0,21,22
 290 838 290 838 366 852 c 128,-1,23
 442 866 442 866 650 870 c 1,24,25
 666 931 666 931 666 960.5 c 128,-1,26
 666 990 666 990 662 1007 c 256,27,28
 658 1024 658 1024 648 1045 c 0,29,30
 626 1088 626 1088 550 1088 c 0,31,32
 497 1088 497 1088 442 1062 c 0,33,34
 440 1061 440 1061 420 1046.5 c 128,-1,35
 400 1032 400 1032 391 1032 c 128,-1,36
 382 1032 382 1032 382 1038 c 0,37,38
 382 1052 382 1052 432 1074 c 1,39,40
 495 1104 495 1104 560 1104 c 0,41,42
 654 1104 654 1104 703 1058 c 128,-1,43
 752 1012 752 1012 752 932 c 0,44,45
 752 911 752 911 740 872 c 1,46,47
 947 878 947 878 1059 894 c 0,48,49
 1069 896 1069 896 1074 896 c 128,-1,50
 1079 896 1079 896 1082.5 897 c 128,-1,51
 1086 898 1086 898 1088 898 c 2,52,-1
 1090 898 l 2,53,54
 1102 898 1102 898 1102 895 c 128,-1,55
 1102 892 1102 892 1096 888 c 0,56,57
 1047 855 1047 855 951.5 844.5 c 128,-1,58
 856 834 856 834 726 830 c 1,59,60
 665 671 665 671 503 374 c 128,-1,61
 341 77 341 77 286 -2 c 1,0,1
EndSplineSet
EndChar

StartChar: U
Encoding: 85 85 56
Width: 1016
GlyphClass: 2
Flags: W
AnchorPoint: "Anchor-5" 842 1000 basechar 0
AnchorPoint: "Anchor-4" 382 0 basechar 0
AnchorPoint: "Anchor-3" 376 -100 basechar 0
LayerCount: 2
Fore
SplineSet
548.5 858 m 128,-1,1
 582 830 582 830 582 791.5 c 128,-1,2
 582 753 582 753 552.5 689.5 c 128,-1,3
 523 626 523 626 481 554 c 128,-1,4
 439 482 439 482 397 410 c 0,5,6
 296 236 296 236 296 158 c 0,7,8
 296 95 296 95 328.5 63.5 c 128,-1,9
 361 32 361 32 411 32 c 128,-1,10
 461 32 461 32 517 58 c 0,11,12
 574 84 574 84 626 128 c 0,13,14
 719 206 719 206 798 302 c 1,15,16
 900 521 900 521 954 616.5 c 128,-1,17
 1008 712 1008 712 1078 800 c 0,18,19
 1125 858 1125 858 1160 858 c 0,20,21
 1172 858 1172 858 1172 850 c 0,22,23
 1172 802 1172 802 974 502 c 0,24,25
 950 466 950 466 948 464 c 0,26,27
 903 396 903 396 849.5 267 c 128,-1,28
 796 138 796 138 796 72 c 0,29,30
 796 51 796 51 809 40.5 c 128,-1,31
 822 30 822 30 859.5 30 c 128,-1,32
 897 30 897 30 960.5 64 c 128,-1,33
 1024 98 1024 98 1069.5 135 c 128,-1,34
 1115 172 1115 172 1145.5 203.5 c 128,-1,35
 1176 235 1176 235 1184 248 c 0,36,37
 1188 254 1188 254 1192 254 c 128,-1,38
 1196 254 1196 254 1196 251 c 128,-1,39
 1196 248 1196 248 1194 244 c 0,40,41
 1135 172 1135 172 1078 124.5 c 128,-1,42
 1021 77 1021 77 941.5 34.5 c 128,-1,43
 862 -8 862 -8 792 -8 c 0,44,45
 755 -8 755 -8 737.5 12 c 128,-1,46
 720 32 720 32 720 64 c 0,47,48
 720 116 720 116 766 220 c 1,49,50
 708 165 708 165 674 135 c 1,51,52
 638 105 638 105 582 64 c 0,53,54
 472 -16 472 -16 366 -16 c 0,55,56
 293 -16 293 -16 247.5 26 c 128,-1,57
 202 68 202 68 202 140 c 0,58,59
 202 193 202 193 248 294 c 0,60,61
 294 396 294 396 350 488 c 0,62,63
 498 732 498 732 498 780 c 0,64,65
 498 858 498 858 418 858 c 0,66,67
 372 858 372 858 334.5 841.5 c 128,-1,68
 297 825 297 825 265.5 793.5 c 128,-1,69
 234 762 234 762 230 762 c 128,-1,70
 226 762 226 762 226 768 c 128,-1,71
 226 774 226 774 248 796 c 0,72,73
 335 886 335 886 454 886 c 0,74,0
 515 886 515 886 548.5 858 c 128,-1,1
EndSplineSet
EndChar

StartChar: V
Encoding: 86 86 57
Width: 838
GlyphClass: 2
Flags: W
AnchorPoint: "Anchor-5" 786 1000 basechar 0
AnchorPoint: "Anchor-3" 184 -100 basechar 0
LayerCount: 2
Fore
SplineSet
362 162 m 1,0,1
 560 434 560 434 848 676 c 0,2,3
 1034 833 1034 833 1158 886 c 0,4,5
 1178 894 1178 894 1186 894 c 128,-1,6
 1194 894 1194 894 1194 888 c 0,7,8
 1194 886 1194 886 1154.5 865.5 c 128,-1,9
 1115 845 1115 845 1093 832.5 c 128,-1,10
 1071 820 1071 820 1002 769 c 128,-1,11
 933 718 933 718 856 650 c 0,12,13
 554 381 554 381 354 93 c 0,14,15
 345 80 345 80 341 74.5 c 128,-1,16
 337 69 337 69 332.5 62.5 c 128,-1,17
 328 56 328 56 326.5 53.5 c 128,-1,18
 325 51 325 51 323 48 c 128,-1,19
 321 45 321 45 320 43 c 128,-1,20
 319 41 319 41 317 38 c 0,21,22
 313 32 313 32 308 22.5 c 128,-1,23
 303 13 303 13 296.5 8 c 128,-1,24
 290 3 290 3 284 -0.5 c 128,-1,25
 278 -4 278 -4 268 -9 c 2,26,-1
 254 -16 l 1,27,28
 212 -34 212 -34 198 -34 c 128,-1,29
 184 -34 184 -34 184 -20 c 128,-1,30
 184 -6 184 -6 200.5 28.5 c 128,-1,31
 217 63 217 63 244 109 c 128,-1,32
 271 155 271 155 278 170 c 0,33,34
 462 554 462 554 462 752 c 0,35,36
 462 801 462 801 444 825.5 c 128,-1,37
 426 850 426 850 396 850 c 0,38,39
 322 850 322 850 254 782 c 0,40,41
 234 762 234 762 232 762 c 0,42,43
 226 762 226 762 226 768 c 128,-1,44
 226 774 226 774 248 796 c 0,45,46
 292 842 292 842 345 864 c 128,-1,47
 398 886 398 886 434 886 c 0,48,49
 492 886 492 886 521 845.5 c 128,-1,50
 550 805 550 805 550 750 c 0,51,52
 550 580 550 580 362 162 c 1,0,1
EndSplineSet
EndChar

StartChar: W
Encoding: 87 87 58
Width: 1202
GlyphClass: 2
Flags: W
AnchorPoint: "Anchor-5" 836 1000 basechar 0
AnchorPoint: "Anchor-3" 468 -100 basechar 0
LayerCount: 2
Fore
SplineSet
442 888 m 0,0,1
 568 888 568 888 568 776 c 0,2,3
 568 732 568 732 543.5 678 c 128,-1,4
 519 624 519 624 500.5 588.5 c 128,-1,5
 482 553 482 553 444 487 c 128,-1,6
 406 421 406 421 375 369 c 0,7,8
 284 217 284 217 180 40 c 1,9,10
 316 173 316 173 474 266 c 0,11,12
 573 324 573 324 634 324 c 0,13,14
 668 324 668 324 680.5 316 c 128,-1,15
 693 308 693 308 697 305 c 128,-1,16
 701 302 701 302 705.5 295.5 c 128,-1,17
 710 289 710 289 712 286 c 128,-1,18
 714 283 714 283 717 275 c 128,-1,19
 720 267 720 267 720.5 265 c 128,-1,20
 721 263 721 263 728.5 237.5 c 128,-1,21
 736 212 736 212 746 168.5 c 128,-1,22
 756 125 756 125 761.5 99 c 128,-1,23
 767 73 767 73 777 44 c 0,24,25
 787 16 787 16 799 0 c 0,26,27
 826 -36 826 -36 887 -36 c 128,-1,28
 948 -36 948 -36 1003 2.5 c 128,-1,29
 1058 41 1058 41 1090 96.5 c 128,-1,30
 1122 152 1122 152 1144 218 c 0,31,32
 1180 331 1180 331 1180 420 c 0,33,34
 1180 530 1180 530 1142 641 c 0,35,36
 1120 705 1120 705 1087.5 755.5 c 128,-1,37
 1055 806 1055 806 999.5 840 c 128,-1,38
 944 874 944 874 873 874 c 128,-1,39
 802 874 802 874 758 846 c 0,40,41
 745 838 745 838 730.5 838 c 128,-1,42
 716 838 716 838 716 848 c 1,43,44
 713 857 713 857 734 868 c 1,45,46
 795 894 795 894 879.5 894 c 128,-1,47
 964 894 964 894 1031 865.5 c 128,-1,48
 1098 837 1098 837 1138 792.5 c 128,-1,49
 1178 748 1178 748 1204 688 c 0,50,51
 1250 585 1250 585 1250 456 c 0,52,53
 1250 306 1250 306 1190 179 c 0,54,55
 1158 112 1158 112 1114 60 c 128,-1,56
 1070 8 1070 8 1004 -24 c 256,57,58
 938 -56 938 -56 872 -56 c 0,59,60
 870 -56 870 -56 867 -56 c 0,61,62
 804 -56 804 -56 768 -40 c 0,63,64
 730 -24 730 -24 709 -8 c 128,-1,65
 688 8 688 8 670 52.5 c 128,-1,66
 652 97 652 97 646.5 120 c 128,-1,67
 641 143 641 143 634 179 c 1,68,69
 628 216 628 216 624 232 c 0,70,71
 616 270 616 270 582.5 270 c 128,-1,72
 549 270 549 270 476.5 228.5 c 128,-1,73
 404 187 404 187 342.5 140 c 128,-1,74
 281 93 281 93 218 42.5 c 128,-1,75
 155 -8 155 -8 152 -10 c 0,76,77
 130 -24 130 -24 82 -24 c 0,78,79
 70 -24 70 -24 70 -8 c 0,80,81
 70 -2 70 -2 89.5 36 c 128,-1,82
 109 74 109 74 207.5 245.5 c 128,-1,83
 306 417 306 417 339 474 c 128,-1,84
 372 531 372 531 400 582 c 128,-1,85
 428 633 428 633 453 692 c 128,-1,86
 478 751 478 751 478 779.5 c 128,-1,87
 478 808 478 808 457 829 c 128,-1,88
 436 850 436 850 396 850 c 0,89,90
 322 850 322 850 254 782 c 0,91,92
 234 762 234 762 232 762 c 0,93,94
 226 762 226 762 226 768 c 128,-1,95
 226 774 226 774 248 796 c 0,96,97
 293 843 293 843 346.5 865.5 c 128,-1,98
 400 888 400 888 442 888 c 0,0,1
EndSplineSet
EndChar

StartChar: X
Encoding: 88 88 59
Width: 890
GlyphClass: 2
Flags: W
AnchorPoint: "Anchor-5" 836 1000 basechar 0
AnchorPoint: "Anchor-3" 428 -100 basechar 0
LayerCount: 2
Fore
SplineSet
42 77 m 128,-1,1
 48 82 48 82 51 82 c 128,-1,2
 54 82 54 82 58 76 c 128,-1,3
 62 70 62 70 68 62 c 0,4,5
 83 42 83 42 137.5 42 c 128,-1,6
 192 42 192 42 220 64 c 1,7,8
 283 101 283 101 372 193 c 0,9,10
 459 284 459 284 574 412 c 1,11,12
 554 640 554 640 541 700 c 0,13,14
 516 820 516 820 458 832 c 0,15,16
 450 834 450 834 440 834 c 0,17,18
 394 834 394 834 342 782 c 0,19,20
 322 762 322 762 320 762 c 0,21,22
 314 762 314 762 314 768 c 128,-1,23
 314 774 314 774 336 796 c 1,24,25
 420 886 420 886 492 886 c 0,26,27
 538 886 538 886 572 848 c 0,28,29
 596 822 596 822 616 743 c 0,30,31
 633 679 633 679 650 496 c 1,32,33
 773 631 773 631 850 704.5 c 128,-1,34
 927 778 927 778 988 822 c 1,35,36
 1090 886 1090 886 1148 886 c 0,37,38
 1170 886 1170 886 1186 878 c 0,39,40
 1210 867 1210 867 1210 852 c 0,41,42
 1210 846 1210 846 1207.5 843 c 128,-1,43
 1205 840 1205 840 1196.5 833.5 c 128,-1,44
 1188 827 1188 827 1182.5 822 c 128,-1,45
 1177 817 1177 817 1164.5 804.5 c 128,-1,46
 1152 792 1152 792 1143 784 c 128,-1,47
 1134 776 1134 776 1130 776 c 128,-1,48
 1126 776 1126 776 1126 779 c 128,-1,49
 1126 782 1126 782 1130 787.5 c 128,-1,50
 1134 793 1134 793 1134 804 c 128,-1,51
 1134 815 1134 815 1118.5 826.5 c 128,-1,52
 1103 838 1103 838 1080.5 838 c 128,-1,53
 1058 838 1058 838 1042.5 830.5 c 128,-1,54
 1027 823 1027 823 998 798 c 1,55,56
 890 710 890 710 654 448 c 1,57,58
 682 135 682 135 714 54 c 0,59,60
 757 -58 757 -58 868 -58 c 0,61,62
 934 -58 934 -58 966 -26 c 0,63,64
 980 -12 980 -12 984 -12 c 0,65,66
 992 -12 992 -12 992 -21 c 128,-1,67
 992 -30 992 -30 967 -50 c 128,-1,68
 942 -70 942 -70 895 -88 c 128,-1,69
 848 -106 848 -106 800 -106 c 0,70,71
 669 -106 669 -106 626 42 c 0,72,73
 600 133 600 133 578 362 c 1,74,75
 371 127 371 127 228 44 c 1,76,77
 133 -8 133 -8 58 -8 c 0,78,79
 22 -8 22 -8 -9 10 c 0,80,81
 -20 16 -20 16 -20 20 c 128,-1,82
 -20 24 -20 24 -0.5 38.5 c 128,-1,83
 19 53 19 53 27.5 62.5 c 128,-1,0
 36 72 36 72 42 77 c 128,-1,1
EndSplineSet
EndChar

StartChar: Y
Encoding: 89 89 60
Width: 1016
GlyphClass: 2
Flags: W
AnchorPoint: "Anchor-5" 842 1000 basechar 0
AnchorPoint: "Anchor-4" 394 0 basechar 0
LayerCount: 2
Fore
SplineSet
582 -168 m 1,0,1
 332 -293 332 -293 200 -387 c 0,2,3
 48 -496 48 -496 -29 -594 c 0,4,5
 -71 -648 -71 -648 -98.5 -711.5 c 128,-1,6
 -126 -775 -126 -775 -126 -829 c 0,7,8
 -126 -936 -126 -936 -34 -936 c 0,9,10
 169 -936 169 -936 348 -606 c 1,11,12
 514 -309 514 -309 582 -168 c 1,0,1
944 464 m 1,13,14
 889 374 889 374 804 179 c 128,-1,15
 719 -16 719 -16 676 -96 c 1,16,17
 910 14 910 14 1078 142 c 1,18,19
 1115 172 1115 172 1145.5 203.5 c 128,-1,20
 1176 235 1176 235 1184 248 c 0,21,22
 1188 254 1188 254 1192 254 c 128,-1,23
 1196 254 1196 254 1196 251 c 128,-1,24
 1196 248 1196 248 1194 244 c 0,25,26
 1134 169 1134 169 1074.5 120 c 128,-1,27
 1015 71 1015 71 899 1.5 c 128,-1,28
 783 -68 783 -68 658 -130 c 1,29,30
 575 -296 575 -296 396 -598 c 1,31,32
 320 -724 320 -724 212 -832 c 0,33,34
 152 -892 152 -892 80 -929 c 128,-1,35
 8 -966 8 -966 -67.5 -966 c 128,-1,36
 -143 -966 -143 -966 -183.5 -929.5 c 128,-1,37
 -224 -893 -224 -893 -224 -830.5 c 128,-1,38
 -224 -768 -224 -768 -191 -702.5 c 128,-1,39
 -158 -637 -158 -637 -107.5 -581 c 128,-1,40
 -57 -525 -57 -525 19 -465.5 c 128,-1,41
 95 -406 95 -406 164.5 -362 c 128,-1,42
 234 -318 234 -318 323 -269 c 0,43,44
 443 -203 443 -203 600 -130 c 1,45,-1
 766 220 l 1,46,47
 651 112 651 112 607 77 c 1,48,49
 485 -16 485 -16 378 -16 c 0,50,51
 304 -16 304 -16 259 24 c 128,-1,52
 214 64 214 64 214 136 c 0,53,54
 214 190 214 190 258.5 292 c 128,-1,55
 303 394 303 394 357 487 c 0,56,57
 500 733 500 733 500 780 c 0,58,59
 500 815 500 815 479.5 836.5 c 128,-1,60
 459 858 459 858 415.5 858 c 128,-1,61
 372 858 372 858 334.5 841.5 c 128,-1,62
 297 825 297 825 254 782 c 0,63,64
 249 777 249 777 244 771 c 0,65,66
 235 760 235 760 232 760 c 0,67,68
 226 760 226 760 226 767 c 128,-1,69
 226 774 226 774 248 796 c 0,70,71
 335 886 335 886 454 886 c 0,72,73
 514 886 514 886 547 857.5 c 128,-1,74
 580 829 580 829 580 786 c 0,75,76
 580 737 580 737 444 500 c 0,77,78
 393 411 393 411 350.5 311 c 128,-1,79
 308 211 308 211 308 151.5 c 128,-1,80
 308 92 308 92 340 62 c 128,-1,81
 372 32 372 32 424 32 c 0,82,83
 574 32 574 32 798 302 c 1,84,85
 818 345 818 345 851.5 417.5 c 128,-1,86
 885 490 885 490 898 517.5 c 128,-1,87
 911 545 911 545 934.5 594 c 128,-1,88
 958 643 958 643 970 664.5 c 128,-1,89
 982 686 982 686 1000 718 c 0,90,91
 1030 771 1030 771 1056 803 c 0,92,93
 1082 834 1082 834 1088 840 c 0,94,95
 1106 858 1106 858 1123 858 c 128,-1,96
 1140 858 1140 858 1140 850 c 0,97,98
 1140 814 1140 814 1061.5 669 c 128,-1,99
 983 524 983 524 944 464 c 1,13,14
EndSplineSet
EndChar

StartChar: Z
Encoding: 90 90 61
Width: 834
GlyphClass: 2
Flags: W
AnchorPoint: "Anchor-5" 762 1000 basechar 0
AnchorPoint: "Anchor-3" 324 -100 basechar 0
LayerCount: 2
Fore
SplineSet
655 840 m 128,-1,1
 748 818 748 818 798 818 c 128,-1,2
 848 818 848 818 885 822.5 c 128,-1,3
 922 827 922 827 936 833 c 0,4,5
 970 848 970 848 987.5 848 c 128,-1,6
 1005 848 1005 848 1017.5 840.5 c 128,-1,7
 1030 833 1030 833 1030 828 c 128,-1,8
 1030 823 1030 823 1029.5 821.5 c 128,-1,9
 1029 820 1029 820 1027 817.5 c 128,-1,10
 1025 815 1025 815 1022 813 c 128,-1,11
 1019 811 1019 811 1012.5 806.5 c 128,-1,12
 1006 802 1006 802 998 796 c 0,13,14
 973 777 973 777 948 754 c 2,15,-1
 220 84 l 1,16,17
 271 90 271 90 316.5 90 c 128,-1,18
 362 90 362 90 428 67.5 c 128,-1,19
 494 45 494 45 553 12.5 c 128,-1,20
 612 -20 612 -20 672 -52 c 0,21,22
 815 -130 815 -130 930 -130 c 0,23,24
 1016 -130 1016 -130 1076 -94 c 128,-1,25
 1136 -58 1136 -58 1136 -30 c 0,26,27
 1136 -20 1136 -20 1142 -20 c 0,28,29
 1146 -20 1146 -20 1156 -40 c 128,-1,30
 1166 -60 1166 -60 1166 -66 c 1,31,32
 1150 -105 1150 -105 1110 -139 c 0,33,34
 1092 -154 1092 -154 1062.5 -166 c 128,-1,35
 1033 -178 1033 -178 998 -178 c 0,36,37
 919 -178 919 -178 820.5 -145.5 c 128,-1,38
 722 -113 722 -113 644.5 -74 c 128,-1,39
 567 -35 567 -35 477.5 -2.5 c 128,-1,40
 388 30 388 30 327 30 c 128,-1,41
 266 30 266 30 223.5 21.5 c 128,-1,42
 181 13 181 13 158 4.5 c 128,-1,43
 135 -4 135 -4 123.5 -4 c 128,-1,44
 112 -4 112 -4 92.5 5.5 c 128,-1,45
 73 15 73 15 64.5 17 c 128,-1,46
 56 19 56 19 54 19.5 c 128,-1,47
 52 20 52 20 52 24 c 128,-1,48
 52 28 52 28 70 46 c 1,49,-1
 900 796 l 1,50,51
 833 782 833 782 765 782 c 128,-1,52
 697 782 697 782 622.5 801 c 128,-1,53
 548 820 548 820 480.5 820 c 128,-1,54
 413 820 413 820 372 782 c 1,55,56
 352 762 352 762 350 762 c 0,57,58
 344 762 344 762 344 768 c 128,-1,59
 344 774 344 774 366 796 c 0,60,61
 430 862 430 862 538 862 c 0,62,0
 562 862 562 862 655 840 c 128,-1,1
EndSplineSet
EndChar

StartChar: bracketleft
Encoding: 91 91 62
Width: 540
GlyphClass: 2
Flags: W
LayerCount: 2
Fore
SplineSet
364 -126 m 0,0,1
 384 -126 384 -126 384 -134 c 128,-1,2
 384 -142 384 -142 364 -142 c 2,3,-1
 54 -142 l 2,4,5
 44 -142 44 -142 44 -134 c 0,6,7
 44 -130 44 -130 66.5 -86.5 c 128,-1,8
 89 -43 89 -43 92 -38 c 2,9,-1
 618 962 l 1,10,11
 642 1014 642 1014 658 1014 c 2,12,-1
 924 1014 l 2,13,14
 934 1014 934 1014 934 1008 c 0,15,16
 934 998 934 998 914 998 c 0,17,18
 849 998 849 998 778.5 987 c 128,-1,19
 708 976 708 976 698 958 c 2,20,-1
 168 -46 l 2,21,22
 150 -82 150 -82 150 -90 c 128,-1,23
 150 -98 150 -98 179 -106 c 0,24,25
 246 -126 246 -126 364 -126 c 0,0,1
EndSplineSet
EndChar

StartChar: backslash
Encoding: 92 92 63
Width: 356
GlyphClass: 2
Flags: W
LayerCount: 2
Fore
SplineSet
48 1064 m 2,0,1
 48 1067 48 1067 61 1075.5 c 128,-1,2
 74 1084 74 1084 82 1084 c 2,3,-1
 84 1084 l 1,4,-1
 472 -116 l 2,5,6
 472 -119 472 -119 458 -128.5 c 128,-1,7
 444 -138 444 -138 440 -138 c 1,8,-1
 438 -136 l 1,9,-1
 48 1064 l 2,0,1
EndSplineSet
EndChar

StartChar: bracketright
Encoding: 93 93 64
Width: 540
GlyphClass: 2
Flags: W
LayerCount: 2
Fore
SplineSet
462 998 m 0,0,1
 442 998 442 998 442 1006 c 128,-1,2
 442 1014 442 1014 462 1014 c 2,3,-1
 772 1014 l 2,4,5
 782 1014 782 1014 782 1006 c 0,6,7
 782 1002 782 1002 759.5 958.5 c 128,-1,8
 737 915 737 915 734 910 c 2,9,-1
 208 -90 l 1,10,11
 184 -142 184 -142 168 -142 c 2,12,-1
 -98 -142 l 2,13,14
 -108 -142 -108 -142 -108 -136 c 0,15,16
 -108 -126 -108 -126 -88 -126 c 0,17,18
 -23 -126 -23 -126 47.5 -115 c 128,-1,19
 118 -104 118 -104 128 -86 c 2,20,-1
 658 918 l 2,21,22
 676 954 676 954 676 962 c 128,-1,23
 676 970 676 970 647 978 c 0,24,25
 580 998 580 998 462 998 c 0,0,1
EndSplineSet
EndChar

StartChar: asciicircum
Encoding: 94 94 65
Width: 506
GlyphClass: 2
Flags: W
LayerCount: 2
Fore
SplineSet
436 856 m 0,0,1
 442 866 442 866 462.5 877 c 128,-1,2
 483 888 483 888 488 888 c 0,3,4
 489 888 489 888 494 876 c 0,5,6
 530 791 530 791 575 718 c 128,-1,7
 620 645 620 645 646 611 c 128,-1,8
 672 577 672 577 672 576 c 0,9,10
 672 568 672 568 648.5 556 c 128,-1,11
 625 544 625 544 616 544 c 1,12,13
 514 686 514 686 450 828 c 1,14,15
 351 703 351 703 272 580 c 0,16,17
 269 574 269 574 247.5 562 c 128,-1,18
 226 550 226 550 222 550 c 128,-1,19
 218 550 218 550 218 552 c 128,-1,20
 218 554 218 554 220 555 c 0,21,22
 269 604 269 604 436 856 c 0,0,1
EndSplineSet
EndChar

StartChar: underscore
Encoding: 95 95 66
Width: 634
GlyphClass: 2
Flags: W
LayerCount: 2
Fore
SplineSet
602 -100 m 2,0,-1
 -32 -100 l 2,1,2
 -40 -100 -40 -100 -40 -97 c 128,-1,3
 -40 -94 -40 -94 -39 -93 c 128,-1,4
 -38 -92 -38 -92 -36.5 -91.5 c 128,-1,5
 -35 -91 -35 -91 -32.5 -88.5 c 128,-1,6
 -30 -86 -30 -86 -25 -77 c 0,7,8
 -16 -60 -16 -60 10 -60 c 2,9,-1
 644 -60 l 2,10,11
 650 -60 650 -60 650 -70.5 c 128,-1,12
 650 -81 650 -81 634.5 -90.5 c 128,-1,13
 619 -100 619 -100 602 -100 c 2,0,-1
EndSplineSet
EndChar

StartChar: grave
Encoding: 96 96 67
Width: 252
GlyphClass: 2
Flags: W
LayerCount: 2
Fore
SplineSet
410 553 m 128,-1,1
 412 549 412 549 412 547.5 c 128,-1,2
 412 546 412 546 406 546 c 128,-1,3
 400 546 400 546 396 554 c 2,4,5
 396 554 396 554 284 738 c 0,6,7
 282 740 282 740 282 751.5 c 128,-1,8
 282 763 282 763 288 775.5 c 128,-1,9
 294 788 294 788 302.5 788 c 128,-1,10
 311 788 311 788 316 778 c 2,11,-1
 402 570 l 2,12,13
 403 568 403 568 405.5 562.5 c 128,-1,0
 408 557 408 557 410 553 c 128,-1,1
EndSplineSet
EndChar

StartChar: a
Encoding: 97 97 68
Width: 612
GlyphClass: 2
Flags: W
AnchorPoint: "Anchor-5" 480 548 basechar 0
AnchorPoint: "Anchor-4" 428 -2 basechar 0
AnchorPoint: "Anchor-3" 168 -100 basechar 0
LayerCount: 2
Fore
SplineSet
434 168 m 1,0,1
 536 270 536 270 536 304 c 0,2,3
 536 312 536 312 528 312 c 0,4,5
 508 312 508 312 434 168 c 1,0,1
414 438 m 0,6,7
 351 438 351 438 285.5 382 c 128,-1,8
 220 326 220 326 180 248 c 128,-1,9
 140 170 140 170 140 102 c 128,-1,10
 140 34 140 34 196 34 c 0,11,12
 258 34 258 34 334 90 c 1,13,14
 355 164 355 164 420 252 c 1,15,16
 480 337 480 337 520 352 c 1,17,18
 486 438 486 438 414 438 c 0,6,7
410 462 m 0,19,20
 506 462 506 462 536 356 c 1,21,22
 562 356 562 356 562 334 c 0,23,24
 562 307 562 307 553 289.5 c 128,-1,25
 544 272 544 272 539.5 263.5 c 128,-1,26
 535 255 535 255 524 242 c 0,27,28
 512 229 512 229 508 224 c 0,29,30
 467 178 467 178 422 138 c 1,31,32
 406 86 406 86 406 68 c 0,33,34
 406 26 406 26 473 26 c 128,-1,35
 540 26 540 26 639.5 106 c 128,-1,36
 739 186 739 186 780 248 c 0,37,38
 784 254 784 254 788 254 c 128,-1,39
 792 254 792 254 792 251 c 128,-1,40
 792 248 792 248 790 244 c 0,41,42
 736 172 736 172 682.5 125 c 128,-1,43
 629 78 629 78 551.5 33 c 128,-1,44
 474 -12 474 -12 410 -12 c 0,45,46
 330 -12 330 -12 330 52 c 0,47,48
 330 55 330 55 331 61 c 128,-1,49
 332 67 332 67 332 70 c 1,50,51
 219 0 219 0 146 0 c 0,52,53
 62 0 62 0 62 102 c 0,54,55
 62 176 62 176 114.5 260.5 c 128,-1,56
 167 345 167 345 249.5 403.5 c 128,-1,57
 332 462 332 462 410 462 c 0,19,20
EndSplineSet
EndChar

StartChar: b
Encoding: 98 98 69
Width: 662
GlyphClass: 2
Flags: W
AnchorPoint: "Anchor-5" 650 548 basechar 0
AnchorPoint: "Anchor-3" 176 -100 basechar 0
LayerCount: 2
Fore
SplineSet
282 350 m 1,0,1
 210 229 210 229 210 144 c 0,2,3
 210 93 210 93 243 56.5 c 128,-1,4
 276 20 276 20 327 20 c 128,-1,5
 378 20 378 20 446.5 73 c 128,-1,6
 515 126 515 126 562.5 209.5 c 128,-1,7
 610 293 610 293 610 372 c 0,8,9
 610 419 610 419 581.5 438.5 c 128,-1,10
 553 458 553 458 520 458 c 0,11,12
 432 458 432 458 282 350 c 1,0,1
328 538 m 1,13,14
 124 391 124 391 123 392 c 1,15,16
 120 392 120 392 120 396 c 128,-1,17
 120 400 120 400 126 404 c 0,18,19
 307 535 307 535 342 564 c 1,20,-1
 516 894 l 2,21,22
 528 916 528 916 562.5 981.5 c 128,-1,23
 597 1047 597 1047 612 1074.5 c 128,-1,24
 627 1102 627 1102 660 1156 c 0,25,26
 692 1210 692 1210 718 1241 c 0,27,28
 790 1329 790 1329 858 1376 c 1,29,30
 927 1428 927 1428 982 1428 c 0,31,32
 1000 1428 1000 1428 1008 1413 c 128,-1,33
 1016 1398 1016 1398 1016 1384 c 0,34,35
 1016 1218 1016 1218 867 1033 c 0,36,37
 817 971 817 971 772 923 c 0,38,39
 728 875 728 875 660 814 c 0,40,41
 576 738 576 738 426 616 c 1,42,-1
 298 380 l 1,43,44
 467 498 467 498 584 498 c 0,45,46
 623 498 623 498 650.5 473.5 c 128,-1,47
 678 449 678 449 678 408 c 0,48,49
 678 347 678 347 638 270.5 c 128,-1,50
 598 194 598 194 538.5 130.5 c 128,-1,51
 479 67 479 67 406 23.5 c 128,-1,52
 333 -20 333 -20 272.5 -20 c 128,-1,53
 212 -20 212 -20 174 18.5 c 128,-1,54
 136 57 136 57 136 120.5 c 128,-1,55
 136 184 136 184 168 252.5 c 128,-1,56
 200 321 200 321 328 538 c 1,13,14
442 648 m 1,57,58
 524 716 524 716 585.5 771.5 c 128,-1,59
 647 827 647 827 716.5 902 c 128,-1,60
 786 977 786 977 831 1043.5 c 128,-1,61
 876 1110 876 1110 906 1188.5 c 128,-1,62
 936 1267 936 1267 936 1340 c 0,63,64
 936 1357 936 1357 929 1368.5 c 128,-1,65
 922 1380 922 1380 910 1380 c 0,66,67
 865 1380 865 1380 776 1251.5 c 128,-1,68
 687 1123 687 1123 588 932 c 2,69,-1
 442 648 l 1,57,58
EndSplineSet
EndChar

StartChar: c
Encoding: 99 99 70
Width: 468
GlyphClass: 2
Flags: W
AnchorPoint: "Anchor-5" 408 548 basechar 0
AnchorPoint: "Anchor-4" 204 0 basechar 0
AnchorPoint: "Anchor-3" 152 -100 basechar 0
LayerCount: 2
Fore
SplineSet
177 244.5 m 128,-1,1
 144 171 144 171 144 117.5 c 128,-1,2
 144 64 144 64 167.5 33 c 128,-1,3
 191 2 191 2 254 2 c 128,-1,4
 317 2 317 2 395.5 44 c 128,-1,5
 474 86 474 86 539.5 143.5 c 128,-1,6
 605 201 605 201 636 248 c 0,7,8
 640 254 640 254 644 254 c 128,-1,9
 648 254 648 254 648 251 c 128,-1,10
 648 248 648 248 646 244 c 0,11,12
 603 187 603 187 546 136 c 0,13,14
 370 -22 370 -22 216 -22 c 0,15,16
 152 -22 152 -22 110 6 c 128,-1,17
 68 34 68 34 68 94 c 0,18,19
 68 156 68 156 107 228 c 0,20,21
 145 299 145 299 198.5 350.5 c 128,-1,22
 252 402 252 402 309.5 435 c 128,-1,23
 367 468 367 468 399.5 468 c 128,-1,24
 432 468 432 468 446 452 c 128,-1,25
 460 436 460 436 460 413.5 c 128,-1,26
 460 391 460 391 454 382.5 c 128,-1,27
 448 374 448 374 425 362 c 128,-1,28
 402 350 402 350 396 350 c 128,-1,29
 390 350 390 350 390 352 c 256,30,31
 390 354 390 354 391 356 c 0,32,33
 394 364 394 364 394 382 c 128,-1,34
 394 400 394 400 379 414 c 128,-1,35
 364 428 364 428 348 428 c 0,36,37
 308 428 308 428 259 373 c 128,-1,0
 210 318 210 318 177 244.5 c 128,-1,1
EndSplineSet
EndChar

StartChar: d
Encoding: 100 100 71
Width: 682
GlyphClass: 2
Flags: W
AnchorPoint: "Anchor-5" 450 548 basechar 0
AnchorPoint: "Anchor-4" 224 0 basechar 0
AnchorPoint: "Anchor-3" 200 -100 basechar 0
AnchorPoint: "Anchor-1" 1244 1166 basechar 0
LayerCount: 2
Fore
SplineSet
530 326 m 1,0,-1
 476 214 l 1,1,2
 578 326 578 326 722.5 511 c 128,-1,3
 867 696 867 696 932 805 c 128,-1,4
 997 914 997 914 1065.5 1064 c 128,-1,5
 1134 1214 1134 1214 1134 1274 c 0,6,7
 1134 1302 1134 1302 1116 1302 c 0,8,9
 1081 1302 1081 1302 1030 1247 c 128,-1,10
 979 1192 979 1192 927 1106 c 0,11,12
 836 954 836 954 772 822 c 2,13,-1
 540 344 l 1,14,15
 542 336 542 336 542 328 c 128,-1,16
 542 320 542 320 536 320 c 0,17,18
 533 320 533 320 530 326 c 1,0,-1
502 388 m 1,19,20
 470 438 470 438 410.5 438 c 128,-1,21
 351 438 351 438 285.5 382 c 128,-1,22
 220 326 220 326 180 248 c 128,-1,23
 140 170 140 170 140 102 c 128,-1,24
 140 34 140 34 196 34 c 0,25,26
 271 34 271 34 386 130 c 1,27,28
 403 191 403 191 502 388 c 1,19,20
512 410 m 1,29,-1
 702 792 l 1,30,31
 790 972 790 972 820.5 1019 c 128,-1,32
 851 1066 851 1066 883.5 1113.5 c 128,-1,33
 916 1161 916 1161 944 1191 c 0,34,35
 1021 1272 1021 1272 1086 1310 c 0,36,37
 1120 1330 1120 1330 1142 1330 c 0,38,39
 1178 1330 1178 1330 1178 1280 c 0,40,41
 1178 1166 1178 1166 1119 1040.5 c 128,-1,42
 1060 915 1060 915 960 772 c 1,43,44
 892 673 892 673 721.5 470 c 128,-1,45
 551 267 551 267 464 180 c 1,46,47
 444 129 444 129 444 90 c 0,48,49
 444 26 444 26 515 26 c 128,-1,50
 586 26 586 26 687.5 105.5 c 128,-1,51
 789 185 789 185 830 248 c 0,52,53
 834 254 834 254 838 254 c 128,-1,54
 842 254 842 254 842 251 c 128,-1,55
 842 248 842 248 840 244 c 0,56,57
 786 172 786 172 732.5 125 c 128,-1,58
 679 78 679 78 605.5 35 c 128,-1,59
 532 -8 532 -8 480.5 -8 c 128,-1,60
 429 -8 429 -8 403.5 15.5 c 128,-1,61
 378 39 378 39 378 78 c 0,62,63
 378 96 378 96 382 112 c 1,64,65
 247 0 247 0 146 0 c 0,66,67
 62 0 62 0 62 102 c 0,68,69
 62 176 62 176 114.5 260.5 c 128,-1,70
 167 345 167 345 249.5 403.5 c 128,-1,71
 332 462 332 462 404 462 c 128,-1,72
 476 462 476 462 512 410 c 1,29,-1
EndSplineSet
EndChar

StartChar: e
Encoding: 101 101 72
Width: 434
GlyphClass: 2
Flags: W
AnchorPoint: "Anchor-5" 414 548 basechar 0
AnchorPoint: "Anchor-4" 210 0 basechar 0
AnchorPoint: "Anchor-3" 158 -100 basechar 0
LayerCount: 2
Fore
SplineSet
68 128 m 1,0,-1
 28 96 l 1,1,2
 26 96 26 96 26 100 c 128,-1,3
 26 104 26 104 33 111 c 128,-1,4
 40 118 40 118 72 142 c 1,5,6
 95 214 95 214 141 278 c 128,-1,7
 187 342 187 342 235 381.5 c 128,-1,8
 283 421 283 421 326 443.5 c 128,-1,9
 369 466 369 466 394 466 c 0,10,11
 446 466 446 466 446 426 c 0,12,13
 446 411 446 411 435 395.5 c 128,-1,14
 424 380 424 380 394.5 357 c 128,-1,15
 365 334 365 334 338.5 315.5 c 128,-1,16
 312 297 312 297 254.5 258 c 128,-1,17
 197 219 197 219 156 190 c 1,18,19
 138 139 138 139 138 95.5 c 128,-1,20
 138 52 138 52 161.5 31 c 128,-1,21
 185 10 185 10 240.5 10 c 128,-1,22
 296 10 296 10 368.5 49 c 128,-1,23
 441 88 441 88 506 144.5 c 128,-1,24
 571 201 571 201 602 248 c 0,25,26
 606 254 606 254 610 254 c 128,-1,27
 614 254 614 254 614 251 c 128,-1,28
 614 248 614 248 612 244 c 0,29,30
 501 100 501 100 344 20 c 1,31,32
 268 -16 268 -16 196 -16 c 0,33,34
 60 -16 60 -16 60 78 c 0,35,36
 60 92 60 92 68 128 c 1,0,-1
164 208 m 1,37,38
 282 293 282 293 332 339.5 c 128,-1,39
 382 386 382 386 382 412 c 128,-1,40
 382 438 382 438 360 438 c 0,41,42
 311 438 311 438 255 367.5 c 128,-1,43
 199 297 199 297 164 208 c 1,37,38
EndSplineSet
EndChar

StartChar: f
Encoding: 102 102 73
Width: 400
GlyphClass: 2
Flags: W
AnchorPoint: "Anchor-5" 1074 1576 basechar 0
LayerCount: 2
Fore
SplineSet
76 66 m 1,0,1
 -440 -314 -440 -314 -648 -560 c 0,2,3
 -715 -640 -715 -640 -747 -688.5 c 128,-1,4
 -779 -737 -779 -737 -797 -784.5 c 128,-1,5
 -815 -832 -815 -832 -817.5 -851.5 c 128,-1,6
 -820 -871 -820 -871 -820 -896.5 c 128,-1,7
 -820 -922 -820 -922 -815 -959 c 128,-1,8
 -810 -996 -810 -996 -799.5 -1040.5 c 128,-1,9
 -789 -1085 -789 -1085 -766 -1115.5 c 128,-1,10
 -743 -1146 -743 -1146 -712 -1146 c 0,11,12
 -669 -1146 -669 -1146 -586.5 -1083.5 c 128,-1,13
 -504 -1021 -504 -1021 -466 -960 c 1,14,15
 -383 -831 -383 -831 -195.5 -457 c 128,-1,16
 -8 -83 -8 -83 76 66 c 1,0,1
526 404 m 2,17,18
 535 410 535 410 537.5 410 c 128,-1,19
 540 410 540 410 540 406 c 128,-1,20
 540 402 540 402 534 398 c 0,21,22
 468 357 468 357 196 158 c 1,23,24
 -378 -908 -378 -908 -450 -994.5 c 128,-1,25
 -522 -1081 -522 -1081 -620.5 -1138.5 c 128,-1,26
 -719 -1196 -719 -1196 -756.5 -1196 c 128,-1,27
 -794 -1196 -794 -1196 -820 -1164 c 1,28,29
 -847 -1134 -847 -1134 -860 -1084 c 0,30,31
 -884 -993 -884 -993 -884 -892 c 0,32,33
 -884 -782 -884 -782 -788 -652 c 0,34,35
 -740 -588 -740 -588 -686.5 -527.5 c 128,-1,36
 -633 -467 -633 -467 -555.5 -398 c 128,-1,37
 -478 -329 -478 -329 -415.5 -276 c 128,-1,38
 -353 -223 -353 -223 -266.5 -157.5 c 128,-1,39
 -180 -92 -180 -92 -128.5 -54.5 c 128,-1,40
 -77 -17 -77 -17 -0.5 37.5 c 128,-1,41
 76 92 76 92 98 108 c 1,42,43
 179 277 179 277 392 678.5 c 128,-1,44
 605 1080 605 1080 708 1234 c 128,-1,45
 811 1388 811 1388 891 1448 c 128,-1,46
 971 1508 971 1508 1064 1508 c 0,47,48
 1096 1508 1096 1508 1118 1486 c 0,49,50
 1152 1450 1152 1450 1152 1406 c 128,-1,51
 1152 1362 1152 1362 1142 1334.5 c 128,-1,52
 1132 1307 1132 1307 1108 1268 c 1,53,54
 1100 1252 1100 1252 1069 1238 c 0,55,56
 1052 1231 1052 1231 1046 1231 c 0,57,58
 1043 1231 1043 1231 1043 1233 c 0,59,60
 1043 1234 1043 1234 1044 1236 c 0,61,62
 1067 1273 1067 1273 1075.5 1299.5 c 128,-1,63
 1084 1326 1084 1326 1084 1366 c 128,-1,64
 1084 1406 1084 1406 1060 1437 c 128,-1,65
 1036 1468 1036 1468 1003.5 1468 c 128,-1,66
 971 1468 971 1468 941.5 1455 c 128,-1,67
 912 1442 912 1442 876.5 1404.5 c 128,-1,68
 841 1367 841 1367 807.5 1319.5 c 128,-1,69
 774 1272 774 1272 724 1183 c 0,70,71
 629 1016 629 1016 496 754 c 2,72,-1
 212 190 l 1,73,-1
 526 404 l 2,17,18
EndSplineSet
EndChar

StartChar: g
Encoding: 103 103 74
Width: 580
GlyphClass: 2
Flags: W
AnchorPoint: "Anchor-5" 478 548 basechar 0
LayerCount: 2
Fore
SplineSet
544 322 m 1,0,1
 517 370 517 370 477 404 c 128,-1,2
 437 438 437 438 389.5 438 c 128,-1,3
 342 438 342 438 283.5 385.5 c 128,-1,4
 225 333 225 333 181.5 250 c 128,-1,5
 138 167 138 167 138 92 c 0,6,7
 138 69 138 69 155 51.5 c 128,-1,8
 172 34 172 34 196 34 c 0,9,10
 304 34 304 34 474 210 c 0,11,12
 497 233 497 233 544 322 c 1,0,1
-325 -1026 m 128,-1,14
 -418 -1066 -418 -1066 -505 -1066 c 128,-1,15
 -592 -1066 -592 -1066 -660 -1034.5 c 128,-1,16
 -728 -1003 -728 -1003 -775 -938 c 128,-1,17
 -822 -873 -822 -873 -822 -787 c 128,-1,18
 -822 -701 -822 -701 -787 -621.5 c 128,-1,19
 -752 -542 -752 -542 -692.5 -480 c 128,-1,20
 -633 -418 -633 -418 -554.5 -363.5 c 128,-1,21
 -476 -309 -476 -309 -390 -267.5 c 128,-1,22
 -304 -226 -304 -226 -216 -191 c 0,23,24
 -84 -139 -84 -139 98 -84 c 1,25,26
 103 -80 103 -80 116.5 -80 c 128,-1,27
 130 -80 130 -80 130 -90 c 128,-1,28
 130 -100 130 -100 109 -107.5 c 128,-1,29
 88 -115 88 -115 19.5 -135.5 c 128,-1,30
 -49 -156 -49 -156 -99.5 -172.5 c 128,-1,31
 -150 -189 -150 -189 -245 -225 c 128,-1,32
 -340 -261 -340 -261 -399 -292 c 128,-1,33
 -458 -323 -458 -323 -533 -373.5 c 128,-1,34
 -608 -424 -608 -424 -650.5 -476 c 128,-1,35
 -693 -528 -693 -528 -723.5 -599 c 128,-1,36
 -754 -670 -754 -670 -754 -748 c 0,37,38
 -754 -866 -754 -866 -668.5 -947 c 128,-1,39
 -583 -1028 -583 -1028 -468 -1028 c 128,-1,40
 -353 -1028 -353 -1028 -230 -918 c 128,-1,41
 -107 -808 -107 -808 -10 -634 c 0,42,43
 218 -227 218 -227 460 178 c 1,44,45
 391 104 391 104 303 52 c 128,-1,46
 215 0 215 0 142 0 c 0,47,48
 62 0 62 0 62 104 c 0,49,50
 62 173 62 173 113 258 c 128,-1,51
 164 343 164 343 242 403.5 c 128,-1,52
 320 464 320 464 388 464 c 0,53,54
 490 464 490 464 550 332 c 1,55,-1
 556 344 l 2,56,57
 567 364 567 364 584 368 c 0,58,59
 592 370 592 370 596 373 c 128,-1,60
 600 376 600 376 604 376 c 0,61,62
 606 376 606 376 606 370 c 128,-1,63
 606 364 606 364 602 360 c 128,-1,64
 598 356 598 356 564 298 c 1,65,66
 570 286 570 286 570 279 c 128,-1,67
 570 272 570 272 566 272 c 1,68,-1
 558 288 l 1,69,-1
 66 -626 l 2,70,71
 -25 -793 -25 -793 -159 -918 c 0,72,13
 -232 -986 -232 -986 -325 -1026 c 128,-1,14
EndSplineSet
EndChar

StartChar: h
Encoding: 104 104 75
Width: 670
GlyphClass: 2
Flags: W
AnchorPoint: "Anchor-5" 998 1520 basechar 0
AnchorPoint: "Anchor-4" 82 0 basechar 0
AnchorPoint: "Anchor-3" 226 -100 basechar 0
LayerCount: 2
Fore
SplineSet
442 648 m 1,0,1
 524 716 524 716 585.5 771.5 c 128,-1,2
 647 827 647 827 716.5 902 c 128,-1,3
 786 977 786 977 831 1043.5 c 128,-1,4
 876 1110 876 1110 906 1188.5 c 128,-1,5
 936 1267 936 1267 936 1340 c 0,6,7
 936 1357 936 1357 929 1368.5 c 128,-1,8
 922 1380 922 1380 910 1380 c 0,9,10
 865 1380 865 1380 776 1251.5 c 128,-1,11
 687 1123 687 1123 588 932 c 2,12,-1
 442 648 l 1,0,1
328 538 m 1,13,14
 124 391 124 391 123 392 c 1,15,16
 120 392 120 392 120 396 c 128,-1,17
 120 400 120 400 126 404 c 0,18,19
 307 535 307 535 342 564 c 1,20,-1
 516 894 l 2,21,22
 525 911 525 911 555 969 c 128,-1,23
 585 1027 585 1027 597.5 1049 c 128,-1,24
 610 1071 610 1071 637.5 1120 c 128,-1,25
 665 1169 665 1169 685 1195.5 c 128,-1,26
 705 1222 705 1222 734 1259 c 0,27,28
 786 1325 786 1325 858 1376 c 1,29,30
 927 1428 927 1428 982 1428 c 0,31,32
 1000 1428 1000 1428 1008 1413 c 128,-1,33
 1016 1398 1016 1398 1016 1384 c 0,34,35
 1016 1218 1016 1218 867 1033 c 0,36,37
 817 971 817 971 772 923 c 0,38,39
 728 875 728 875 660 814 c 0,40,41
 576 738 576 738 426 616 c 1,42,-1
 284 330 l 1,43,44
 326 372 326 372 377.5 411 c 128,-1,45
 429 450 429 450 457 467 c 0,46,47
 525 508 525 508 574 508 c 0,48,49
 606 508 606 508 626 485 c 128,-1,50
 646 462 646 462 646 422.5 c 128,-1,51
 646 383 646 383 612 317.5 c 128,-1,52
 578 252 578 252 544 182 c 128,-1,53
 510 112 510 112 510 60 c 0,54,55
 510 26 510 26 540 26 c 0,56,57
 573 26 573 26 633.5 62.5 c 128,-1,58
 694 99 694 99 752.5 150 c 128,-1,59
 811 201 811 201 842 248 c 0,60,61
 846 254 846 254 850 254 c 128,-1,62
 854 254 854 254 854 251 c 128,-1,63
 854 248 854 248 852 244 c 0,64,65
 798 172 798 172 744.5 125 c 128,-1,66
 691 78 691 78 617.5 35 c 128,-1,67
 544 -8 544 -8 496 -8 c 0,68,69
 428 -8 428 -8 428 66 c 0,70,71
 428 114 428 114 465 188 c 128,-1,72
 502 262 502 262 539 328 c 128,-1,73
 576 394 576 394 576 417 c 128,-1,74
 576 440 576 440 564 454 c 128,-1,75
 552 468 552 468 532 468 c 0,76,77
 479 468 479 468 388 388.5 c 128,-1,78
 297 309 297 309 262 256 c 0,79,80
 151 91 151 91 134 6 c 0,81,82
 132 -2 132 -2 114 -2 c 128,-1,83
 96 -2 96 -2 84 -5 c 128,-1,84
 72 -8 72 -8 70 -8 c 0,85,86
 52 -8 52 -8 52 6 c 0,87,88
 52 16 52 16 95 101 c 128,-1,89
 138 186 138 186 172 248 c 1,90,91
 293 479 293 479 328 538 c 1,13,14
EndSplineSet
EndChar

StartChar: i
Encoding: 105 105 76
Width: 374
GlyphClass: 2
Flags: W
AnchorPoint: "Anchor-4" 162 0 basechar 0
AnchorPoint: "Anchor-3" 116 -100 basechar 0
LayerCount: 2
Fore
SplineSet
134 398 m 0,0,1
 125 392 125 392 122.5 392 c 128,-1,2
 120 392 120 392 120 396 c 128,-1,3
 120 400 120 400 126 404 c 0,4,5
 190 448 190 448 236 448 c 0,6,7
 304 448 304 448 304 386 c 0,8,9
 304 364 304 364 270 304.5 c 128,-1,10
 236 245 236 245 202 180 c 128,-1,11
 168 115 168 115 168 78 c 0,12,13
 168 26 168 26 238 26 c 0,14,15
 272 26 272 26 327.5 58 c 128,-1,16
 383 90 383 90 425 125 c 128,-1,17
 467 160 467 160 499 195 c 128,-1,18
 531 230 531 230 538.5 242 c 128,-1,19
 546 254 546 254 550 254 c 128,-1,20
 554 254 554 254 554 251 c 128,-1,21
 554 248 554 248 552 244 c 0,22,23
 503 178 503 178 444 126 c 1,24,25
 380 65 380 65 304 28.5 c 128,-1,26
 228 -8 228 -8 183 -8 c 128,-1,27
 138 -8 138 -8 113 12 c 128,-1,28
 88 32 88 32 88 72 c 128,-1,29
 88 112 88 112 125 180 c 128,-1,30
 162 248 162 248 199 306.5 c 128,-1,31
 236 365 236 365 236 384.5 c 128,-1,32
 236 404 236 404 227.5 415 c 128,-1,33
 219 426 219 426 206 426 c 0,34,35
 176 426 176 426 134 398 c 0,0,1
358 666 m 0,36,37
 358 688 358 688 378 712 c 1,38,39
 396 736 396 736 414 736 c 128,-1,40
 432 736 432 736 441 725.5 c 128,-1,41
 450 715 450 715 450 696 c 128,-1,42
 450 677 450 677 432 653.5 c 128,-1,43
 414 630 414 630 390 630 c 0,44,45
 358 630 358 630 358 666 c 0,36,37
EndSplineSet
EndChar

StartChar: j
Encoding: 106 106 77
Width: 348
GlyphClass: 2
Flags: W
LayerCount: 2
Fore
SplineSet
20 -42 m 1,0,1
 -14 -48 -14 -48 -98 -62 c 0,2,3
 -266 -90 -266 -90 -351.5 -118.5 c 128,-1,4
 -437 -147 -437 -147 -518.5 -186.5 c 128,-1,5
 -600 -226 -600 -226 -679 -282 c 128,-1,6
 -758 -338 -758 -338 -816 -402.5 c 128,-1,7
 -874 -467 -874 -467 -910 -549 c 128,-1,8
 -946 -631 -946 -631 -946 -726.5 c 128,-1,9
 -946 -822 -946 -822 -881.5 -897 c 128,-1,10
 -817 -972 -817 -972 -710 -972 c 0,11,12
 -661 -972 -661 -972 -608 -947.5 c 128,-1,13
 -555 -923 -555 -923 -511 -884 c 0,14,15
 -468 -846 -468 -846 -424 -796 c 0,16,17
 -347 -706 -347 -706 -292 -606 c 2,18,-1
 20 -42 l 1,0,1
298 446 m 0,19,20
 322 446 322 446 322 426 c 0,21,22
 322 402 322 402 241.5 243.5 c 128,-1,23
 161 85 161 85 106 -8 c 1,24,25
 174 8 174 8 263 47.5 c 128,-1,26
 352 87 352 87 419 145 c 128,-1,27
 486 203 486 203 516 248 c 0,28,29
 520 254 520 254 524 254 c 128,-1,30
 528 254 528 254 528 251 c 128,-1,31
 528 248 528 248 526 244 c 0,32,33
 476 179 476 179 426 134 c 0,34,35
 300 23 300 23 96 -28 c 1,36,-1
 -240 -598 l 1,37,38
 -327 -748 -327 -748 -451 -866 c 0,39,40
 -517 -928 -517 -928 -597.5 -964 c 128,-1,41
 -678 -1000 -678 -1000 -762 -1000 c 0,42,43
 -872 -1000 -872 -1000 -949 -927.5 c 128,-1,44
 -1026 -855 -1026 -855 -1026 -744 c 0,45,46
 -1026 -590 -1026 -590 -942 -468 c 0,47,48
 -832 -307 -832 -307 -612 -197 c 0,49,50
 -425 -104 -425 -104 -229 -66 c 0,51,52
 -163 -54 -163 -54 -84.5 -42.5 c 128,-1,53
 -6 -31 -6 -31 30 -24 c 1,54,55
 232 356 232 356 232 406 c 0,56,57
 232 420 232 420 199.5 420 c 128,-1,58
 167 420 167 420 134 398 c 0,59,60
 125 392 125 392 122.5 392 c 128,-1,61
 120 392 120 392 120 396 c 128,-1,62
 120 400 120 400 126 404 c 0,63,64
 189 446 189 446 298 446 c 0,19,20
358 666 m 0,65,66
 358 688 358 688 378 712 c 1,67,68
 396 736 396 736 414 736 c 128,-1,69
 432 736 432 736 441 725.5 c 128,-1,70
 450 715 450 715 450 696 c 128,-1,71
 450 677 450 677 432 653.5 c 128,-1,72
 414 630 414 630 390 630 c 0,73,74
 358 630 358 630 358 666 c 0,65,66
EndSplineSet
EndChar

StartChar: k
Encoding: 107 107 78
Width: 574
GlyphClass: 2
Flags: W
AnchorPoint: "Anchor-5" 998 1520 basechar 0
AnchorPoint: "Anchor-3" 146 -100 basechar 0
LayerCount: 2
Fore
SplineSet
442 648 m 1,0,1
 524 716 524 716 585.5 771.5 c 128,-1,2
 647 827 647 827 716.5 902 c 128,-1,3
 786 977 786 977 831 1043.5 c 128,-1,4
 876 1110 876 1110 906 1188.5 c 128,-1,5
 936 1267 936 1267 936 1340 c 0,6,7
 936 1357 936 1357 929 1368.5 c 128,-1,8
 922 1380 922 1380 910 1380 c 0,9,10
 865 1380 865 1380 776 1251.5 c 128,-1,11
 687 1123 687 1123 588 932 c 2,12,-1
 442 648 l 1,0,1
556 406 m 1,13,14
 542 410 542 410 528 410 c 0,15,16
 476 410 476 410 411.5 375.5 c 128,-1,17
 347 341 347 341 298.5 282 c 128,-1,18
 250 223 250 223 250 164 c 0,19,20
 250 118 250 118 270 74 c 0,21,22
 282 48 282 48 311.5 32 c 128,-1,23
 341 16 341 16 384 16 c 0,24,25
 499 16 499 16 644 142 c 0,26,27
 711 201 711 201 742 248 c 0,28,29
 746 254 746 254 750 254 c 128,-1,30
 754 254 754 254 754 251 c 128,-1,31
 754 248 754 248 752 244 c 0,32,33
 706 182 706 182 656 138 c 1,34,35
 500 -18 500 -18 344 -18 c 0,36,37
 263 -18 263 -18 222.5 21 c 128,-1,38
 182 60 182 60 182 128 c 1,39,-1
 184 144 l 1,40,41
 174 126 174 126 158 96 c 2,42,-1
 131 46 l 2,43,44
 120 26 120 26 116 14 c 1,45,46
 110 4 110 4 98 1.5 c 128,-1,47
 86 -1 86 -1 69 -5.5 c 128,-1,48
 52 -10 52 -10 50 -10 c 0,49,50
 34 -10 34 -10 34 -3 c 0,51,52
 34 10 34 10 60 54 c 1,53,-1
 168 248 l 1,54,55
 178 262 178 262 328 538 c 1,56,57
 124 391 124 391 123 392 c 1,58,59
 120 392 120 392 120 396 c 128,-1,60
 120 400 120 400 126 404 c 0,61,62
 307 535 307 535 342 564 c 1,63,-1
 516 894 l 2,64,65
 525 911 525 911 555 969 c 128,-1,66
 585 1027 585 1027 597.5 1049 c 128,-1,67
 610 1071 610 1071 637.5 1120 c 128,-1,68
 665 1169 665 1169 685 1195.5 c 128,-1,69
 705 1222 705 1222 734 1259 c 0,70,71
 786 1325 786 1325 858 1376 c 1,72,73
 927 1428 927 1428 982 1428 c 0,74,75
 1000 1428 1000 1428 1008 1413 c 128,-1,76
 1016 1398 1016 1398 1016 1384 c 0,77,78
 1016 1218 1016 1218 867 1033 c 0,79,80
 817 971 817 971 772 923 c 0,81,82
 728 875 728 875 660 814 c 0,83,84
 576 738 576 738 426 616 c 1,85,-1
 254 274 l 1,86,87
 331 355 331 355 430.5 402.5 c 128,-1,88
 530 450 530 450 588 450 c 0,89,90
 620 450 620 450 620 443.5 c 128,-1,91
 620 437 620 437 595.5 421.5 c 128,-1,92
 571 406 571 406 556 406 c 1,13,14
EndSplineSet
EndChar

StartChar: l
Encoding: 108 108 79
Width: 436
GlyphClass: 2
Flags: W
AnchorPoint: "Anchor-5" 998 1520 basechar 0
AnchorPoint: "Anchor-3" 96 -100 basechar 0
AnchorPoint: "Anchor-1" 1084 1206 basechar 0
AnchorPoint: "Anchor-0" 456 400 basechar 0
LayerCount: 2
Fore
SplineSet
436 648 m 1,0,1
 518 716 518 716 579.5 771.5 c 128,-1,2
 641 827 641 827 710.5 902 c 128,-1,3
 780 977 780 977 825 1043.5 c 128,-1,4
 870 1110 870 1110 900 1188.5 c 128,-1,5
 930 1267 930 1267 930 1340 c 0,6,7
 930 1357 930 1357 923 1368.5 c 128,-1,8
 916 1380 916 1380 904 1380 c 0,9,10
 859 1380 859 1380 770 1251.5 c 128,-1,11
 681 1123 681 1123 582 932 c 2,12,-1
 436 648 l 1,0,1
322 538 m 1,13,14
 221 465 221 465 184 436 c 0,15,16
 128 392 128 392 124 392 c 128,-1,17
 120 392 120 392 120 396 c 128,-1,18
 120 400 120 400 126 404 c 0,19,20
 248 492 248 492 336 564 c 1,21,-1
 510 894 l 2,22,23
 521 915 521 915 554.5 981.5 c 128,-1,24
 588 1048 588 1048 602 1075 c 128,-1,25
 616 1102 616 1102 649 1156 c 128,-1,26
 682 1210 682 1210 708 1241 c 0,27,28
 778 1327 778 1327 852 1376 c 1,29,30
 921 1428 921 1428 976 1428 c 0,31,32
 994 1428 994 1428 1002 1413 c 128,-1,33
 1010 1398 1010 1398 1010 1384 c 0,34,35
 1010 1218 1010 1218 861 1033 c 0,36,37
 811 971 811 971 766 923 c 0,38,39
 722 875 722 875 654 814 c 0,40,41
 570 738 570 738 420 616 c 1,42,-1
 284 350 l 2,43,44
 248 278 248 278 228.5 238.5 c 128,-1,45
 209 199 209 199 189.5 147 c 128,-1,46
 170 95 170 95 170 69 c 128,-1,47
 170 43 170 43 186 24.5 c 128,-1,48
 202 6 202 6 228 6 c 0,49,50
 291 6 291 6 368 47 c 128,-1,51
 445 88 445 88 510 144.5 c 128,-1,52
 575 201 575 201 606 248 c 0,53,54
 610 254 610 254 614 254 c 128,-1,55
 618 254 618 254 618 251 c 128,-1,56
 618 248 618 248 616 244 c 0,57,58
 562 172 562 172 508.5 125 c 128,-1,59
 455 78 455 78 395 43 c 128,-1,60
 335 8 335 8 279.5 -7 c 128,-1,61
 224 -22 224 -22 183 -22 c 128,-1,62
 142 -22 142 -22 118 -0.5 c 128,-1,63
 94 21 94 21 94 53 c 128,-1,64
 94 85 94 85 104.5 115.5 c 128,-1,65
 115 146 115 146 125.5 167 c 128,-1,66
 136 188 136 188 168 248 c 2,67,-1
 322 538 l 1,13,14
EndSplineSet
EndChar

StartChar: m
Encoding: 109 109 80
Width: 736
GlyphClass: 2
Flags: W
AnchorPoint: "Anchor-5" 536 548 basechar 0
AnchorPoint: "Anchor-3" 248 -100 basechar 0
LayerCount: 2
Fore
SplineSet
132 394 m 0,0,1
 128 392 128 392 124 392 c 128,-1,2
 120 392 120 392 120 396 c 128,-1,3
 120 400 120 400 165 430 c 128,-1,4
 210 460 210 460 243.5 460 c 128,-1,5
 277 460 277 460 290.5 449.5 c 128,-1,6
 304 439 304 439 304 407 c 128,-1,7
 304 375 304 375 260 302 c 1,8,9
 266 307 266 307 283 323.5 c 128,-1,10
 300 340 300 340 309 348 c 128,-1,11
 318 356 318 356 334.5 370 c 128,-1,12
 351 384 351 384 362 392 c 0,13,14
 374 400 374 400 389 408 c 0,15,16
 418 424 418 424 444 424 c 0,17,18
 476 424 476 424 476 372 c 0,19,20
 476 338 476 338 456 298 c 1,21,-1
 450 284 l 1,22,23
 465 299 465 299 504 330 c 0,24,25
 542 360 542 360 572 379 c 0,26,27
 651 430 651 430 702.5 430 c 128,-1,28
 754 430 754 430 754 384 c 0,29,30
 754 360 754 360 719.5 302.5 c 128,-1,31
 685 245 685 245 644 182.5 c 128,-1,32
 603 120 603 120 568.5 29.5 c 128,-1,33
 534 -61 534 -61 534 -140.5 c 128,-1,34
 534 -220 534 -220 573.5 -281 c 128,-1,35
 613 -342 613 -342 687.5 -342 c 128,-1,36
 762 -342 762 -342 861 -271.5 c 128,-1,37
 960 -201 960 -201 1010 -128 c 0,38,39
 1014 -122 1014 -122 1018 -122 c 128,-1,40
 1022 -122 1022 -122 1022 -125 c 128,-1,41
 1022 -128 1022 -128 1020 -132 c 0,42,43
 950 -227 950 -227 850.5 -295.5 c 128,-1,44
 751 -364 751 -364 665 -364 c 128,-1,45
 579 -364 579 -364 523.5 -305 c 128,-1,46
 468 -246 468 -246 468 -157.5 c 128,-1,47
 468 -69 468 -69 498.5 20.5 c 128,-1,48
 529 110 529 110 565 169 c 128,-1,49
 601 228 601 228 631.5 281.5 c 128,-1,50
 662 335 662 335 662 356.5 c 128,-1,51
 662 378 662 378 638 378 c 0,52,53
 600 378 600 378 539.5 334 c 128,-1,54
 479 290 479 290 439 242 c 128,-1,55
 399 194 399 194 356 194 c 0,56,57
 350 194 350 194 350 202 c 128,-1,58
 350 210 350 210 353 214.5 c 128,-1,59
 356 219 356 219 362 221.5 c 128,-1,60
 368 224 368 224 370 226 c 0,61,62
 410 312 410 312 410 341 c 128,-1,63
 410 370 410 370 394 370 c 0,64,65
 353 370 353 370 254 264 c 0,66,67
 229 237 229 237 171 136.5 c 128,-1,68
 113 36 113 36 108.5 30 c 128,-1,69
 104 24 104 24 97.5 20 c 128,-1,70
 91 16 91 16 80.5 11.5 c 128,-1,71
 70 7 70 7 51 -3.5 c 128,-1,72
 32 -14 32 -14 25 -14 c 128,-1,73
 18 -14 18 -14 18 -6 c 128,-1,74
 18 2 18 2 28.5 13.5 c 128,-1,75
 39 25 39 25 62.5 64 c 128,-1,76
 86 103 86 103 122.5 168 c 128,-1,77
 159 233 159 233 166 244.5 c 128,-1,78
 173 256 173 256 181 270.5 c 128,-1,79
 189 285 189 285 193 292 c 128,-1,80
 197 299 197 299 203.5 311 c 128,-1,81
 210 323 210 323 213.5 329.5 c 128,-1,82
 217 336 217 336 222 345.5 c 128,-1,83
 227 355 227 355 229 361 c 0,84,85
 232 367 232 367 234 374 c 0,86,87
 238 387 238 387 238 398 c 0,88,89
 238 432 238 432 208 432 c 0,90,91
 187 432 187 432 132 394 c 0,0,1
EndSplineSet
EndChar

StartChar: n
Encoding: 110 110 81
Width: 628
GlyphClass: 2
Flags: W
AnchorPoint: "Anchor-5" 456 548 basechar 0
AnchorPoint: "Anchor-3" 204 -100 basechar 0
LayerCount: 2
Fore
SplineSet
214 428 m 0,0,1
 179 428 179 428 134 398 c 0,2,3
 125 392 125 392 122.5 392 c 128,-1,4
 120 392 120 392 120 396 c 128,-1,5
 120 400 120 400 126 404 c 0,6,7
 195 456 195 456 252 456 c 0,8,9
 277 456 277 456 291.5 442 c 128,-1,10
 306 428 306 428 306 407 c 128,-1,11
 306 386 306 386 266 314 c 1,12,13
 427 452 427 452 516 452 c 0,14,15
 547 452 547 452 560.5 430.5 c 128,-1,16
 574 409 574 409 574 376.5 c 128,-1,17
 574 344 574 344 506 219 c 128,-1,18
 438 94 438 94 438 58 c 0,19,20
 438 42 438 42 447 31 c 128,-1,21
 456 20 456 20 470 20 c 0,22,23
 559 20 559 20 688 132 c 0,24,25
 722 162 722 162 753.5 196 c 128,-1,26
 785 230 785 230 792.5 242 c 128,-1,27
 800 254 800 254 804 254 c 128,-1,28
 808 254 808 254 808 251 c 128,-1,29
 808 248 808 248 806 244 c 0,30,31
 770 196 770 196 697.5 124.5 c 128,-1,32
 625 53 625 53 547.5 16.5 c 128,-1,33
 470 -20 470 -20 418 -20 c 128,-1,34
 366 -20 366 -20 366 26 c 0,35,36
 366 67 366 67 400 135.5 c 128,-1,37
 434 204 434 204 468 268 c 128,-1,38
 502 332 502 332 502 364 c 0,39,40
 502 414 502 414 464 414 c 0,41,42
 429 414 429 414 342.5 351.5 c 128,-1,43
 256 289 256 289 248 274 c 2,44,-1
 102 8 l 2,45,46
 97 0 97 0 83.5 -2.5 c 128,-1,47
 70 -5 70 -5 55.5 -10.5 c 128,-1,48
 41 -16 41 -16 36 -16 c 0,49,50
 24 -16 24 -16 24 -6 c 0,51,52
 24 -2 24 -2 82 96 c 0,53,54
 238 364 238 364 238 402 c 0,55,56
 238 428 238 428 214 428 c 0,0,1
EndSplineSet
EndChar

StartChar: o
Encoding: 111 111 82
Width: 536
GlyphClass: 2
Flags: W
AnchorPoint: "Anchor-5" 478 548 basechar 0
AnchorPoint: "Anchor-4" 182 0 basechar 0
AnchorPoint: "Anchor-3" 132 -100 basechar 0
LayerCount: 2
Fore
SplineSet
450 400 m 2,0,-1
 444 402 l 1,1,2
 444 381 444 381 460.5 362.5 c 128,-1,3
 477 344 477 344 500 338 c 1,4,5
 502 351 502 351 502 371 c 0,6,7
 502 376 502 376 502 382 c 0,8,9
 502 410 502 410 485 441 c 128,-1,10
 468 472 468 472 458 472 c 0,11,12
 444 472 444 472 444 432 c 1,13,14
 450 430 450 430 456 424 c 128,-1,15
 462 418 462 418 462 413 c 128,-1,16
 462 408 462 408 457 404 c 128,-1,17
 452 400 452 400 450 400 c 2,0,-1
496 320 m 1,18,19
 456 322 456 322 424.5 351 c 128,-1,20
 393 380 393 380 390 420 c 1,21,22
 331 420 331 420 270.5 365 c 128,-1,23
 210 310 210 310 173 231 c 128,-1,24
 136 152 136 152 136 82 c 0,25,26
 136 55 136 55 152.5 31.5 c 128,-1,27
 169 8 169 8 200 8 c 0,28,29
 290 8 290 8 381.5 108 c 128,-1,30
 473 208 473 208 496 320 c 1,18,19
676 406 m 128,-1,32
 676 402 676 402 669.5 398 c 128,-1,33
 663 394 663 394 644.5 380.5 c 128,-1,34
 626 367 626 367 614.5 359.5 c 128,-1,35
 603 352 603 352 585 342 c 0,36,37
 550 323 550 323 516 320 c 1,38,39
 491 192 491 192 388.5 87 c 128,-1,40
 286 -18 286 -18 174 -18 c 128,-1,41
 62 -18 62 -18 62 84 c 0,42,43
 62 166 62 166 110.5 250 c 128,-1,44
 159 334 159 334 236 388 c 128,-1,45
 313 442 313 442 390 442 c 1,46,47
 392 467 392 467 405 491.5 c 128,-1,48
 418 516 418 516 442 516 c 0,49,50
 479 516 479 516 500.5 479 c 128,-1,51
 522 442 522 442 522 384 c 0,52,53
 522 368 522 368 518 336 c 1,54,55
 563 336 563 336 662 404 c 0,56,57
 671 410 671 410 673.5 410 c 128,-1,31
 676 410 676 410 676 406 c 128,-1,32
EndSplineSet
EndChar

StartChar: p
Encoding: 112 112 83
Width: 524
GlyphClass: 2
Flags: W
AnchorPoint: "Anchor-5" 440 548 basechar 0
LayerCount: 2
Fore
SplineSet
148 176 m 1,0,-1
 74 38 l 1,1,2
 153 54 153 54 232.5 96.5 c 128,-1,3
 312 139 312 139 366.5 188.5 c 128,-1,4
 421 238 421 238 455.5 285 c 128,-1,5
 490 332 490 332 490 360 c 0,6,7
 490 418 490 418 446 418 c 0,8,9
 409 418 409 418 312 337.5 c 128,-1,10
 215 257 215 257 148 176 c 1,0,-1
156 -50 m 0,11,12
 94 -50 94 -50 38 -22 c 1,13,14
 -65 -211 -65 -211 -200 -488 c 128,-1,15
 -335 -765 -335 -765 -438 -948 c 0,16,17
 -454 -977 -454 -977 -479 -1000 c 128,-1,18
 -504 -1023 -504 -1023 -526 -1035 c 1,19,20
 -549 -1046 -549 -1046 -572 -1054 c 0,21,22
 -607 -1066 -607 -1066 -621.5 -1066 c 128,-1,23
 -636 -1066 -636 -1066 -636 -1060.5 c 128,-1,24
 -636 -1055 -636 -1055 -631.5 -1052 c 128,-1,25
 -627 -1049 -627 -1049 -612.5 -1041 c 128,-1,26
 -598 -1033 -598 -1033 -579.5 -1018.5 c 128,-1,27
 -561 -1004 -561 -1004 -529.5 -960.5 c 128,-1,28
 -498 -917 -498 -917 -362 -680.5 c 128,-1,29
 -226 -444 -226 -444 12 -4 c 1,30,31
 6 2 6 2 6 5.5 c 128,-1,32
 6 9 6 9 15 16.5 c 128,-1,33
 24 24 24 24 28 24 c 1,34,35
 146 241 146 241 146 310 c 128,-1,36
 146 379 146 379 126 386 c 0,37,38
 118 389 118 389 118 392.5 c 128,-1,39
 118 396 118 396 120.5 398 c 128,-1,40
 123 400 123 400 128 403 c 128,-1,41
 133 406 133 406 138 410 c 128,-1,42
 143 414 143 414 149.5 419.5 c 128,-1,43
 156 425 156 425 158 428 c 0,44,45
 163 434 163 434 176 434 c 0,46,47
 192 434 192 434 202 404.5 c 128,-1,48
 212 375 212 375 212 339 c 128,-1,49
 212 303 212 303 188 252 c 1,50,51
 295 358 295 358 380 413 c 128,-1,52
 465 468 465 468 516.5 468 c 128,-1,53
 568 468 568 468 568 405 c 128,-1,54
 568 342 568 342 503 265.5 c 128,-1,55
 438 189 438 189 327 120 c 128,-1,56
 216 51 216 51 98 20 c 1,57,58
 154 -10 154 -10 218 -10 c 128,-1,59
 282 -10 282 -10 340 3 c 256,60,61
 398 16 398 16 446 42 c 0,62,63
 565 106 565 106 651 199 c 0,64,65
 683 234 683 234 689.5 244 c 128,-1,66
 696 254 696 254 700 254 c 128,-1,67
 704 254 704 254 704 251 c 128,-1,68
 704 248 704 248 702 244 c 0,69,70
 651 175 651 175 594 124 c 0,71,72
 400 -50 400 -50 156 -50 c 0,11,12
EndSplineSet
EndChar

StartChar: q
Encoding: 113 113 84
Width: 632
GlyphClass: 2
Flags: W
LayerCount: 2
Fore
SplineSet
800 248 m 1,0,1
 804 254 804 254 808 254 c 128,-1,2
 812 254 812 254 812 251 c 0,3,4
 812 247 812 247 802 233.5 c 128,-1,5
 792 220 792 220 748.5 174.5 c 128,-1,6
 705 129 705 129 657.5 80 c 128,-1,7
 610 31 610 31 514.5 -67 c 128,-1,8
 419 -165 419 -165 367 -218 c 0,9,10
 314 -272 314 -272 258 -332 c 0,11,12
 157 -438 157 -438 123.5 -486.5 c 128,-1,13
 90 -535 90 -535 10 -671 c 128,-1,14
 -70 -807 -70 -807 -136 -916.5 c 128,-1,15
 -202 -1026 -202 -1026 -211.5 -1026 c 128,-1,16
 -221 -1026 -221 -1026 -232.5 -1011.5 c 128,-1,17
 -244 -997 -244 -997 -244 -988 c 0,18,19
 -244 -946 -244 -946 -184 -855 c 128,-1,20
 -124 -764 -124 -764 -74 -704 c 0,21,22
 27 -583 27 -583 66.5 -509 c 128,-1,23
 106 -435 106 -435 271.5 -150 c 128,-1,24
 437 135 437 135 476 210 c 1,25,26
 443 160 443 160 354 86 c 0,27,28
 310 50 310 50 257 24 c 128,-1,29
 204 -2 204 -2 161.5 -2 c 128,-1,30
 119 -2 119 -2 92.5 25.5 c 128,-1,31
 66 53 66 53 66 98 c 0,32,33
 66 173 66 173 119 259.5 c 128,-1,34
 172 346 172 346 250 405 c 128,-1,35
 328 464 328 464 396 464 c 0,36,37
 440 464 440 464 462 440 c 128,-1,38
 484 416 484 416 484 381.5 c 128,-1,39
 484 347 484 347 472 314 c 0,40,41
 468 302 468 302 456 302 c 128,-1,42
 444 302 444 302 444 312 c 0,43,44
 444 318 444 318 456 347 c 128,-1,45
 468 376 468 376 468 395.5 c 128,-1,46
 468 415 468 415 449 428.5 c 128,-1,47
 430 442 430 442 406 442 c 0,48,49
 359 442 359 442 296.5 389 c 128,-1,50
 234 336 234 336 187 252 c 128,-1,51
 140 168 140 168 140 92 c 0,52,53
 140 69 140 69 157 51.5 c 128,-1,54
 174 34 174 34 200 34 c 0,55,56
 264 34 264 34 348.5 104 c 128,-1,57
 433 174 433 174 480 272 c 0,58,59
 487 286 487 286 494.5 309.5 c 128,-1,60
 502 333 502 333 504 334 c 0,61,62
 520 342 520 342 544.5 342 c 128,-1,63
 569 342 569 342 583.5 336 c 128,-1,64
 598 330 598 330 598 321.5 c 128,-1,65
 598 313 598 313 576 285 c 0,66,67
 496 181 496 181 474 142 c 2,68,-1
 180 -372 l 1,69,70
 269 -277 269 -277 322 -223.5 c 128,-1,71
 375 -170 375 -170 710 158 c 1,72,-1
 800 248 l 1,0,1
EndSplineSet
EndChar

StartChar: r
Encoding: 114 114 85
Width: 440
GlyphClass: 2
Flags: W
AnchorPoint: "Anchor-5" 394 548 basechar 0
AnchorPoint: "Anchor-3" 10 -100 basechar 0
LayerCount: 2
Fore
SplineSet
278.5 432 m 128,-1,1
 294 416 294 416 294 399 c 128,-1,2
 294 382 294 382 286 362 c 128,-1,3
 278 342 278 342 269 325 c 128,-1,4
 260 308 260 308 249.5 289.5 c 128,-1,5
 239 271 239 271 238 268 c 1,6,7
 298 337 298 337 386 400 c 0,8,9
 449 444 449 444 550 484 c 0,10,11
 562 488 562 488 565 488 c 128,-1,12
 568 488 568 488 568 485 c 128,-1,13
 568 482 568 482 566.5 480.5 c 128,-1,14
 565 479 565 479 563 478 c 128,-1,15
 561 477 561 477 551.5 472 c 128,-1,16
 542 467 542 467 510 439.5 c 128,-1,17
 478 412 478 412 478 391 c 128,-1,18
 478 370 478 370 496 370 c 0,19,20
 519 370 519 370 566 404 c 0,21,22
 575 410 575 410 577.5 410 c 128,-1,23
 580 410 580 410 580 406 c 128,-1,24
 580 402 580 402 574 398 c 0,25,26
 533 368 533 368 509.5 357 c 128,-1,27
 486 346 486 346 463 346 c 128,-1,28
 440 346 440 346 426 354 c 128,-1,29
 412 362 412 362 412 377.5 c 128,-1,30
 412 393 412 393 424 408 c 1,31,32
 378 382 378 382 316 322.5 c 128,-1,33
 254 263 254 263 192 180 c 1,34,35
 100 10 100 10 88 -4 c 128,-1,36
 76 -18 76 -18 70.5 -18 c 128,-1,37
 65 -18 65 -18 62 -15.5 c 128,-1,38
 59 -13 59 -13 54.5 -5 c 128,-1,39
 50 3 50 3 42 14.5 c 128,-1,40
 34 26 34 26 34 33.5 c 128,-1,41
 34 41 34 41 48 62.5 c 128,-1,42
 62 84 62 84 80.5 104.5 c 128,-1,43
 99 125 99 125 112 142 c 1,44,45
 194 296 194 296 212 333.5 c 128,-1,46
 230 371 230 371 230 388.5 c 128,-1,47
 230 406 230 406 221.5 415 c 128,-1,48
 213 424 213 424 193 424 c 128,-1,49
 173 424 173 424 134 398 c 0,50,51
 125 392 125 392 122.5 392 c 128,-1,52
 120 392 120 392 120 396 c 128,-1,53
 120 400 120 400 126 404 c 0,54,55
 190 448 190 448 234 448 c 0,56,0
 263 448 263 448 278.5 432 c 128,-1,1
EndSplineSet
EndChar

StartChar: s
Encoding: 115 115 86
Width: 504
GlyphClass: 2
Flags: W
AnchorPoint: "Anchor-5" 462 548 basechar 0
AnchorPoint: "Anchor-4" 164 -20 basechar 0
AnchorPoint: "Anchor-3" 112 -100 basechar 0
LayerCount: 2
Fore
SplineSet
82 110 m 2,0,-1
 80 84 l 1,1,2
 80 45 80 45 101.5 16.5 c 128,-1,3
 123 -12 123 -12 169.5 -12 c 128,-1,4
 216 -12 216 -12 285.5 42.5 c 128,-1,5
 355 97 355 97 406.5 180.5 c 128,-1,6
 458 264 458 264 458 336 c 0,7,8
 458 430 458 430 406 430 c 0,9,10
 376 430 376 430 338 406 c 128,-1,11
 300 382 300 382 266 346 c 0,12,13
 206 284 206 284 178 244 c 0,14,15
 174 238 174 238 170 238 c 128,-1,16
 166 238 166 238 166 241 c 128,-1,17
 166 244 166 244 168 248 c 0,18,19
 318 456 318 456 432 456 c 0,20,21
 478 456 478 456 506 420 c 128,-1,22
 534 384 534 384 534 331 c 128,-1,23
 534 278 534 278 495 212 c 128,-1,24
 456 146 456 146 399 94 c 128,-1,25
 342 42 342 42 274.5 7 c 128,-1,26
 207 -28 207 -28 160.5 -28 c 128,-1,27
 114 -28 114 -28 66.5 -12 c 128,-1,28
 19 4 19 4 18 30 c 0,29,30
 18 43 18 43 44.5 78.5 c 128,-1,31
 71 114 71 114 80 114 c 0,32,33
 82 114 82 114 82 110 c 2,0,-1
EndSplineSet
EndChar

StartChar: t
Encoding: 116 116 87
Width: 460
GlyphClass: 2
Flags: W
AnchorPoint: "Anchor-5" 542 922 basechar 0
AnchorPoint: "Anchor-4" 192 0 basechar 0
AnchorPoint: "Anchor-3" 172 -100 basechar 0
AnchorPoint: "Anchor-1" 604 686 basechar 0
LayerCount: 2
Fore
SplineSet
120 396 m 128,-1,1
 120 400 120 400 125 404 c 0,2,3
 140 414 140 414 155.5 425 c 128,-1,4
 171 436 171 436 280 454 c 1,5,-1
 442 754 l 1,6,7
 454 779 454 779 476 799 c 1,8,9
 496 820 496 820 516 820 c 0,10,11
 517 820 517 820 519 820 c 0,12,13
 536 820 536 820 536 812 c 128,-1,14
 536 804 536 804 486 719 c 128,-1,15
 436 634 436 634 348 464 c 1,16,-1
 536 494 l 2,17,18
 542 494 542 494 542 492 c 0,19,20
 542 486 542 486 527.5 477 c 128,-1,21
 513 468 513 468 505 468 c 128,-1,22
 497 468 497 468 336 442 c 1,23,-1
 240 242 l 1,24,25
 186 122 186 122 186 86 c 128,-1,26
 186 50 186 50 207 27 c 128,-1,27
 228 4 228 4 260 4 c 0,28,29
 338 4 338 4 388.5 32 c 128,-1,30
 439 60 439 60 494.5 109 c 128,-1,31
 550 158 550 158 584.5 196.5 c 128,-1,32
 619 235 619 235 625.5 244.5 c 128,-1,33
 632 254 632 254 636 254 c 128,-1,34
 640 254 640 254 640 251 c 128,-1,35
 640 248 640 248 638 244 c 0,36,37
 590 181 590 181 538 131.5 c 128,-1,38
 486 82 486 82 447.5 53 c 128,-1,39
 409 24 409 24 351.5 3 c 128,-1,40
 294 -18 294 -18 235.5 -18 c 128,-1,41
 177 -18 177 -18 143.5 8 c 128,-1,42
 110 34 110 34 110 90 c 128,-1,43
 110 146 110 146 168 248 c 1,44,-1
 264 426 l 1,45,46
 138 401 138 401 131.5 396.5 c 128,-1,47
 125 392 125 392 122.5 392 c 128,-1,0
 120 392 120 392 120 396 c 128,-1,1
EndSplineSet
EndChar

StartChar: u
Encoding: 117 117 88
Width: 642
GlyphClass: 2
Flags: W
AnchorPoint: "Anchor-5" 450 548 basechar 0
AnchorPoint: "Anchor-4" 438 0 basechar 0
AnchorPoint: "Anchor-3" 238 -100 basechar 0
LayerCount: 2
Fore
SplineSet
761 186 m 128,-1,1
 791 220 791 220 802.5 237 c 128,-1,2
 814 254 814 254 818 254 c 128,-1,3
 822 254 822 254 822 251 c 128,-1,4
 822 248 822 248 820 244 c 0,5,6
 761 149 761 149 648 64.5 c 128,-1,7
 535 -20 535 -20 436 -20 c 0,8,9
 384 -20 384 -20 384 26 c 0,10,11
 384 56 384 56 400 98 c 1,12,13
 338 52 338 52 267.5 18 c 128,-1,14
 197 -16 197 -16 144 -16 c 0,15,16
 120 -16 120 -16 97 -1 c 128,-1,17
 74 14 74 14 74 50.5 c 128,-1,18
 74 87 74 87 154 227.5 c 128,-1,19
 234 368 234 368 234 396 c 128,-1,20
 234 424 234 424 203.5 424 c 128,-1,21
 173 424 173 424 134 398 c 0,22,23
 125 392 125 392 122.5 392 c 128,-1,24
 120 392 120 392 120 396 c 128,-1,25
 120 400 120 400 126 404 c 0,26,27
 190 448 190 448 236 448 c 0,28,29
 302 448 302 448 302 390 c 0,30,31
 302 360 302 360 226 225.5 c 128,-1,32
 150 91 150 91 150 67 c 128,-1,33
 150 43 150 43 167 33.5 c 128,-1,34
 184 24 184 24 204 24 c 0,35,36
 255 24 255 24 318 64.5 c 128,-1,37
 381 105 381 105 416 142 c 1,38,39
 438 190 438 190 494 290.5 c 128,-1,40
 550 391 550 391 564 408 c 1,41,42
 599 446 599 446 628 446 c 0,43,44
 636 446 636 446 636 434 c 128,-1,45
 636 422 636 422 589.5 339.5 c 128,-1,46
 543 257 543 257 486 184 c 1,47,48
 452 110 452 110 452 58 c 0,49,50
 452 42 452 42 461 31 c 128,-1,51
 470 20 470 20 484 20 c 0,52,53
 534 20 534 20 588.5 46.5 c 128,-1,54
 643 73 643 73 687 112.5 c 128,-1,0
 731 152 731 152 761 186 c 128,-1,1
EndSplineSet
EndChar

StartChar: v
Encoding: 118 118 89
Width: 426
GlyphClass: 2
Flags: W
AnchorPoint: "Anchor-5" 398 548 basechar 0
AnchorPoint: "Anchor-3" 76 -100 basechar 0
LayerCount: 2
Fore
SplineSet
244 452 m 0,0,1
 269 452 269 452 280.5 435.5 c 128,-1,2
 292 419 292 419 292 393.5 c 128,-1,3
 292 368 292 368 271 314 c 128,-1,4
 250 260 250 260 218 191 c 128,-1,5
 186 122 186 122 174 90 c 1,6,7
 179 96 179 96 208.5 134.5 c 128,-1,8
 238 173 238 173 246.5 183.5 c 128,-1,9
 255 194 255 194 284.5 230.5 c 128,-1,10
 314 267 314 267 327 281.5 c 128,-1,11
 340 296 340 296 369 328.5 c 128,-1,12
 398 361 398 361 416 378 c 128,-1,13
 434 395 434 395 462.5 422.5 c 128,-1,14
 491 450 491 450 514 468 c 0,15,16
 572 514 572 514 620.5 542 c 128,-1,17
 669 570 669 570 682 570 c 0,18,19
 686 570 686 570 686 564 c 0,20,21
 686 562 686 562 674 555 c 0,22,23
 656 545 656 545 630 530 c 1,24,25
 544 476 544 476 452 383.5 c 128,-1,26
 360 291 360 291 301 212.5 c 128,-1,27
 242 134 242 134 192 64 c 128,-1,28
 142 -6 142 -6 133 -15 c 128,-1,29
 124 -24 124 -24 106 -24 c 0,30,31
 100 -24 100 -24 96 -12 c 128,-1,32
 92 0 92 0 92 10 c 0,33,34
 92 74 92 74 168 248 c 1,35,36
 222 380 222 380 222 403 c 128,-1,37
 222 426 222 426 200 426 c 0,38,39
 176 426 176 426 134 398 c 0,40,41
 125 392 125 392 122.5 392 c 128,-1,42
 120 392 120 392 120 396 c 128,-1,43
 120 400 120 400 126 404 c 0,44,45
 190 452 190 452 244 452 c 0,0,1
EndSplineSet
EndChar

StartChar: w
Encoding: 119 119 90
Width: 758
GlyphClass: 2
Flags: W
AnchorPoint: "Anchor-5" 452 548 basechar 0
AnchorPoint: "Anchor-3" 242 -100 basechar 0
LayerCount: 2
Fore
SplineSet
898 406 m 128,-1,1
 898 402 898 402 894.5 399.5 c 128,-1,2
 891 397 891 397 875.5 387 c 128,-1,3
 860 377 860 377 852 372 c 128,-1,4
 844 367 844 367 826.5 357 c 128,-1,5
 809 347 809 347 796 341 c 0,6,7
 783 334 783 334 766 328 c 0,8,9
 733 316 733 316 707 316 c 128,-1,10
 681 316 681 316 660 322 c 1,11,12
 670 275 670 275 670 218 c 128,-1,13
 670 161 670 161 646 108 c 0,14,15
 622 54 622 54 588 28 c 1,16,17
 493 -24 493 -24 473 -24 c 0,18,19
 471 -24 471 -24 470 -24 c 0,20,21
 414 -24 414 -24 400 11 c 0,22,23
 388 41 388 41 388 90 c 0,24,25
 388 222 388 222 362 222 c 0,26,27
 344 222 344 222 270.5 163 c 128,-1,28
 197 104 197 104 173.5 82.5 c 128,-1,29
 150 61 150 61 138 48.5 c 128,-1,30
 126 36 126 36 118 28 c 256,31,32
 110 20 110 20 100 12 c 0,33,34
 82 -4 82 -4 72 -4 c 0,35,36
 56 -4 56 -4 56 20 c 0,37,38
 56 88 56 88 196 304 c 0,39,40
 262 405 262 405 262 422 c 0,41,42
 262 428 262 428 255 435 c 128,-1,43
 248 442 248 442 240 442 c 0,44,45
 200 442 200 442 134 398 c 0,46,47
 125 392 125 392 122.5 392 c 128,-1,48
 120 392 120 392 120 396 c 128,-1,49
 120 400 120 400 125 404 c 128,-1,50
 130 408 130 408 151.5 422.5 c 128,-1,51
 173 437 173 437 209.5 454.5 c 128,-1,52
 246 472 246 472 272.5 472 c 128,-1,53
 299 472 299 472 315.5 456.5 c 128,-1,54
 332 441 332 441 332 415 c 128,-1,55
 332 389 332 389 302 342 c 128,-1,56
 272 295 272 295 219.5 216.5 c 128,-1,57
 167 138 167 138 132 68 c 1,58,59
 185 124 185 124 272.5 196 c 128,-1,60
 360 268 360 268 400 268 c 0,61,62
 452 268 452 268 452 106 c 0,63,64
 452 28 452 28 472 10 c 0,65,66
 482 2 482 2 498 2 c 0,67,68
 551 2 551 2 581.5 61 c 128,-1,69
 612 120 612 120 612 203 c 128,-1,70
 612 286 612 286 572 384 c 1,71,72
 565 391 565 391 548.5 411.5 c 128,-1,73
 532 432 532 432 532 440 c 0,74,75
 532 452 532 452 557 465 c 128,-1,76
 582 478 582 478 589.5 478 c 128,-1,77
 597 478 597 478 613 451.5 c 128,-1,78
 629 425 629 425 640 396 c 1,79,80
 690 346 690 346 746 346 c 0,81,82
 766 346 766 346 778.5 350 c 128,-1,83
 791 354 791 354 798 356 c 128,-1,84
 805 358 805 358 814.5 363 c 128,-1,85
 824 368 824 368 830 370.5 c 128,-1,86
 836 373 836 373 845.5 379 c 128,-1,87
 855 385 855 385 859 388 c 0,88,89
 862 390 862 390 872 396 c 0,90,91
 892 410 892 410 895 410 c 128,-1,0
 898 410 898 410 898 406 c 128,-1,1
EndSplineSet
EndChar

StartChar: x
Encoding: 120 120 91
Width: 448
GlyphClass: 2
Flags: W
AnchorPoint: "Anchor-5" 330 548 basechar 0
LayerCount: 2
Fore
SplineSet
181 457 m 128,-1,1
 184 460 184 460 189 460 c 128,-1,2
 194 460 194 460 194 453 c 0,3,4
 194 451 194 451 195 443 c 128,-1,5
 196 435 196 435 196.5 428.5 c 128,-1,6
 197 422 197 422 198 416 c 0,7,8
 216 280 216 280 264 144 c 1,9,10
 288 179 288 179 352 280 c 0,11,12
 416 382 416 382 422 394 c 0,13,14
 434 418 434 418 440 420 c 0,15,16
 461 426 461 426 472.5 426 c 128,-1,17
 484 426 484 426 484 423 c 128,-1,18
 484 420 484 420 483 419 c 128,-1,19
 482 418 482 418 479.5 416.5 c 128,-1,20
 477 415 477 415 468.5 405 c 128,-1,21
 460 395 460 395 404 305.5 c 128,-1,22
 348 216 348 216 276 120 c 1,23,24
 313 36 313 36 356 36 c 0,25,26
 391 36 391 36 496 122 c 1,27,28
 579 193 579 193 616 248 c 0,29,30
 620 254 620 254 624 254 c 128,-1,31
 628 254 628 254 628 251 c 128,-1,32
 628 248 628 248 626 244 c 0,33,34
 574 171 574 171 502 106 c 0,35,36
 376 -6 376 -6 326 -6 c 0,37,38
 304 -6 304 -6 294 4 c 2,39,-1
 280 18 l 2,40,41
 276 22 276 22 268 36 c 0,42,43
 250 68 250 68 244 78 c 1,44,45
 112 -79 112 -79 46 -142 c 1,46,47
 -120 -308 -120 -308 -248 -406 c 0,48,49
 -260 -414 -260 -414 -266 -416.5 c 128,-1,50
 -272 -419 -272 -419 -284.5 -419.5 c 128,-1,51
 -297 -420 -297 -420 -320.5 -424 c 128,-1,52
 -344 -428 -344 -428 -347 -428 c 128,-1,53
 -350 -428 -350 -428 -350 -424 c 0,54,55
 -350 -423 -350 -423 -332 -410 c 0,56,57
 -108 -258 -108 -258 26 -124 c 1,58,59
 149 -5 149 -5 232 98 c 1,60,61
 190 177 190 177 154 273 c 128,-1,62
 118 369 118 369 118 404 c 0,63,64
 118 409 118 409 136 421 c 128,-1,65
 154 433 154 433 160 437 c 128,-1,66
 166 441 166 441 172 447.5 c 128,-1,0
 178 454 178 454 181 457 c 128,-1,1
EndSplineSet
EndChar

StartChar: y
Encoding: 121 121 92
Width: 604
GlyphClass: 2
Flags: W
AnchorPoint: "Anchor-5" 450 548 basechar 0
LayerCount: 2
Fore
SplineSet
244 -166 m 1,0,1
 108 -246 108 -246 4 -305 c 128,-1,2
 -100 -364 -100 -364 -172 -409 c 128,-1,3
 -244 -454 -244 -454 -284 -484.5 c 128,-1,4
 -324 -515 -324 -515 -370 -558 c 0,5,6
 -416 -600 -416 -600 -440 -637 c 0,7,8
 -496 -724 -496 -724 -496 -804 c 128,-1,9
 -496 -884 -496 -884 -445 -927 c 128,-1,10
 -394 -970 -394 -970 -326 -970 c 0,11,12
 -283 -970 -283 -970 -244 -942 c 0,13,14
 -197 -909 -197 -909 -164 -866 c 128,-1,15
 -131 -823 -131 -823 -108 -790.5 c 128,-1,16
 -85 -758 -85 -758 -52.5 -704 c 128,-1,17
 -20 -650 -20 -650 8 -602 c 0,18,19
 36 -552 36 -552 78 -476 c 0,20,21
 162 -320 162 -320 244 -166 c 1,0,1
240 448 m 0,22,23
 269 448 269 448 284.5 433 c 128,-1,24
 300 418 300 418 300 401.5 c 128,-1,25
 300 385 300 385 296 371 c 128,-1,26
 292 357 292 357 282 338 c 1,27,28
 274 318 274 318 266 302 c 0,29,30
 240 248 240 248 229 228 c 128,-1,31
 218 208 218 208 205.5 183.5 c 128,-1,32
 193 159 193 159 186.5 146.5 c 128,-1,33
 180 134 180 134 172 116 c 0,34,35
 158 81 158 81 158 61 c 128,-1,36
 158 41 158 41 175.5 32.5 c 128,-1,37
 193 24 193 24 212 24 c 0,38,39
 287 24 287 24 394 114 c 1,40,-1
 504 322 l 1,41,42
 512 340 512 340 520.5 363.5 c 128,-1,43
 529 387 529 387 533 396 c 0,44,45
 544 420 544 420 578 423 c 128,-1,46
 612 426 612 426 617 426 c 128,-1,47
 622 426 622 426 622 422 c 128,-1,48
 622 418 622 418 608 396 c 0,49,50
 550 309 550 309 536 284 c 2,51,-1
 332 -94 l 1,52,-1
 492 8 l 2,53,54
 552 46 552 46 588 71.5 c 128,-1,55
 624 97 624 97 680 147 c 128,-1,56
 736 197 736 197 772 248 c 0,57,58
 776 254 776 254 780 254 c 128,-1,59
 784 254 784 254 784 251 c 128,-1,60
 784 248 784 248 782 244 c 0,61,62
 750 201 750 201 729.5 177.5 c 128,-1,63
 709 154 709 154 650 105.5 c 128,-1,64
 591 57 591 57 500 -2 c 2,65,-1
 316 -122 l 1,66,67
 288 -174 288 -174 226.5 -290.5 c 128,-1,68
 165 -407 165 -407 129 -472 c 128,-1,69
 93 -537 93 -537 32 -640.5 c 128,-1,70
 -29 -744 -29 -744 -71 -796 c 128,-1,71
 -113 -848 -113 -848 -168 -906 c 0,72,73
 -268 -1010 -268 -1010 -386 -1010 c 0,74,75
 -472 -1010 -472 -1010 -518 -959 c 128,-1,76
 -564 -908 -564 -908 -564 -849.5 c 128,-1,77
 -564 -791 -564 -791 -546 -738 c 128,-1,78
 -528 -685 -528 -685 -499 -642 c 128,-1,79
 -470 -599 -470 -599 -419.5 -553.5 c 128,-1,80
 -369 -508 -369 -508 -319.5 -473 c 128,-1,81
 -270 -438 -270 -438 -194.5 -393 c 128,-1,82
 -119 -348 -119 -348 -57 -314 c 0,83,84
 127 -213 127 -213 260 -136 c 1,85,-1
 378 84 l 1,86,87
 315 33 315 33 253.5 8.5 c 128,-1,88
 192 -16 192 -16 160 -16 c 128,-1,89
 128 -16 128 -16 105 -1 c 128,-1,90
 82 14 82 14 82 52 c 0,91,92
 82 82 82 82 100.5 119 c 128,-1,93
 119 156 119 156 139 193 c 128,-1,94
 159 230 159 230 165 241.5 c 128,-1,95
 171 253 171 253 181 272 c 128,-1,96
 191 291 191 291 195.5 300.5 c 128,-1,97
 200 310 200 310 208.5 327 c 128,-1,98
 217 344 217 344 221 355 c 0,99,100
 232 385 232 385 232 398 c 0,101,102
 232 426 232 426 208 426 c 0,103,104
 176 426 176 426 134 398 c 0,105,106
 125 392 125 392 122.5 392 c 128,-1,107
 120 392 120 392 120 396 c 128,-1,108
 120 400 120 400 126 404 c 0,109,110
 190 448 190 448 240 448 c 0,22,23
EndSplineSet
EndChar

StartChar: z
Encoding: 122 122 93
Width: 478
GlyphClass: 2
Flags: W
AnchorPoint: "Anchor-5" 362 548 basechar 0
AnchorPoint: "Anchor-3" -454 -848 basechar 0
LayerCount: 2
Fore
SplineSet
274 -34 m 1,0,1
 258 -38 258 -38 209 -52 c 0,2,3
 108 -80 108 -80 25 -117.5 c 128,-1,4
 -58 -155 -58 -155 -141 -212.5 c 128,-1,5
 -224 -270 -224 -270 -292 -337.5 c 128,-1,6
 -360 -405 -360 -405 -401 -483.5 c 128,-1,7
 -442 -562 -442 -562 -442 -634 c 0,8,9
 -442 -671 -442 -671 -420 -697.5 c 128,-1,10
 -398 -724 -398 -724 -366 -724 c 0,11,12
 -302 -724 -302 -724 -237.5 -695.5 c 128,-1,13
 -173 -667 -173 -667 -119 -622 c 128,-1,14
 -65 -577 -65 -577 -11 -513.5 c 128,-1,15
 43 -450 43 -450 84 -388 c 0,16,17
 124 -328 124 -328 164 -256 c 0,18,19
 227 -144 227 -144 274 -34 c 1,0,1
372 24 m 1,20,21
 461 64 461 64 538 132.5 c 128,-1,22
 615 201 615 201 646 248 c 0,23,24
 650 254 650 254 654 254 c 128,-1,25
 658 254 658 254 658 251 c 128,-1,26
 658 248 658 248 656 244 c 0,27,28
 595 166 595 166 550 126 c 0,29,30
 469 53 469 53 364 2 c 1,31,32
 300 -180 300 -180 157 -374 c 0,33,34
 82 -476 82 -476 -2 -559 c 128,-1,35
 -86 -642 -86 -642 -186.5 -695 c 128,-1,36
 -287 -748 -287 -748 -382 -748 c 0,37,38
 -435 -748 -435 -748 -475.5 -720.5 c 128,-1,39
 -516 -693 -516 -693 -516 -633 c 128,-1,40
 -516 -573 -516 -573 -479.5 -502 c 128,-1,41
 -443 -431 -443 -431 -387 -372 c 0,42,43
 -330 -313 -330 -313 -260 -259 c 0,44,45
 -130 -159 -130 -159 -6 -106 c 0,46,47
 73 -73 73 -73 286 -8 c 1,48,49
 304 32 304 32 304 71 c 128,-1,50
 304 110 304 110 284.5 125 c 128,-1,51
 265 140 265 140 216 140 c 1,52,53
 151 80 151 80 114 80 c 0,54,55
 104 80 104 80 104 86 c 0,56,57
 104 106 104 106 137 123.5 c 128,-1,58
 170 141 170 141 198 148 c 1,59,60
 210 159 210 159 256.5 199 c 128,-1,61
 303 239 303 239 332 265 c 128,-1,62
 361 291 361 291 392 327.5 c 128,-1,63
 423 364 423 364 432 390 c 1,64,65
 302 340 302 340 222 340 c 0,66,67
 175 340 175 340 145.5 358.5 c 128,-1,68
 116 377 116 377 116 394 c 0,69,70
 116 399 116 399 143 415.5 c 128,-1,71
 170 432 170 432 178.5 437.5 c 128,-1,72
 187 443 187 443 190.5 445.5 c 128,-1,73
 194 448 194 448 196 448 c 1,74,-1
 198 446 l 1,75,76
 198 444 198 444 192 438 c 128,-1,77
 186 432 186 432 186 424.5 c 128,-1,78
 186 417 186 417 195 409 c 128,-1,79
 204 401 204 401 234 392 c 0,80,81
 264 384 264 384 318 384 c 0,82,83
 382 384 382 384 483 431 c 0,84,85
 507 442 507 442 511.5 442 c 128,-1,86
 516 442 516 442 516 438 c 0,87,88
 516 422 516 422 462 361 c 128,-1,89
 408 300 408 300 228 152 c 1,90,91
 335 152 335 152 364 116 c 0,92,93
 378 98 378 98 378 73 c 128,-1,94
 378 48 378 48 372 24 c 1,20,21
EndSplineSet
EndChar

StartChar: braceleft
Encoding: 123 123 94
Width: 540
GlyphClass: 2
Flags: W
LayerCount: 2
Fore
SplineSet
364 -126 m 0,0,1
 384 -126 384 -126 384 -134 c 128,-1,2
 384 -142 384 -142 364 -142 c 0,3,4
 122 -142 122 -142 122 -20 c 0,5,6
 122 59 122 59 185 137 c 0,7,8
 211 169 211 169 237 200 c 0,9,10
 300 275 300 275 300 348 c 0,11,12
 300 367 300 367 284 391.5 c 128,-1,13
 268 416 268 416 254 416 c 0,14,15
 250 416 250 416 233 413 c 128,-1,16
 216 410 216 410 192 410 c 0,17,18
 180 410 180 410 180 428 c 0,19,20
 180 432 180 432 188 440 c 0,21,22
 214 466 214 466 242 466 c 0,23,24
 256 466 256 466 278 462 c 128,-1,25
 300 458 300 458 311 458 c 128,-1,26
 322 458 322 458 353.5 480.5 c 128,-1,27
 385 503 385 503 412 535.5 c 128,-1,28
 439 568 439 568 462 616.5 c 128,-1,29
 485 665 485 665 500 708 c 0,30,31
 516 752 516 752 536 796 c 0,32,33
 579 893 579 893 676 958 c 1,34,35
 767 1014 767 1014 924 1014 c 0,36,37
 934 1014 934 1014 934 1008 c 0,38,39
 934 998 934 998 914 998 c 0,40,41
 839 998 839 998 794.5 989.5 c 128,-1,42
 750 981 750 981 708 951.5 c 128,-1,43
 666 922 666 922 638 877 c 128,-1,44
 610 832 610 832 592.5 783 c 128,-1,45
 575 734 575 734 557 685 c 0,46,47
 514 567 514 567 436 508 c 0,48,49
 406 486 406 486 330 448 c 1,50,51
 364 426 364 426 364 378.5 c 128,-1,52
 364 331 364 331 337 286 c 128,-1,53
 310 241 310 241 278 205.5 c 128,-1,54
 246 170 246 170 219 115.5 c 128,-1,55
 192 61 192 61 192 6 c 128,-1,56
 192 -49 192 -49 245.5 -87.5 c 128,-1,57
 299 -126 299 -126 364 -126 c 0,0,1
EndSplineSet
EndChar

StartChar: bar
Encoding: 124 124 95
Width: 524
GlyphClass: 2
Flags: W
LayerCount: 2
Fore
SplineSet
324 -100 m 2,0,-1
 324 962 l 2,1,2
 324 967 324 967 337 972 c 128,-1,3
 350 977 350 977 353 979.5 c 128,-1,4
 356 982 356 982 357 983 c 128,-1,5
 358 984 358 984 360 984 c 128,-1,6
 362 984 362 984 362 980 c 2,7,-1
 362 -82 l 2,8,9
 362 -87 362 -87 353 -89 c 0,10,11
 333 -95 333 -95 330.5 -99.5 c 128,-1,12
 328 -104 328 -104 326 -104 c 128,-1,13
 324 -104 324 -104 324 -100 c 2,0,-1
EndSplineSet
EndChar

StartChar: braceright
Encoding: 125 125 96
Width: 540
GlyphClass: 2
Flags: W
LayerCount: 2
Fore
SplineSet
462 998 m 0,0,1
 442 998 442 998 442 1006 c 128,-1,2
 442 1014 442 1014 462 1014 c 0,3,4
 704 1014 704 1014 704 892 c 0,5,6
 704 813 704 813 641 735 c 0,7,8
 615 703 615 703 589 672 c 0,9,10
 526 597 526 597 526 524 c 0,11,12
 526 505 526 505 542 480.5 c 128,-1,13
 558 456 558 456 572 456 c 0,14,15
 576 456 576 456 593 459 c 128,-1,16
 610 462 610 462 634 462 c 0,17,18
 646 462 646 462 646 444 c 0,19,20
 646 440 646 440 638 432 c 0,21,22
 612 406 612 406 584 406 c 0,23,24
 570 406 570 406 548 410 c 128,-1,25
 526 414 526 414 515 414 c 128,-1,26
 504 414 504 414 472.5 391.5 c 128,-1,27
 441 369 441 369 414 336.5 c 128,-1,28
 387 304 387 304 364 255.5 c 128,-1,29
 341 207 341 207 326 164 c 0,30,31
 310 120 310 120 290 76 c 0,32,33
 247 -21 247 -21 150 -86 c 1,34,35
 59 -142 59 -142 -98 -142 c 0,36,37
 -108 -142 -108 -142 -108 -136 c 0,38,39
 -108 -126 -108 -126 -88 -126 c 0,40,41
 -13 -126 -13 -126 31.5 -117.5 c 128,-1,42
 76 -109 76 -109 118 -79.5 c 128,-1,43
 160 -50 160 -50 188 -5 c 128,-1,44
 216 40 216 40 233.5 89 c 128,-1,45
 251 138 251 138 269 187 c 0,46,47
 312 305 312 305 390 364 c 0,48,49
 420 386 420 386 496 424 c 1,50,51
 462 446 462 446 462 493.5 c 128,-1,52
 462 541 462 541 489 586 c 128,-1,53
 516 631 516 631 548 666.5 c 128,-1,54
 580 702 580 702 607 756.5 c 128,-1,55
 634 811 634 811 634 866 c 128,-1,56
 634 921 634 921 580.5 959.5 c 128,-1,57
 527 998 527 998 462 998 c 0,0,1
EndSplineSet
EndChar

StartChar: asciitilde
Encoding: 126 126 97
Width: 640
GlyphClass: 2
Flags: W
LayerCount: 2
Fore
SplineSet
206 300 m 1,0,1
 206 300 206 300 178 286 c 0,2,3
 174 284 174 284 167 278 c 128,-1,4
 160 272 160 272 158 272 c 128,-1,5
 156 272 156 272 156 276 c 128,-1,6
 156 280 156 280 174 304 c 0,7,8
 207 350 207 350 254 386 c 128,-1,9
 301 422 301 422 344 422 c 0,10,11
 390 422 390 422 432 374 c 0,12,13
 450 354 450 354 466 336 c 0,14,15
 507 288 507 288 552 288 c 0,16,17
 584 288 584 288 604 321.5 c 128,-1,18
 624 355 624 355 624 392 c 0,19,20
 624 399 624 399 642 409.5 c 128,-1,21
 660 420 660 420 672 420 c 0,22,23
 676 420 676 420 676 414 c 0,24,25
 671 357 671 357 618 308.5 c 128,-1,26
 565 260 565 260 502 260 c 0,27,28
 472 260 472 260 445 280.5 c 128,-1,29
 418 301 418 301 401 325 c 128,-1,30
 384 349 384 349 357 369.5 c 128,-1,31
 330 390 330 390 301.5 390 c 128,-1,32
 273 390 273 390 248 362.5 c 128,-1,33
 223 335 223 335 206 300 c 1,0,1
EndSplineSet
EndChar

StartChar: exclamdown
Encoding: 161 161 98
Width: 436
GlyphClass: 2
Flags: W
LayerCount: 2
Fore
SplineSet
416 446 m 0,0,1
 416 413 416 413 389 383.5 c 128,-1,2
 362 354 362 354 328 354 c 128,-1,3
 294 354 294 354 294 390 c 0,4,5
 294 420 294 420 323.5 451 c 128,-1,6
 353 482 353 482 376 482 c 0,7,8
 416 482 416 482 416 446 c 0,0,1
-118 -308 m 1,9,10
 -111 -310 -111 -310 -106 -310 c 0,11,12
 -78 -310 -78 -310 -34 -271 c 128,-1,13
 10 -232 10 -232 56 -168 c 0,14,15
 133 -60 133 -60 186 28 c 1,16,17
 261 158 261 158 288 262 c 1,18,19
 294 276 294 276 310 276 c 128,-1,20
 326 276 326 276 326 262 c 0,21,22
 326 252 326 252 288 158 c 128,-1,23
 250 64 250 64 220 10 c 1,24,25
 180 -70 180 -70 116 -169 c 128,-1,26
 52 -268 52 -268 2 -322 c 0,27,28
 -16 -340 -16 -340 -62 -340 c 0,29,30
 -78 -340 -78 -340 -100 -334 c 128,-1,31
 -122 -328 -122 -328 -122 -316 c 0,32,33
 -122 -308 -122 -308 -118 -308 c 1,9,10
EndSplineSet
EndChar

StartChar: cent
Encoding: 162 162 99
Width: 618
GlyphClass: 2
Flags: W
LayerCount: 2
Fore
SplineSet
294 132 m 1,0,-1
 608 684 l 1,1,2
 594 688 594 688 566 688 c 0,3,4
 491 688 491 688 411 609.5 c 128,-1,5
 331 531 331 531 282.5 428.5 c 128,-1,6
 234 326 234 326 234 250 c 0,7,8
 234 213 234 213 251 179 c 128,-1,9
 268 145 268 145 294 132 c 1,0,-1
294 84 m 1,10,-1
 98 -272 l 1,11,12
 95 -280 95 -280 86.5 -288 c 128,-1,13
 78 -296 78 -296 74 -296 c 0,14,15
 72 -296 72 -296 72 -290 c 0,16,17
 72 -278 72 -278 78 -266 c 0,18,19
 152 -119 152 -119 268 84 c 1,20,21
 216 87 216 87 175 127 c 128,-1,22
 134 167 134 167 134 226 c 0,23,24
 134 305 134 305 177 392.5 c 128,-1,25
 220 480 220 480 288 551 c 128,-1,26
 356 622 356 622 447.5 669.5 c 128,-1,27
 539 717 539 717 628 718 c 1,28,-1
 712 864 l 2,29,30
 783 988 783 988 842 988 c 0,31,32
 846 988 846 988 846 986 c 0,33,34
 846 981 846 981 830 964 c 0,35,36
 771 899 771 899 752 868 c 2,37,-1
 656 716 l 1,38,39
 697 708 697 708 728.5 682.5 c 128,-1,40
 760 657 760 657 760 628 c 0,41,42
 760 615 760 615 756 609.5 c 128,-1,43
 752 604 752 604 741.5 600 c 128,-1,44
 731 596 731 596 724.5 593 c 128,-1,45
 718 590 718 590 708 584 c 0,46,47
 688 572 688 572 680 572 c 0,48,49
 674 572 674 572 674 580 c 1,50,-1
 679 591 l 2,51,52
 684 602 684 602 684 620 c 0,53,54
 684 656 684 656 632 676 c 1,55,56
 470 411 470 411 314 124 c 1,57,58
 335 116 335 116 380.5 116 c 128,-1,59
 426 116 426 116 485 141 c 128,-1,60
 544 166 544 166 581 197 c 128,-1,61
 618 228 618 228 643 260.5 c 128,-1,62
 668 293 668 293 681 314.5 c 128,-1,63
 694 336 694 336 696 336 c 0,64,65
 702 336 702 336 702 332 c 0,66,67
 702 314 702 314 666 266 c 0,68,69
 536 88 536 88 294 84 c 1,10,-1
EndSplineSet
EndChar

StartChar: sterling
Encoding: 163 163 100
Width: 904
GlyphClass: 2
Flags: W
LayerCount: 2
Fore
SplineSet
1034 739.5 m 128,-1,1
 1029 736 1029 736 1025.5 736 c 128,-1,2
 1022 736 1022 736 1023 744 c 128,-1,3
 1024 752 1024 752 1024 756 c 0,4,5
 1024 782 1024 782 993.5 809 c 128,-1,6
 963 836 963 836 928 836 c 128,-1,7
 893 836 893 836 870 825.5 c 128,-1,8
 847 815 847 815 830.5 799.5 c 128,-1,9
 814 784 814 784 794 749 c 1,10,11
 772 714 772 714 758 683 c 0,12,13
 702 564 702 564 660 480 c 1,14,15
 794 485 794 485 944 504 c 0,16,17
 948 504 948 504 948 499 c 128,-1,18
 948 494 948 494 929.5 480.5 c 128,-1,19
 911 467 911 467 892 466 c 0,20,21
 710 461 710 461 648 458 c 1,22,23
 567 306 567 306 458 178 c 1,24,25
 522 8 522 8 691 -123 c 128,-1,26
 860 -254 860 -254 1026 -254 c 0,27,28
 1143 -254 1143 -254 1218 -182 c 0,29,30
 1226 -174 1226 -174 1233.5 -163.5 c 128,-1,31
 1241 -153 1241 -153 1245.5 -147.5 c 128,-1,32
 1250 -142 1250 -142 1254 -142 c 128,-1,33
 1258 -142 1258 -142 1258 -148 c 0,34,35
 1258 -165 1258 -165 1230 -198 c 0,36,37
 1140 -304 1140 -304 970 -304 c 0,38,39
 850 -304 850 -304 730 -248 c 0,40,41
 663 -216 663 -216 605 -169 c 128,-1,42
 547 -122 547 -122 495 -45.5 c 128,-1,43
 443 31 443 31 412 126 c 1,44,45
 345 59 345 59 277 17.5 c 128,-1,46
 209 -24 209 -24 151.5 -24 c 128,-1,47
 94 -24 94 -24 94 16 c 0,48,49
 94 62 94 62 143.5 133 c 128,-1,50
 193 204 193 204 259 257 c 128,-1,51
 325 310 325 310 368.5 310 c 128,-1,52
 412 310 412 310 446 214 c 1,53,54
 510 304 510 304 578 454 c 1,55,56
 423 444 423 444 418.5 444 c 128,-1,57
 414 444 414 444 414 450 c 0,58,59
 414 453 414 453 435.5 464.5 c 128,-1,60
 457 476 457 476 462 476 c 0,61,62
 544 476 544 476 588 478 c 0,63,64
 588 479 588 479 598.5 501.5 c 128,-1,65
 609 524 609 524 616.5 540.5 c 128,-1,66
 624 557 624 557 640 588.5 c 128,-1,67
 656 620 656 620 671 644 c 128,-1,68
 686 668 686 668 708.5 700 c 128,-1,69
 731 732 731 732 752.5 756 c 128,-1,70
 774 780 774 780 803 805.5 c 128,-1,71
 832 831 832 831 860 847 c 0,72,73
 926 884 926 884 994 884 c 0,74,75
 1042 884 1042 884 1072 852 c 128,-1,76
 1102 820 1102 820 1102 786 c 0,77,78
 1102 779 1102 779 1087.5 772.5 c 128,-1,79
 1073 766 1073 766 1065.5 761.5 c 128,-1,80
 1058 757 1058 757 1048.5 750 c 128,-1,0
 1039 743 1039 743 1034 739.5 c 128,-1,1
334 256 m 0,81,82
 278 256 278 256 216 186.5 c 128,-1,83
 154 117 154 117 154 56 c 0,84,85
 154 40 154 40 164 29 c 128,-1,86
 174 18 174 18 198 18 c 128,-1,87
 222 18 222 18 286.5 60.5 c 128,-1,88
 351 103 351 103 402 158 c 1,89,90
 393 194 393 194 376 225 c 128,-1,91
 359 256 359 256 334 256 c 0,81,82
EndSplineSet
EndChar

StartChar: currency
Encoding: 164 164 101
Width: 880
GlyphClass: 2
Flags: W
LayerCount: 2
Fore
SplineSet
408.5 667 m 128,-1,1
 352 592 352 592 352 484 c 128,-1,2
 352 376 352 376 431 287 c 128,-1,3
 510 198 510 198 624 198 c 0,4,5
 719 198 719 198 778.5 272.5 c 128,-1,6
 838 347 838 347 838 458.5 c 128,-1,7
 838 570 838 570 759.5 656 c 128,-1,8
 681 742 681 742 568 742 c 2,9,-1
 564 742 l 2,10,0
 465 742 465 742 408.5 667 c 128,-1,1
888 766 m 128,-1,12
 891 768 891 768 894.5 768 c 128,-1,13
 898 768 898 768 905 765.5 c 128,-1,14
 912 763 912 763 912 759.5 c 128,-1,15
 912 756 912 756 903 748.5 c 128,-1,16
 894 741 894 741 871.5 723 c 128,-1,17
 849 705 849 705 828 686 c 1,18,19
 906 602 906 602 906 489 c 128,-1,20
 906 376 906 376 828 288 c 1,21,22
 832 284 832 284 855 260 c 0,23,24
 910 204 910 204 910 195 c 128,-1,25
 910 186 910 186 892.5 175 c 128,-1,26
 875 164 875 164 867 164 c 128,-1,27
 859 164 859 164 851.5 169 c 128,-1,28
 844 174 844 174 833 185.5 c 128,-1,29
 822 197 822 197 816 203.5 c 128,-1,30
 810 210 810 210 796.5 226.5 c 128,-1,31
 783 243 783 243 782 244 c 1,32,33
 683 164 683 164 571 164 c 128,-1,34
 459 164 459 164 384 230 c 1,35,36
 366 216 366 216 347 198 c 0,37,38
 304 159 304 159 302 160 c 1,39,40
 296 160 296 160 296 167.5 c 128,-1,41
 296 175 296 175 325.5 203 c 128,-1,42
 355 231 355 231 370 242 c 1,43,44
 284 328 284 328 284 456 c 0,45,46
 284 566 284 566 360 656 c 1,47,48
 344 677 344 677 311 711 c 128,-1,49
 278 745 278 745 278 747.5 c 128,-1,50
 278 750 278 750 299 767 c 128,-1,51
 320 784 320 784 329 784 c 128,-1,52
 338 784 338 784 346.5 773.5 c 128,-1,53
 355 763 355 763 371.5 741 c 128,-1,54
 388 719 388 719 406 700 c 1,55,56
 448 734 448 734 507.5 758 c 128,-1,57
 567 782 567 782 618 782 c 0,58,59
 727 782 727 782 816 700 c 1,60,61
 837 717 837 717 855 735 c 128,-1,62
 873 753 873 753 879 758.5 c 128,-1,11
 885 764 885 764 888 766 c 128,-1,12
EndSplineSet
EndChar

StartChar: yen
Encoding: 165 165 102
Width: 776
GlyphClass: 2
Flags: W
LayerCount: 2
Fore
SplineSet
620 470 m 1,0,-1
 588 470 l 1,1,2
 575 432 575 432 562 400 c 1,3,-1
 620 470 l 1,0,-1
316 506 m 2,4,-1
 528 500 l 1,5,6
 558 590 558 590 558 654 c 128,-1,7
 558 718 558 718 542 756 c 1,8,9
 524 794 524 794 498 813 c 0,10,11
 449 848 449 848 396 848 c 0,12,13
 320 848 320 848 254 782 c 0,14,15
 234 762 234 762 232 762 c 0,16,17
 226 762 226 762 226 768 c 128,-1,18
 226 774 226 774 248 796 c 0,19,20
 292 842 292 842 345 864 c 128,-1,21
 398 886 398 886 434 886 c 0,22,23
 516 886 516 886 573 832.5 c 128,-1,24
 630 779 630 779 630 670 c 0,25,26
 630 612 630 612 598 500 c 1,27,-1
 646 500 l 1,28,29
 725 589 725 589 810.5 671.5 c 128,-1,30
 896 754 896 754 998.5 824 c 128,-1,31
 1101 894 1101 894 1164 894 c 0,32,33
 1198 894 1198 894 1198 888 c 0,34,35
 1198 885 1198 885 1176 877.5 c 128,-1,36
 1154 870 1154 870 1108 848 c 128,-1,37
 1062 826 1062 826 1003.5 789 c 128,-1,38
 945 752 945 752 859 676 c 128,-1,39
 773 600 773 600 684 500 c 1,40,-1
 888 502 l 2,41,42
 894 502 894 502 894 491.5 c 128,-1,43
 894 481 894 481 878 473.5 c 128,-1,44
 862 466 862 466 827 466 c 128,-1,45
 792 466 792 466 656 470 c 1,46,47
 623 433 623 433 578 376 c 1,48,-1
 830 378 l 2,49,50
 838 378 838 378 838 372 c 0,51,52
 838 368 838 368 831.5 363.5 c 128,-1,53
 825 359 825 359 822 356 c 0,54,55
 808 342 808 342 782 342 c 0,56,57
 781 342 781 342 709.5 345 c 128,-1,58
 638 348 638 348 556 348 c 1,59,60
 515 296 515 296 500 270 c 1,61,62
 404 78 404 78 360 10 c 0,63,64
 354 0 354 0 345 -2.5 c 128,-1,65
 336 -5 336 -5 317.5 -8 c 128,-1,66
 299 -11 299 -11 284.5 -16.5 c 128,-1,67
 270 -22 270 -22 263 -27 c 128,-1,68
 256 -32 256 -32 249 -32 c 128,-1,69
 242 -32 242 -32 242 -26 c 0,70,71
 242 -24 242 -24 250 -14 c 0,72,73
 282 26 282 26 290 40 c 0,74,75
 402 221 402 221 464 348 c 1,76,77
 268 344 268 344 258 344 c 128,-1,78
 248 344 248 344 248 350 c 2,79,-1
 245 371 l 1,80,81
 245 380 245 380 251.5 380 c 128,-1,82
 258 380 258 380 286.5 378 c 128,-1,83
 315 376 315 376 386 376 c 2,84,-1
 478 376 l 1,85,86
 507 441 507 441 518 472 c 1,87,-1
 446 472 l 1,88,-1
 278 468 l 2,89,90
 270 468 270 468 270 471 c 128,-1,91
 270 474 270 474 271.5 475 c 128,-1,92
 273 476 273 476 276.5 478 c 128,-1,93
 280 480 280 480 283 483 c 128,-1,94
 286 486 286 486 290 492 c 0,95,96
 293 498 293 498 295 500 c 0,97,98
 300 506 300 506 316 506 c 2,4,-1
EndSplineSet
EndChar

StartChar: brokenbar
Encoding: 166 166 103
Width: 524
GlyphClass: 2
Flags: W
LayerCount: 2
Fore
SplineSet
324 502 m 2,0,-1
 324 962 l 2,1,2
 324 967 324 967 337 972 c 128,-1,3
 350 977 350 977 353 979.5 c 128,-1,4
 356 982 356 982 357 983 c 128,-1,5
 358 984 358 984 360 984 c 128,-1,6
 362 984 362 984 362 980 c 2,7,-1
 362 520 l 2,8,9
 362 515 362 515 353 513 c 0,10,11
 333 507 333 507 330.5 502.5 c 128,-1,12
 328 498 328 498 326 498 c 128,-1,13
 324 498 324 498 324 502 c 2,0,-1
324 374 m 2,14,15
 324 379 324 379 337 384 c 128,-1,16
 350 389 350 389 353 391.5 c 128,-1,17
 356 394 356 394 357 395 c 128,-1,18
 358 396 358 396 360 396 c 128,-1,19
 362 396 362 396 362 392 c 2,20,-1
 362 -82 l 2,21,22
 362 -87 362 -87 353 -89 c 0,23,24
 333 -95 333 -95 330.5 -99.5 c 128,-1,25
 328 -104 328 -104 326 -104 c 128,-1,26
 324 -104 324 -104 324 -100 c 2,27,-1
 324 374 l 2,14,15
EndSplineSet
EndChar

StartChar: section
Encoding: 167 167 104
Width: 576
GlyphClass: 2
Flags: W
LayerCount: 2
Fore
SplineSet
506 240 m 1,0,1
 531 260 531 260 544.5 295.5 c 128,-1,2
 558 331 558 331 558 363.5 c 128,-1,3
 558 396 558 396 535.5 430 c 128,-1,4
 513 464 513 464 485 489.5 c 128,-1,5
 457 515 457 515 427 552 c 128,-1,6
 397 589 397 589 386 624 c 1,7,8
 332 592 332 592 332 536 c 0,9,10
 332 474 332 474 390 421 c 0,11,12
 414 399 414 399 439 375.5 c 128,-1,13
 464 352 464 352 483.5 317 c 128,-1,14
 503 282 503 282 506 240 c 1,0,1
128 188 m 1,15,16
 112 168 112 168 112 154 c 0,17,18
 112 113 112 113 167 64.5 c 128,-1,19
 222 16 222 16 302 16 c 0,20,21
 340 16 340 16 370 34 c 1,22,23
 400 54 400 54 416 80 c 0,24,25
 446 132 446 132 446 171.5 c 128,-1,26
 446 211 446 211 428.5 249 c 128,-1,27
 411 287 411 287 386 315.5 c 128,-1,28
 361 344 361 344 336 370 c 0,29,30
 276 434 276 434 276 480.5 c 128,-1,31
 276 527 276 527 308 568.5 c 128,-1,32
 340 610 340 610 384 636 c 1,33,34
 380 656 380 656 380 668 c 0,35,36
 380 746 380 746 453 815 c 128,-1,37
 526 884 526 884 638 884 c 0,38,39
 692 884 692 884 741 850 c 128,-1,40
 790 816 790 816 790 770 c 0,41,42
 790 762 790 762 768.5 738 c 128,-1,43
 747 714 747 714 740 714 c 0,44,45
 736 714 736 714 736 720 c 0,46,47
 736 764 736 764 688.5 808 c 128,-1,48
 641 852 641 852 578.5 852 c 128,-1,49
 516 852 516 852 471 807.5 c 128,-1,50
 426 763 426 763 426 694 c 0,51,52
 426 644 426 644 486 582 c 0,53,54
 512 556 512 556 538 528 c 0,55,56
 598 462 598 462 598 388 c 0,57,58
 598 348 598 348 571.5 303 c 128,-1,59
 545 258 545 258 506 224 c 1,60,61
 506 195 506 195 486.5 154 c 128,-1,62
 467 113 467 113 435 72.5 c 128,-1,63
 403 32 403 32 352 4 c 128,-1,64
 301 -24 301 -24 246 -24 c 0,65,66
 158 -24 158 -24 101 20.5 c 128,-1,67
 44 65 44 65 44 108 c 0,68,69
 44 120 44 120 52 128 c 1,70,71
 74 144 74 144 97.5 169 c 128,-1,72
 121 194 121 194 122 194 c 0,73,74
 128 194 128 194 128 188 c 1,15,16
EndSplineSet
EndChar

StartChar: dieresis
Encoding: 168 168 105
Width: 352
GlyphClass: 4
Flags: W
AnchorPoint: "Anchor-5" 364 548 mark 0
LayerCount: 2
Fore
SplineSet
280 602 m 0,0,1
 280 624 280 624 300 648 c 1,2,3
 318 672 318 672 336 672 c 128,-1,4
 354 672 354 672 363 661.5 c 128,-1,5
 372 651 372 651 372 632 c 128,-1,6
 372 613 372 613 354 589.5 c 128,-1,7
 336 566 336 566 312 566 c 0,8,9
 280 566 280 566 280 602 c 0,0,1
432 602 m 0,10,11
 432 624 432 624 452 648 c 1,12,13
 470 672 470 672 488 672 c 128,-1,14
 506 672 506 672 515 661.5 c 128,-1,15
 524 651 524 651 524 632 c 128,-1,16
 524 613 524 613 506 589.5 c 128,-1,17
 488 566 488 566 464 566 c 0,18,19
 432 566 432 566 432 602 c 0,10,11
EndSplineSet
EndChar

StartChar: copyright
Encoding: 169 169 106
Width: 1072
GlyphClass: 2
Flags: W
LayerCount: 2
Fore
SplineSet
354 581 m 0,0,1
 290 458 290 458 290 325 c 0,2,3
 290 194 290 194 371 102 c 1,4,5
 452 8 452 8 587.5 8 c 128,-1,6
 723 8 723 8 834 78.5 c 128,-1,7
 945 149 945 149 1009.5 267.5 c 128,-1,8
 1074 386 1074 386 1074 532.5 c 128,-1,9
 1074 679 1074 679 994.5 769.5 c 128,-1,10
 915 860 915 860 766 860 c 0,11,12
 638 860 638 860 527.5 781.5 c 128,-1,13
 417 703 417 703 354 581 c 0,0,1
507.5 803.5 m 128,-1,15
 645 886 645 886 801 886 c 128,-1,16
 957 886 957 886 1056.5 791 c 128,-1,17
 1156 696 1156 696 1156 548 c 0,18,19
 1156 439 1156 439 1105.5 333.5 c 128,-1,20
 1055 228 1055 228 973 150 c 128,-1,21
 891 72 891 72 781 24 c 128,-1,22
 671 -24 671 -24 556 -24 c 0,23,24
 396 -24 396 -24 301 71 c 128,-1,25
 206 166 206 166 206 311.5 c 128,-1,26
 206 457 206 457 288 589 c 128,-1,14
 370 721 370 721 507.5 803.5 c 128,-1,15
734 676 m 0,27,28
 628 676 628 676 545 569.5 c 128,-1,29
 462 463 462 463 462 332 c 0,30,31
 462 265 462 265 508 215.5 c 128,-1,32
 554 166 554 166 614 166 c 0,33,34
 656 166 656 166 699 184.5 c 128,-1,35
 742 203 742 203 769 225 c 128,-1,36
 796 247 796 247 816.5 265.5 c 128,-1,37
 837 284 837 284 840.5 284 c 128,-1,38
 844 284 844 284 844 272 c 2,39,-1
 844 246 l 2,40,41
 844 234 844 234 805 210 c 128,-1,42
 766 186 766 186 702 165 c 128,-1,43
 638 144 638 144 582 144 c 0,44,45
 498 144 498 144 447 195 c 128,-1,46
 396 246 396 246 396 337.5 c 128,-1,47
 396 429 396 429 458.5 520.5 c 128,-1,48
 521 612 521 612 608 662 c 128,-1,49
 695 712 695 712 774 712 c 0,50,51
 820 712 820 712 860 694.5 c 128,-1,52
 900 677 900 677 918 659.5 c 128,-1,53
 936 642 936 642 936 635 c 128,-1,54
 936 628 936 628 934 623 c 256,55,56
 932 618 932 618 928 614 c 2,57,-1
 917 604 l 2,58,59
 905 592 905 592 902 587 c 0,60,61
 895 578 895 578 890.5 578 c 128,-1,62
 886 578 886 578 886 588 c 1,63,64
 879 623 879 623 832.5 649.5 c 128,-1,65
 786 676 786 676 734 676 c 0,27,28
EndSplineSet
EndChar

StartChar: ordfeminine
Encoding: 170 170 107
Width: 444
GlyphClass: 2
Flags: W
LayerCount: 2
Fore
SplineSet
392 446 m 1,0,1
 427 561 427 561 518 668 c 1,2,3
 502 716 502 716 448 716 c 0,4,5
 376 716 376 716 306 626.5 c 128,-1,6
 236 537 236 537 236 458 c 0,7,8
 236 436 236 436 246.5 416 c 128,-1,9
 257 396 257 396 278 396 c 0,10,11
 315 396 315 396 392 446 c 1,0,1
598 690 m 0,12,13
 552 644 552 644 505 565 c 128,-1,14
 458 486 458 486 458 428 c 0,15,16
 458 390 458 390 496 390 c 0,17,18
 530 390 530 390 564 411 c 128,-1,19
 598 432 598 432 618 468 c 0,20,21
 618 470 618 470 622 472 c 256,22,23
 626 474 626 474 630 474 c 128,-1,24
 634 474 634 474 634 472 c 0,25,26
 634 441 634 441 571.5 396.5 c 128,-1,27
 509 352 509 352 452 352 c 0,28,29
 421 352 421 352 402.5 367 c 128,-1,30
 384 382 384 382 384 408 c 0,31,32
 384 410 384 410 385 415 c 128,-1,33
 386 420 386 420 386 422 c 1,34,35
 305 366 305 366 242 366 c 0,36,37
 208 366 208 366 185 390 c 128,-1,38
 162 414 162 414 162 450 c 0,39,40
 162 514 162 514 207.5 581 c 128,-1,41
 253 648 253 648 320 691 c 128,-1,42
 387 734 387 734 451 734 c 128,-1,43
 515 734 515 734 534 682 c 1,44,45
 548 696 548 696 566 702 c 1,46,47
 586 712 586 712 606 712 c 0,48,49
 612 712 612 712 612 708 c 128,-1,50
 612 704 612 704 598 690 c 0,12,13
EndSplineSet
EndChar

StartChar: guillemotleft
Encoding: 171 171 108
Width: 626
GlyphClass: 2
Flags: W
LayerCount: 2
Fore
SplineSet
686 448 m 128,-1,1
 692 448 692 448 692 441.5 c 128,-1,2
 692 435 692 435 680 426 c 0,3,4
 503 292 503 292 460.5 255.5 c 128,-1,5
 418 219 418 219 418 202 c 128,-1,6
 418 185 418 185 442 131.5 c 128,-1,7
 466 78 466 78 490 32 c 128,-1,8
 514 -14 514 -14 514 -17.5 c 128,-1,9
 514 -21 514 -21 487 -26.5 c 128,-1,10
 460 -32 460 -32 453 -32 c 128,-1,11
 446 -32 446 -32 441.5 -25 c 128,-1,12
 437 -18 437 -18 400.5 72 c 128,-1,13
 364 162 364 162 364 183.5 c 128,-1,14
 364 205 364 205 380 218 c 1,15,16
 461 277 461 277 539.5 339 c 128,-1,17
 618 401 618 401 649 424.5 c 128,-1,0
 680 448 680 448 686 448 c 128,-1,1
560.5 478 m 128,-1,19
 566 478 566 478 566 472 c 0,20,21
 566 463 566 463 552 454 c 1,22,23
 480 396 480 396 387 323 c 128,-1,24
 294 250 294 250 279 236 c 128,-1,25
 264 222 264 222 264 208 c 128,-1,26
 264 194 264 194 305 83 c 128,-1,27
 346 -28 346 -28 346 -34 c 128,-1,28
 346 -40 346 -40 342.5 -41.5 c 128,-1,29
 339 -43 339 -43 328.5 -45 c 128,-1,30
 318 -47 318 -47 305.5 -50.5 c 128,-1,31
 293 -54 293 -54 285.5 -54 c 128,-1,32
 278 -54 278 -54 276 -50 c 0,33,34
 264 -26 264 -26 236 78.5 c 128,-1,35
 208 183 208 183 208 194.5 c 128,-1,36
 208 206 208 206 214 212 c 1,37,38
 265 246 265 246 410 362 c 128,-1,18
 555 478 555 478 560.5 478 c 128,-1,19
EndSplineSet
EndChar

StartChar: logicalnot
Encoding: 172 172 109
Width: 716
GlyphClass: 2
Flags: W
LayerCount: 2
Fore
SplineSet
200 350 m 2,0,-1
 514 346 l 1,1,-1
 664 348 l 2,2,3
 676 348 676 348 676 340 c 0,4,5
 676 330 676 330 588 174 c 0,6,7
 586 170 586 170 532 162 c 1,8,-1
 514 160 l 1,9,10
 500 160 500 160 508 176 c 0,11,12
 571 294 571 294 578 310 c 1,13,-1
 172 304 l 2,14,15
 168 304 168 304 168 308 c 128,-1,16
 168 312 168 312 180 331 c 128,-1,17
 192 350 192 350 200 350 c 2,0,-1
EndSplineSet
EndChar

StartChar: uni00AD
Encoding: 173 173 110
Width: 496
GlyphClass: 2
Flags: W
LayerCount: 2
Fore
SplineSet
200 352 m 2,0,-1
 440 346 l 1,1,-1
 532 348 l 2,2,3
 536 348 536 348 536 346 c 128,-1,4
 536 344 536 344 535 342 c 128,-1,5
 534 340 534 340 531 335 c 128,-1,6
 528 330 528 330 526 325 c 128,-1,7
 524 320 524 320 522 313 c 0,8,9
 519 302 519 302 514.5 302 c 128,-1,10
 510 302 510 302 432.5 306 c 128,-1,11
 355 310 355 310 298 310 c 1,12,-1
 172 306 l 2,13,14
 168 306 168 306 168 308 c 128,-1,15
 168 310 168 310 170 312 c 0,16,17
 184 326 184 326 189 337 c 0,18,19
 195 352 195 352 200 352 c 2,0,-1
EndSplineSet
EndChar

StartChar: registered
Encoding: 174 174 111
Width: 1072
GlyphClass: 2
Flags: W
LayerCount: 2
Fore
SplineSet
584 490 m 1,0,1
 798 538 798 538 855 590 c 0,2,3
 880 612 880 612 880 639 c 128,-1,4
 880 666 880 666 863.5 688 c 128,-1,5
 847 710 847 710 808 710 c 0,6,7
 705 710 705 710 584 490 c 1,0,1
507.5 803.5 m 128,-1,9
 645 886 645 886 801 886 c 128,-1,10
 957 886 957 886 1056.5 791 c 128,-1,11
 1156 696 1156 696 1156 553 c 128,-1,12
 1156 410 1156 410 1080.5 285 c 128,-1,13
 1005 160 1005 160 880 78 c 1,14,15
 917 58 917 58 959 58 c 128,-1,16
 1001 58 1001 58 1031.5 72 c 128,-1,17
 1062 86 1062 86 1081.5 100 c 128,-1,18
 1101 114 1101 114 1108.5 114 c 128,-1,19
 1116 114 1116 114 1116 108 c 0,20,21
 1116 83 1116 83 1059 54.5 c 128,-1,22
 1002 26 1002 26 946 26 c 128,-1,23
 890 26 890 26 836 50 c 1,24,25
 698 -24 698 -24 547 -24 c 128,-1,26
 396 -24 396 -24 301 71 c 128,-1,27
 206 166 206 166 206 311.5 c 128,-1,28
 206 457 206 457 288 589 c 128,-1,8
 370 721 370 721 507.5 803.5 c 128,-1,9
862 734 m 0,29,30
 902 734 902 734 932 713 c 128,-1,31
 962 692 962 692 962 662 c 0,32,33
 962 542 962 542 576 462 c 1,34,35
 675 306 675 306 740.5 216 c 128,-1,36
 806 126 806 126 854 92 c 1,37,38
 955 164 955 164 1014.5 278 c 128,-1,39
 1074 392 1074 392 1074 522 c 0,40,41
 1074 679 1074 679 994.5 769.5 c 128,-1,42
 915 860 915 860 766 860 c 0,43,44
 638 860 638 860 527.5 781.5 c 128,-1,45
 417 703 417 703 354 581 c 0,46,47
 290 458 290 458 290 325 c 0,48,49
 290 194 290 194 371 102 c 1,50,51
 452 8 452 8 596 8 c 0,52,53
 708 8 708 8 808 64 c 1,54,55
 785 76 785 76 763 102 c 128,-1,56
 741 128 741 128 727.5 144.5 c 128,-1,57
 714 161 714 161 695.5 186.5 c 128,-1,58
 677 212 677 212 664.5 229.5 c 128,-1,59
 652 247 652 247 632.5 276.5 c 128,-1,60
 613 306 613 306 602.5 321.5 c 128,-1,61
 592 337 592 337 572.5 367.5 c 128,-1,62
 553 398 553 398 546 408 c 1,63,64
 524 364 524 364 498 306 c 0,65,66
 448 195 448 195 442 194 c 1,67,68
 420 194 420 194 395.5 190 c 128,-1,69
 371 186 371 186 362.5 186 c 128,-1,70
 354 186 354 186 354 194 c 1,71,-1
 582 594 l 1,72,73
 623 652 623 652 707.5 693 c 128,-1,74
 792 734 792 734 862 734 c 0,29,30
EndSplineSet
EndChar

StartChar: macron
Encoding: 175 175 112
Width: 330
GlyphClass: 2
Flags: W
LayerCount: 2
Fore
SplineSet
434 644 m 1,0,-1
 240 642 l 2,1,2
 226 642 226 642 226 657 c 128,-1,3
 226 672 226 672 234 672 c 2,4,-1
 336 670 l 1,5,-1
 558 672 l 2,6,7
 574 672 574 672 574 660 c 0,8,9
 574 642 574 642 536 642 c 2,10,11
 536 642 536 642 434 644 c 1,0,-1
EndSplineSet
EndChar

StartChar: degree
Encoding: 176 176 113
Width: 334
GlyphClass: 2
Flags: W
LayerCount: 2
Fore
SplineSet
324.5 826 m 128,-1,1
 306 800 306 800 306 755.5 c 128,-1,2
 306 711 306 711 333.5 679.5 c 128,-1,3
 361 648 361 648 408 648 c 0,4,5
 441 648 441 648 460.5 679 c 128,-1,6
 480 710 480 710 480 747.5 c 128,-1,7
 480 785 480 785 452 818.5 c 128,-1,8
 424 852 424 852 383.5 852 c 128,-1,0
 343 852 343 852 324.5 826 c 128,-1,1
291 653.5 m 128,-1,10
 258 687 258 687 258 741.5 c 128,-1,11
 258 796 258 796 312 840 c 128,-1,12
 366 884 366 884 424 884 c 0,13,14
 463 884 463 884 496.5 853 c 128,-1,15
 530 822 530 822 530 765 c 128,-1,16
 530 708 530 708 480 664 c 128,-1,17
 430 620 430 620 366 620 c 0,18,9
 324 620 324 620 291 653.5 c 128,-1,10
EndSplineSet
EndChar

StartChar: plusminus
Encoding: 177 177 114
Width: 842
GlyphClass: 2
Flags: W
LayerCount: 2
Fore
SplineSet
502 298 m 1,0,1
 394 290 394 290 310 246.5 c 128,-1,2
 226 203 226 203 226 142 c 0,3,4
 226 120 226 120 241.5 104 c 128,-1,5
 257 88 257 88 282 88 c 0,6,7
 339 88 339 88 400.5 155.5 c 128,-1,8
 462 223 462 223 502 298 c 1,0,1
822 354 m 0,9,10
 822 345 822 345 792.5 325.5 c 128,-1,11
 763 306 763 306 756 306 c 0,12,13
 652 306 652 306 568 302 c 1,14,15
 533 233 533 233 490.5 184.5 c 128,-1,16
 448 136 448 136 408 114 c 1,17,18
 307 75 307 75 284 76 c 0,19,20
 283 76 283 76 282 76 c 0,21,22
 250 76 250 76 231 94.5 c 128,-1,23
 212 113 212 113 212 136 c 0,24,25
 212 203 212 203 289 264 c 128,-1,26
 366 325 366 325 522 340 c 1,27,28
 574 453 574 453 574 496 c 0,29,30
 574 516 574 516 559 531 c 128,-1,31
 544 546 544 546 511 546 c 128,-1,32
 478 546 478 546 443.5 532.5 c 128,-1,33
 409 519 409 519 389.5 505.5 c 128,-1,34
 370 492 370 492 367 492 c 128,-1,35
 364 492 364 492 364 496 c 0,36,37
 364 503 364 503 391.5 522 c 128,-1,38
 419 541 419 541 472 560.5 c 128,-1,39
 525 580 525 580 578 580 c 0,40,41
 600 580 600 580 622 564.5 c 128,-1,42
 644 549 644 549 644 522 c 0,43,44
 644 452 644 452 590 344 c 1,45,46
 725 353 725 353 820 356 c 0,47,48
 822 356 822 356 822 354 c 0,9,10
148 44 m 2,49,-1
 510 36 l 1,50,-1
 690 40 l 2,51,52
 694 40 694 40 694 38 c 128,-1,53
 694 36 694 36 693 34 c 128,-1,54
 692 32 692 32 689 27 c 128,-1,55
 686 22 686 22 684 16 c 0,56,57
 682 12 682 12 680 4 c 0,58,59
 676 -10 676 -10 672 -10 c 2,60,-1
 296 -2 l 1,61,-1
 120 -6 l 2,62,63
 116 -6 116 -6 116 -4 c 128,-1,64
 116 -2 116 -2 118.5 1 c 128,-1,65
 121 4 121 4 125.5 9 c 128,-1,66
 130 14 130 14 132 18 c 0,67,68
 135 22 135 22 138 30 c 0,69,70
 143 44 143 44 148 44 c 2,49,-1
EndSplineSet
EndChar

StartChar: uni00B2
Encoding: 178 178 115
Width: 492
GlyphClass: 2
Flags: W
LayerCount: 2
Fore
SplineSet
624 500 m 1,0,1
 628 500 628 500 628 495.5 c 128,-1,2
 628 491 628 491 601 476 c 128,-1,3
 574 461 574 461 533 447.5 c 128,-1,4
 492 434 492 434 461 434 c 128,-1,5
 430 434 430 434 350.5 480 c 128,-1,6
 271 526 271 526 239.5 526 c 128,-1,7
 208 526 208 526 166 499 c 128,-1,8
 124 472 124 472 117 472 c 128,-1,9
 110 472 110 472 110 477.5 c 128,-1,10
 110 483 110 483 154.5 510.5 c 128,-1,11
 199 538 199 538 269 575 c 128,-1,12
 339 612 339 612 380.5 632 c 128,-1,13
 422 652 422 652 458.5 673 c 128,-1,14
 495 694 495 694 510.5 714.5 c 128,-1,15
 526 735 526 735 526 760 c 0,16,17
 526 844 526 844 422 844 c 0,18,19
 369 844 369 844 334 802 c 0,20,21
 330 796 330 796 326 796 c 128,-1,22
 322 796 322 796 322 799 c 128,-1,23
 322 802 322 802 324 805.5 c 128,-1,24
 326 809 326 809 329.5 814.5 c 128,-1,25
 333 820 333 820 346.5 833.5 c 128,-1,26
 360 847 360 847 376 857 c 0,27,28
 419 884 419 884 466 884 c 128,-1,29
 513 884 513 884 537.5 875 c 128,-1,30
 562 866 562 866 573 852 c 0,31,32
 592 827 592 827 592 798 c 1,33,34
 590 754 590 754 540.5 709.5 c 128,-1,35
 491 665 491 665 444 640.5 c 128,-1,36
 397 616 397 616 341.5 590.5 c 128,-1,37
 286 565 286 565 280 562 c 1,38,39
 326 562 326 562 372 539 c 128,-1,40
 418 516 418 516 457 493 c 128,-1,41
 496 470 496 470 528 470 c 256,42,43
 560 470 560 470 592 485 c 2,44,-1
 624 500 l 1,0,1
EndSplineSet
EndChar

StartChar: uni00B3
Encoding: 179 179 116
Width: 492
GlyphClass: 2
Flags: W
LayerCount: 2
Fore
SplineSet
429.5 877.5 m 128,-1,1
 457 886 457 886 500.5 886 c 128,-1,2
 544 886 544 886 569 864 c 128,-1,3
 594 842 594 842 594 816.5 c 128,-1,4
 594 791 594 791 582 772 c 0,5,6
 570 754 570 754 547 740 c 0,7,8
 511 719 511 719 462 702 c 1,9,10
 494 691 494 691 508 674.5 c 128,-1,11
 522 658 522 658 522 628 c 0,12,13
 522 565 522 565 441.5 514.5 c 128,-1,14
 361 464 361 464 274 464 c 0,15,16
 235 464 235 464 198.5 486 c 128,-1,17
 162 508 162 508 162 548 c 0,18,19
 162 556 162 556 185.5 570 c 128,-1,20
 209 584 209 584 215.5 584 c 128,-1,21
 222 584 222 584 222 582 c 0,22,23
 222 549 222 549 254 524.5 c 128,-1,24
 286 500 286 500 322 500 c 0,25,26
 398 500 398 500 432 530 c 128,-1,27
 466 560 466 560 466 600 c 0,28,29
 466 674 466 674 358 674 c 0,30,31
 345 674 345 674 364 690 c 0,32,33
 384 706 384 706 412 712.5 c 128,-1,34
 440 719 440 719 465.5 730.5 c 128,-1,35
 491 742 491 742 502 755 c 0,36,37
 520 776 520 776 520 799 c 128,-1,38
 520 822 520 822 502.5 839 c 128,-1,39
 485 856 485 856 453 856 c 128,-1,40
 421 856 421 856 398 844 c 0,41,42
 366 828 366 828 353 813 c 128,-1,43
 340 798 340 798 336 798 c 128,-1,44
 332 798 332 798 332 801 c 128,-1,45
 332 804 332 804 334 807.5 c 128,-1,46
 336 811 336 811 339.5 816.5 c 128,-1,47
 343 822 343 822 356.5 835.5 c 128,-1,48
 370 849 370 849 386 859 c 128,-1,0
 402 869 402 869 429.5 877.5 c 128,-1,1
EndSplineSet
EndChar

StartChar: acute
Encoding: 180 180 117
Width: 316
GlyphClass: 2
Flags: W
LayerCount: 2
Fore
SplineSet
258 562 m 2,0,-1
 496 700 l 2,1,2
 505 706 505 706 512 706 c 0,3,4
 516 706 516 706 516 698 c 128,-1,5
 516 690 516 690 509.5 677.5 c 128,-1,6
 503 665 503 665 496 662 c 0,7,8
 464 648 464 648 400 618 c 0,9,10
 248 546 248 546 242 546 c 128,-1,11
 236 546 236 546 236 547.5 c 128,-1,12
 236 549 236 549 258 562 c 2,0,-1
EndSplineSet
EndChar

StartChar: uni00B5
Encoding: 181 181 118
Width: 618
GlyphClass: 2
Flags: W
LayerCount: 2
Fore
SplineSet
268 432 m 2,0,-1
 296 446 l 1,1,2
 304 446 304 446 306 443.5 c 128,-1,3
 308 441 308 441 308 433 c 0,4,5
 308 424 308 424 286 382 c 0,6,7
 230 272 230 272 116 94 c 1,8,9
 116 81 116 81 118.5 68.5 c 128,-1,10
 121 56 121 56 138.5 40 c 128,-1,11
 156 24 156 24 188 24 c 0,12,13
 239 24 239 24 297 63 c 128,-1,14
 355 102 355 102 392 142 c 1,15,16
 414 190 414 190 470 290.5 c 128,-1,17
 526 391 526 391 540 408 c 1,18,19
 575 446 575 446 604 446 c 0,20,21
 612 446 612 446 612 434 c 128,-1,22
 612 422 612 422 565.5 339.5 c 128,-1,23
 519 257 519 257 462 184 c 1,24,25
 428 110 428 110 428 58 c 0,26,27
 428 42 428 42 437 31 c 128,-1,28
 446 20 446 20 460 20 c 0,29,30
 505 20 505 20 555 44 c 128,-1,31
 605 68 605 68 644.5 102.5 c 128,-1,32
 684 137 684 137 717 171.5 c 128,-1,33
 750 206 750 206 770.5 230 c 128,-1,34
 791 254 791 254 794.5 254 c 128,-1,35
 798 254 798 254 798 248 c 128,-1,36
 798 242 798 242 696 132 c 1,37,38
 623 56 623 56 543 18 c 128,-1,39
 463 -20 463 -20 411.5 -20 c 128,-1,40
 360 -20 360 -20 360 26 c 0,41,42
 360 56 360 56 376 98 c 1,43,44
 224 -16 224 -16 128 -16 c 0,45,46
 81 -16 81 -16 62 14 c 1,47,48
 -69 -178 -69 -178 -204 -340 c 128,-1,49
 -339 -502 -339 -502 -439.5 -597.5 c 128,-1,50
 -540 -693 -540 -693 -625 -760.5 c 128,-1,51
 -710 -828 -710 -828 -754.5 -854 c 128,-1,52
 -799 -880 -799 -880 -805.5 -880 c 128,-1,53
 -812 -880 -812 -880 -812 -877.5 c 128,-1,54
 -812 -875 -812 -875 -774.5 -852 c 128,-1,55
 -737 -829 -737 -829 -658.5 -768 c 128,-1,56
 -580 -707 -580 -707 -481.5 -613.5 c 128,-1,57
 -383 -520 -383 -520 -239.5 -345.5 c 128,-1,58
 -96 -171 -96 -171 52 48 c 1,59,60
 52 94 52 94 127 234 c 128,-1,61
 202 374 202 374 236 408 c 0,62,63
 252 424 252 424 268 432 c 2,0,-1
EndSplineSet
EndChar

StartChar: paragraph
Encoding: 182 182 119
Width: 670
GlyphClass: 2
Flags: W
LayerCount: 2
Fore
SplineSet
444 332 m 1,0,1
 354 338 354 338 282 380 c 0,2,3
 244 402 244 402 222 443 c 128,-1,4
 200 484 200 484 200 530.5 c 128,-1,5
 200 577 200 577 218.5 620.5 c 128,-1,6
 237 664 237 664 280 711.5 c 128,-1,7
 323 759 323 759 384.5 797.5 c 128,-1,8
 446 836 446 836 541.5 861 c 128,-1,9
 637 886 637 886 729 886 c 128,-1,10
 821 886 821 886 880 870 c 128,-1,11
 939 854 939 854 943.5 854 c 128,-1,12
 948 854 948 854 948 851 c 128,-1,13
 948 848 948 848 944.5 845 c 128,-1,14
 941 842 941 842 933.5 836 c 128,-1,15
 926 830 926 830 912 816 c 128,-1,16
 898 802 898 802 894 802 c 128,-1,17
 890 802 890 802 881 809 c 0,18,19
 853 831 853 831 786 840 c 1,20,21
 716 714 716 714 544 370 c 1,22,23
 664 370 664 370 772 404 c 0,24,25
 776 406 776 406 780 406 c 128,-1,26
 784 406 784 406 784 403.5 c 128,-1,27
 784 401 784 401 763.5 391 c 128,-1,28
 743 381 743 381 668.5 360 c 128,-1,29
 594 339 594 339 524 332 c 1,30,31
 393 75 393 75 364 4 c 0,32,33
 360 -6 360 -6 348.5 -7.5 c 128,-1,34
 337 -9 337 -9 315 -10 c 128,-1,35
 293 -11 293 -11 278.5 -16.5 c 128,-1,36
 264 -22 264 -22 257 -27 c 128,-1,37
 250 -32 250 -32 243 -32 c 128,-1,38
 236 -32 236 -32 236 -27.5 c 128,-1,39
 236 -23 236 -23 242 -12 c 0,40,41
 248 -2 248 -2 258 14 c 0,42,43
 348 162 348 162 444 332 c 1,0,1
272 576 m 0,44,45
 272 491 272 491 329 444.5 c 128,-1,46
 386 398 386 398 472 380 c 1,47,-1
 540 499 l 2,48,49
 621 640 621 640 726 846 c 1,50,51
 615 846 615 846 530.5 828 c 128,-1,52
 446 810 446 810 398 782.5 c 128,-1,53
 350 755 350 755 320.5 717 c 128,-1,54
 291 679 291 679 281.5 646 c 128,-1,55
 272 613 272 613 272 576 c 0,44,45
EndSplineSet
EndChar

StartChar: periodcentered
Encoding: 183 183 120
Width: 438
GlyphClass: 4
Flags: W
AnchorPoint: "Anchor-0" 336 374 mark 0
LayerCount: 2
Fore
SplineSet
290 358 m 0,0,1
 290 380 290 380 310 404 c 1,2,3
 328 428 328 428 346 428 c 128,-1,4
 364 428 364 428 373 417.5 c 128,-1,5
 382 407 382 407 382 388 c 128,-1,6
 382 369 382 369 364 345.5 c 128,-1,7
 346 322 346 322 322 322 c 0,8,9
 290 322 290 322 290 358 c 0,0,1
EndSplineSet
EndChar

StartChar: cedilla
Encoding: 184 184 121
Width: 400
GlyphClass: 4
Flags: W
AnchorPoint: "Anchor-4" 160 0 mark 0
LayerCount: 2
Fore
SplineSet
172 0 m 0,0,1
 172 -4 172 -4 118 -94 c 1,2,3
 180 -94 180 -94 207 -121 c 128,-1,4
 234 -148 234 -148 234 -185.5 c 128,-1,5
 234 -223 234 -223 200 -256.5 c 128,-1,6
 166 -290 166 -290 121.5 -290 c 128,-1,7
 77 -290 77 -290 49.5 -268 c 128,-1,8
 22 -246 22 -246 22 -228 c 0,9,10
 22 -225 22 -225 32 -220.5 c 128,-1,11
 42 -216 42 -216 48 -216 c 0,12,13
 50 -216 50 -216 57.5 -232 c 128,-1,14
 65 -248 65 -248 81.5 -264 c 128,-1,15
 98 -280 98 -280 126 -280 c 128,-1,16
 154 -280 154 -280 175 -258 c 128,-1,17
 196 -236 196 -236 196 -211 c 128,-1,18
 196 -186 196 -186 186 -172.5 c 128,-1,19
 176 -159 176 -159 158 -154 c 0,20,21
 129 -146 129 -146 105.5 -146 c 128,-1,22
 82 -146 82 -146 78 -150 c 128,-1,23
 74 -154 74 -154 67 -154 c 128,-1,24
 60 -154 60 -154 60 -152 c 0,25,26
 60 -148 60 -148 74 -126 c 0,27,28
 122 -51 122 -51 152 0 c 0,29,30
 154 2 154 2 163 2 c 128,-1,31
 172 2 172 2 172 0 c 0,0,1
EndSplineSet
EndChar

StartChar: uni00B9
Encoding: 185 185 122
Width: 366
GlyphClass: 2
Flags: W
LayerCount: 2
Fore
SplineSet
198 742 m 2,0,-1
 216 738 l 1,1,2
 321 738 321 738 422 824 c 1,3,4
 450 857 450 857 474.5 871.5 c 128,-1,5
 499 886 499 886 507.5 886 c 128,-1,6
 516 886 516 886 516 876 c 0,7,8
 516 847 516 847 468 802 c 1,9,10
 424 738 424 738 332 540 c 0,11,12
 305 481 305 481 303.5 478.5 c 128,-1,13
 302 476 302 476 298 473 c 128,-1,14
 294 470 294 470 292 470 c 0,15,16
 288 471 288 471 263 466.5 c 128,-1,17
 238 462 238 462 228 462 c 128,-1,18
 218 462 218 462 218 468.5 c 128,-1,19
 218 475 218 475 236 496 c 1,20,21
 257 518 257 518 280 556.5 c 128,-1,22
 303 595 303 595 342.5 671.5 c 128,-1,23
 382 748 382 748 400 780 c 1,24,25
 295 726 295 726 236 726 c 0,26,27
 226 726 226 726 210 730 c 128,-1,28
 194 734 194 734 194 738 c 128,-1,29
 194 742 194 742 198 742 c 2,0,-1
EndSplineSet
EndChar

StartChar: ordmasculine
Encoding: 186 186 123
Width: 396
GlyphClass: 2
Flags: W
LayerCount: 2
Fore
SplineSet
234 526 m 0,0,1
 234 474 234 474 268.5 440 c 128,-1,2
 303 406 303 406 362.5 406 c 128,-1,3
 422 406 422 406 460 459 c 128,-1,4
 498 512 498 512 498 565.5 c 128,-1,5
 498 619 498 619 463.5 652.5 c 128,-1,6
 429 686 429 686 380.5 686 c 128,-1,7
 332 686 332 686 297.5 657.5 c 128,-1,8
 263 629 263 629 248.5 593.5 c 128,-1,9
 234 558 234 558 234 526 c 0,0,1
213.5 405 m 128,-1,11
 176 440 176 440 176 497 c 128,-1,12
 176 554 176 554 216.5 608.5 c 128,-1,13
 257 663 257 663 315.5 693.5 c 128,-1,14
 374 724 374 724 430 724 c 128,-1,15
 486 724 486 724 524 688 c 128,-1,16
 562 652 562 652 562 600 c 0,17,18
 562 510 562 510 476.5 440 c 128,-1,19
 391 370 391 370 302 370 c 0,20,10
 251 370 251 370 213.5 405 c 128,-1,11
EndSplineSet
EndChar

StartChar: guillemotright
Encoding: 187 187 124
Width: 478
GlyphClass: 2
Flags: W
LayerCount: 2
Fore
SplineSet
20 -26 m 128,-1,1
 14 -26 14 -26 14 -19.5 c 128,-1,2
 14 -13 14 -13 26 -4 c 0,3,4
 203 130 203 130 245.5 166.5 c 128,-1,5
 288 203 288 203 288 220 c 128,-1,6
 288 237 288 237 264 290.5 c 128,-1,7
 240 344 240 344 216 390 c 128,-1,8
 192 436 192 436 192 439.5 c 128,-1,9
 192 443 192 443 219 448.5 c 128,-1,10
 246 454 246 454 253 454 c 128,-1,11
 260 454 260 454 264.5 447 c 128,-1,12
 269 440 269 440 305.5 350 c 128,-1,13
 342 260 342 260 342 238.5 c 128,-1,14
 342 217 342 217 326 204 c 1,15,16
 245 145 245 145 166.5 83 c 128,-1,17
 88 21 88 21 57 -2.5 c 128,-1,0
 26 -26 26 -26 20 -26 c 128,-1,1
145.5 -56 m 128,-1,19
 140 -56 140 -56 140 -50 c 0,20,21
 140 -41 140 -41 154 -32 c 1,22,23
 226 26 226 26 319 99 c 128,-1,24
 412 172 412 172 427 186 c 128,-1,25
 442 200 442 200 442 214 c 128,-1,26
 442 228 442 228 401 339 c 128,-1,27
 360 450 360 450 360 456 c 128,-1,28
 360 462 360 462 363.5 463.5 c 128,-1,29
 367 465 367 465 377.5 467 c 128,-1,30
 388 469 388 469 400.5 472.5 c 128,-1,31
 413 476 413 476 420.5 476 c 128,-1,32
 428 476 428 476 430 472 c 0,33,34
 442 448 442 448 470 343.5 c 128,-1,35
 498 239 498 239 498 227.5 c 128,-1,36
 498 216 498 216 492 210 c 1,37,38
 441 176 441 176 296 60 c 128,-1,18
 151 -56 151 -56 145.5 -56 c 128,-1,19
EndSplineSet
EndChar

StartChar: onequarter
Encoding: 188 188 125
Width: 886
GlyphClass: 2
Flags: W
LayerCount: 2
Fore
SplineSet
332 768 m 2,0,-1
 350 764 l 1,1,2
 455 764 455 764 556 850 c 1,3,4
 584 883 584 883 608.5 897.5 c 128,-1,5
 633 912 633 912 641.5 912 c 128,-1,6
 650 912 650 912 650 902 c 0,7,8
 650 873 650 873 602 828 c 1,9,10
 558 764 558 764 466 566 c 0,11,12
 439 507 439 507 437.5 504.5 c 128,-1,13
 436 502 436 502 432 499 c 128,-1,14
 428 496 428 496 426 496 c 0,15,16
 422 497 422 497 397 492.5 c 128,-1,17
 372 488 372 488 362 488 c 128,-1,18
 352 488 352 488 352 494.5 c 128,-1,19
 352 501 352 501 370 522 c 1,20,21
 391 544 391 544 414 582.5 c 128,-1,22
 437 621 437 621 476.5 697.5 c 128,-1,23
 516 774 516 774 534 806 c 1,24,25
 429 752 429 752 370 752 c 0,26,27
 360 752 360 752 344 756 c 128,-1,28
 328 760 328 760 328 764 c 128,-1,29
 328 768 328 768 332 768 c 2,0,-1
870.5 305.5 m 128,-1,31
 876 310 876 310 886 316 c 1,32,33
 894 322 894 322 908 332 c 0,34,35
 933 352 933 352 942.5 352 c 128,-1,36
 952 352 952 352 952 348 c 0,37,38
 952 338 952 338 936.5 323.5 c 128,-1,39
 921 309 921 309 916 302 c 1,40,-1
 738 -46 l 1,41,42
 730 -68 730 -68 722 -66 c 0,43,44
 718 -65 718 -65 693 -69.5 c 128,-1,45
 668 -74 668 -74 658 -74 c 128,-1,46
 648 -74 648 -74 648 -67.5 c 128,-1,47
 648 -61 648 -61 666 -40 c 1,48,49
 699 -5 699 -5 768 126 c 1,50,51
 680 110 680 110 614 110 c 0,52,53
 589 110 589 110 569.5 121 c 128,-1,54
 550 132 550 132 550 155.5 c 128,-1,55
 550 179 550 179 572.5 205.5 c 128,-1,56
 595 232 595 232 652 278 c 1,57,58
 680 302 680 302 704 334 c 0,59,60
 718 352 718 352 762 352 c 0,61,62
 768 352 768 352 768 346 c 0,63,64
 768 342 768 342 727.5 310.5 c 128,-1,65
 687 279 687 279 646.5 238 c 128,-1,66
 606 197 606 197 606 172 c 0,67,68
 606 144 606 144 704 144 c 0,69,70
 744 144 744 144 780 150 c 1,71,72
 790 169 790 169 802.5 193.5 c 128,-1,73
 815 218 815 218 821 229.5 c 128,-1,74
 827 241 827 241 835.5 256 c 128,-1,75
 844 271 844 271 848.5 278 c 128,-1,76
 853 285 853 285 859 293 c 128,-1,30
 865 301 865 301 870.5 305.5 c 128,-1,31
270 226 m 1,77,78
 242 211 242 211 236 211 c 128,-1,79
 230 211 230 211 229 214 c 1,80,81
 229 227 229 227 254 242 c 2,82,-1
 924 654 l 2,83,84
 946 668 946 668 956 668 c 128,-1,85
 966 668 966 668 965 664 c 1,86,87
 965 653 965 653 940 638 c 2,88,-1
 270 226 l 1,77,78
EndSplineSet
EndChar

